<mxfile host="app.diagrams.net" modified="2022-06-15T11:04:30.453Z" agent="5.0 (Windows)" etag="rc2gubIApBh3Kepn0Cey" version="20.0.1" type="github">
  <diagram id="R2lEEEUBdFMjLlhIrx00" name="Page-1">
    <mxGraphModel dx="1730" dy="893" grid="1" gridSize="10" guides="1" tooltips="1" connect="1" arrows="1" fold="1" page="1" pageScale="1" pageWidth="1654" pageHeight="2336" math="0" shadow="0" extFonts="Permanent Marker^https://fonts.googleapis.com/css?family=Permanent+Marker">
      <root>
        <mxCell id="0" />
        <mxCell id="1" parent="0" />
        <mxCell id="xyOO_spzbX_BqFr2w0Wo-58" value="" style="edgeStyle=orthogonalEdgeStyle;rounded=0;orthogonalLoop=1;jettySize=auto;html=1;endArrow=none;endFill=0;" parent="1" source="xyOO_spzbX_BqFr2w0Wo-1" target="xyOO_spzbX_BqFr2w0Wo-57" edge="1">
          <mxGeometry relative="1" as="geometry" />
        </mxCell>
        <mxCell id="xyOO_spzbX_BqFr2w0Wo-1" value="Company 公司" style="shape=table;startSize=30;container=1;collapsible=1;childLayout=tableLayout;fixedRows=1;rowLines=0;fontStyle=1;align=center;resizeLast=1;fillColor=#dae8fc;strokeColor=#6c8ebf;" parent="1" vertex="1">
          <mxGeometry x="560" y="723" width="235" height="460" as="geometry">
            <mxRectangle x="585" y="220" width="80" height="30" as="alternateBounds" />
          </mxGeometry>
        </mxCell>
        <mxCell id="xyOO_spzbX_BqFr2w0Wo-2" value="" style="shape=tableRow;horizontal=0;startSize=0;swimlaneHead=0;swimlaneBody=0;fillColor=none;collapsible=0;dropTarget=0;points=[[0,0.5],[1,0.5]];portConstraint=eastwest;top=0;left=0;right=0;bottom=1;" parent="xyOO_spzbX_BqFr2w0Wo-1" vertex="1">
          <mxGeometry y="30" width="235" height="30" as="geometry" />
        </mxCell>
        <mxCell id="xyOO_spzbX_BqFr2w0Wo-3" value="PK" style="shape=partialRectangle;connectable=0;fillColor=none;top=0;left=0;bottom=0;right=0;fontStyle=1;overflow=hidden;" parent="xyOO_spzbX_BqFr2w0Wo-2" vertex="1">
          <mxGeometry width="30" height="30" as="geometry">
            <mxRectangle width="30" height="30" as="alternateBounds" />
          </mxGeometry>
        </mxCell>
        <mxCell id="xyOO_spzbX_BqFr2w0Wo-4" value="uuid" style="shape=partialRectangle;connectable=0;fillColor=none;top=0;left=0;bottom=0;right=0;align=left;spacingLeft=6;fontStyle=5;overflow=hidden;" parent="xyOO_spzbX_BqFr2w0Wo-2" vertex="1">
          <mxGeometry x="30" width="205" height="30" as="geometry">
            <mxRectangle width="205" height="30" as="alternateBounds" />
          </mxGeometry>
        </mxCell>
        <mxCell id="xyOO_spzbX_BqFr2w0Wo-5" value="" style="shape=tableRow;horizontal=0;startSize=0;swimlaneHead=0;swimlaneBody=0;fillColor=none;collapsible=0;dropTarget=0;points=[[0,0.5],[1,0.5]];portConstraint=eastwest;top=0;left=0;right=0;bottom=0;" parent="xyOO_spzbX_BqFr2w0Wo-1" vertex="1">
          <mxGeometry y="60" width="235" height="30" as="geometry" />
        </mxCell>
        <mxCell id="xyOO_spzbX_BqFr2w0Wo-6" value="" style="shape=partialRectangle;connectable=0;fillColor=none;top=0;left=0;bottom=0;right=0;editable=1;overflow=hidden;" parent="xyOO_spzbX_BqFr2w0Wo-5" vertex="1">
          <mxGeometry width="30" height="30" as="geometry">
            <mxRectangle width="30" height="30" as="alternateBounds" />
          </mxGeometry>
        </mxCell>
        <mxCell id="xyOO_spzbX_BqFr2w0Wo-7" value="name [text] 公司名" style="shape=partialRectangle;connectable=0;fillColor=none;top=0;left=0;bottom=0;right=0;align=left;spacingLeft=6;overflow=hidden;" parent="xyOO_spzbX_BqFr2w0Wo-5" vertex="1">
          <mxGeometry x="30" width="205" height="30" as="geometry">
            <mxRectangle width="205" height="30" as="alternateBounds" />
          </mxGeometry>
        </mxCell>
        <mxCell id="xyOO_spzbX_BqFr2w0Wo-8" value="" style="shape=tableRow;horizontal=0;startSize=0;swimlaneHead=0;swimlaneBody=0;fillColor=none;collapsible=0;dropTarget=0;points=[[0,0.5],[1,0.5]];portConstraint=eastwest;top=0;left=0;right=0;bottom=0;" parent="xyOO_spzbX_BqFr2w0Wo-1" vertex="1">
          <mxGeometry y="90" width="235" height="30" as="geometry" />
        </mxCell>
        <mxCell id="xyOO_spzbX_BqFr2w0Wo-9" value="" style="shape=partialRectangle;connectable=0;fillColor=none;top=0;left=0;bottom=0;right=0;editable=1;overflow=hidden;" parent="xyOO_spzbX_BqFr2w0Wo-8" vertex="1">
          <mxGeometry width="30" height="30" as="geometry">
            <mxRectangle width="30" height="30" as="alternateBounds" />
          </mxGeometry>
        </mxCell>
        <mxCell id="xyOO_spzbX_BqFr2w0Wo-10" value="en_name [text] 公司英文名" style="shape=partialRectangle;connectable=0;fillColor=none;top=0;left=0;bottom=0;right=0;align=left;spacingLeft=6;overflow=hidden;" parent="xyOO_spzbX_BqFr2w0Wo-8" vertex="1">
          <mxGeometry x="30" width="205" height="30" as="geometry">
            <mxRectangle width="205" height="30" as="alternateBounds" />
          </mxGeometry>
        </mxCell>
        <mxCell id="xyOO_spzbX_BqFr2w0Wo-11" value="" style="shape=tableRow;horizontal=0;startSize=0;swimlaneHead=0;swimlaneBody=0;fillColor=none;collapsible=0;dropTarget=0;points=[[0,0.5],[1,0.5]];portConstraint=eastwest;top=0;left=0;right=0;bottom=0;" parent="xyOO_spzbX_BqFr2w0Wo-1" vertex="1">
          <mxGeometry y="120" width="235" height="30" as="geometry" />
        </mxCell>
        <mxCell id="xyOO_spzbX_BqFr2w0Wo-12" value="" style="shape=partialRectangle;connectable=0;fillColor=none;top=0;left=0;bottom=0;right=0;editable=1;overflow=hidden;" parent="xyOO_spzbX_BqFr2w0Wo-11" vertex="1">
          <mxGeometry width="30" height="30" as="geometry">
            <mxRectangle width="30" height="30" as="alternateBounds" />
          </mxGeometry>
        </mxCell>
        <mxCell id="xyOO_spzbX_BqFr2w0Wo-13" value="corporation [text] 法人" style="shape=partialRectangle;connectable=0;fillColor=none;top=0;left=0;bottom=0;right=0;align=left;spacingLeft=6;overflow=hidden;" parent="xyOO_spzbX_BqFr2w0Wo-11" vertex="1">
          <mxGeometry x="30" width="205" height="30" as="geometry">
            <mxRectangle width="205" height="30" as="alternateBounds" />
          </mxGeometry>
        </mxCell>
        <mxCell id="xyOO_spzbX_BqFr2w0Wo-32" style="shape=tableRow;horizontal=0;startSize=0;swimlaneHead=0;swimlaneBody=0;fillColor=none;collapsible=0;dropTarget=0;points=[[0,0.5],[1,0.5]];portConstraint=eastwest;top=0;left=0;right=0;bottom=0;" parent="xyOO_spzbX_BqFr2w0Wo-1" vertex="1">
          <mxGeometry y="150" width="235" height="30" as="geometry" />
        </mxCell>
        <mxCell id="xyOO_spzbX_BqFr2w0Wo-33" style="shape=partialRectangle;connectable=0;fillColor=none;top=0;left=0;bottom=0;right=0;editable=1;overflow=hidden;" parent="xyOO_spzbX_BqFr2w0Wo-32" vertex="1">
          <mxGeometry width="30" height="30" as="geometry">
            <mxRectangle width="30" height="30" as="alternateBounds" />
          </mxGeometry>
        </mxCell>
        <mxCell id="xyOO_spzbX_BqFr2w0Wo-34" value="contacts [text] 联系人" style="shape=partialRectangle;connectable=0;fillColor=none;top=0;left=0;bottom=0;right=0;align=left;spacingLeft=6;overflow=hidden;" parent="xyOO_spzbX_BqFr2w0Wo-32" vertex="1">
          <mxGeometry x="30" width="205" height="30" as="geometry">
            <mxRectangle width="205" height="30" as="alternateBounds" />
          </mxGeometry>
        </mxCell>
        <mxCell id="xyOO_spzbX_BqFr2w0Wo-29" style="shape=tableRow;horizontal=0;startSize=0;swimlaneHead=0;swimlaneBody=0;fillColor=none;collapsible=0;dropTarget=0;points=[[0,0.5],[1,0.5]];portConstraint=eastwest;top=0;left=0;right=0;bottom=0;" parent="xyOO_spzbX_BqFr2w0Wo-1" vertex="1">
          <mxGeometry y="180" width="235" height="30" as="geometry" />
        </mxCell>
        <mxCell id="xyOO_spzbX_BqFr2w0Wo-30" style="shape=partialRectangle;connectable=0;fillColor=none;top=0;left=0;bottom=0;right=0;editable=1;overflow=hidden;" parent="xyOO_spzbX_BqFr2w0Wo-29" vertex="1">
          <mxGeometry width="30" height="30" as="geometry">
            <mxRectangle width="30" height="30" as="alternateBounds" />
          </mxGeometry>
        </mxCell>
        <mxCell id="xyOO_spzbX_BqFr2w0Wo-31" value="contact_tel [text] 联系电话" style="shape=partialRectangle;connectable=0;fillColor=none;top=0;left=0;bottom=0;right=0;align=left;spacingLeft=6;overflow=hidden;" parent="xyOO_spzbX_BqFr2w0Wo-29" vertex="1">
          <mxGeometry x="30" width="205" height="30" as="geometry">
            <mxRectangle width="205" height="30" as="alternateBounds" />
          </mxGeometry>
        </mxCell>
        <mxCell id="xyOO_spzbX_BqFr2w0Wo-23" style="shape=tableRow;horizontal=0;startSize=0;swimlaneHead=0;swimlaneBody=0;fillColor=none;collapsible=0;dropTarget=0;points=[[0,0.5],[1,0.5]];portConstraint=eastwest;top=0;left=0;right=0;bottom=0;" parent="xyOO_spzbX_BqFr2w0Wo-1" vertex="1">
          <mxGeometry y="210" width="235" height="30" as="geometry" />
        </mxCell>
        <mxCell id="xyOO_spzbX_BqFr2w0Wo-24" style="shape=partialRectangle;connectable=0;fillColor=none;top=0;left=0;bottom=0;right=0;editable=1;overflow=hidden;" parent="xyOO_spzbX_BqFr2w0Wo-23" vertex="1">
          <mxGeometry width="30" height="30" as="geometry">
            <mxRectangle width="30" height="30" as="alternateBounds" />
          </mxGeometry>
        </mxCell>
        <mxCell id="xyOO_spzbX_BqFr2w0Wo-25" value="brief_information [text] 公司信息" style="shape=partialRectangle;connectable=0;fillColor=none;top=0;left=0;bottom=0;right=0;align=left;spacingLeft=6;overflow=hidden;" parent="xyOO_spzbX_BqFr2w0Wo-23" vertex="1">
          <mxGeometry x="30" width="205" height="30" as="geometry">
            <mxRectangle width="205" height="30" as="alternateBounds" />
          </mxGeometry>
        </mxCell>
        <mxCell id="xyOO_spzbX_BqFr2w0Wo-20" style="shape=tableRow;horizontal=0;startSize=0;swimlaneHead=0;swimlaneBody=0;fillColor=none;collapsible=0;dropTarget=0;points=[[0,0.5],[1,0.5]];portConstraint=eastwest;top=0;left=0;right=0;bottom=0;" parent="xyOO_spzbX_BqFr2w0Wo-1" vertex="1">
          <mxGeometry y="240" width="235" height="30" as="geometry" />
        </mxCell>
        <mxCell id="xyOO_spzbX_BqFr2w0Wo-21" style="shape=partialRectangle;connectable=0;fillColor=none;top=0;left=0;bottom=0;right=0;editable=1;overflow=hidden;" parent="xyOO_spzbX_BqFr2w0Wo-20" vertex="1">
          <mxGeometry width="30" height="30" as="geometry">
            <mxRectangle width="30" height="30" as="alternateBounds" />
          </mxGeometry>
        </mxCell>
        <mxCell id="xyOO_spzbX_BqFr2w0Wo-22" value="coder [text] 社会信用码" style="shape=partialRectangle;connectable=0;fillColor=none;top=0;left=0;bottom=0;right=0;align=left;spacingLeft=6;overflow=hidden;" parent="xyOO_spzbX_BqFr2w0Wo-20" vertex="1">
          <mxGeometry x="30" width="205" height="30" as="geometry">
            <mxRectangle width="205" height="30" as="alternateBounds" />
          </mxGeometry>
        </mxCell>
        <mxCell id="xyOO_spzbX_BqFr2w0Wo-44" style="shape=tableRow;horizontal=0;startSize=0;swimlaneHead=0;swimlaneBody=0;fillColor=none;collapsible=0;dropTarget=0;points=[[0,0.5],[1,0.5]];portConstraint=eastwest;top=0;left=0;right=0;bottom=0;" parent="xyOO_spzbX_BqFr2w0Wo-1" vertex="1">
          <mxGeometry y="270" width="235" height="30" as="geometry" />
        </mxCell>
        <mxCell id="xyOO_spzbX_BqFr2w0Wo-45" style="shape=partialRectangle;connectable=0;fillColor=none;top=0;left=0;bottom=0;right=0;editable=1;overflow=hidden;" parent="xyOO_spzbX_BqFr2w0Wo-44" vertex="1">
          <mxGeometry width="30" height="30" as="geometry">
            <mxRectangle width="30" height="30" as="alternateBounds" />
          </mxGeometry>
        </mxCell>
        <mxCell id="xyOO_spzbX_BqFr2w0Wo-46" value="website [varchar200] 网址" style="shape=partialRectangle;connectable=0;fillColor=none;top=0;left=0;bottom=0;right=0;align=left;spacingLeft=6;overflow=hidden;" parent="xyOO_spzbX_BqFr2w0Wo-44" vertex="1">
          <mxGeometry x="30" width="205" height="30" as="geometry">
            <mxRectangle width="205" height="30" as="alternateBounds" />
          </mxGeometry>
        </mxCell>
        <mxCell id="xyOO_spzbX_BqFr2w0Wo-41" style="shape=tableRow;horizontal=0;startSize=0;swimlaneHead=0;swimlaneBody=0;fillColor=none;collapsible=0;dropTarget=0;points=[[0,0.5],[1,0.5]];portConstraint=eastwest;top=0;left=0;right=0;bottom=0;" parent="xyOO_spzbX_BqFr2w0Wo-1" vertex="1">
          <mxGeometry y="300" width="235" height="30" as="geometry" />
        </mxCell>
        <mxCell id="xyOO_spzbX_BqFr2w0Wo-42" style="shape=partialRectangle;connectable=0;fillColor=none;top=0;left=0;bottom=0;right=0;editable=1;overflow=hidden;" parent="xyOO_spzbX_BqFr2w0Wo-41" vertex="1">
          <mxGeometry width="30" height="30" as="geometry">
            <mxRectangle width="30" height="30" as="alternateBounds" />
          </mxGeometry>
        </mxCell>
        <mxCell id="xyOO_spzbX_BqFr2w0Wo-43" value="Email [text] 邮箱" style="shape=partialRectangle;connectable=0;fillColor=none;top=0;left=0;bottom=0;right=0;align=left;spacingLeft=6;overflow=hidden;" parent="xyOO_spzbX_BqFr2w0Wo-41" vertex="1">
          <mxGeometry x="30" width="205" height="30" as="geometry">
            <mxRectangle width="205" height="30" as="alternateBounds" />
          </mxGeometry>
        </mxCell>
        <mxCell id="xyOO_spzbX_BqFr2w0Wo-35" style="shape=tableRow;horizontal=0;startSize=0;swimlaneHead=0;swimlaneBody=0;fillColor=none;collapsible=0;dropTarget=0;points=[[0,0.5],[1,0.5]];portConstraint=eastwest;top=0;left=0;right=0;bottom=0;" parent="xyOO_spzbX_BqFr2w0Wo-1" vertex="1">
          <mxGeometry y="330" width="235" height="30" as="geometry" />
        </mxCell>
        <mxCell id="xyOO_spzbX_BqFr2w0Wo-36" style="shape=partialRectangle;connectable=0;fillColor=none;top=0;left=0;bottom=0;right=0;editable=1;overflow=hidden;" parent="xyOO_spzbX_BqFr2w0Wo-35" vertex="1">
          <mxGeometry width="30" height="30" as="geometry">
            <mxRectangle width="30" height="30" as="alternateBounds" />
          </mxGeometry>
        </mxCell>
        <mxCell id="xyOO_spzbX_BqFr2w0Wo-37" value="comments [text] 备注" style="shape=partialRectangle;connectable=0;fillColor=none;top=0;left=0;bottom=0;right=0;align=left;spacingLeft=6;overflow=hidden;" parent="xyOO_spzbX_BqFr2w0Wo-35" vertex="1">
          <mxGeometry x="30" width="205" height="30" as="geometry">
            <mxRectangle width="205" height="30" as="alternateBounds" />
          </mxGeometry>
        </mxCell>
        <mxCell id="xyOO_spzbX_BqFr2w0Wo-50" style="shape=tableRow;horizontal=0;startSize=0;swimlaneHead=0;swimlaneBody=0;fillColor=none;collapsible=0;dropTarget=0;points=[[0,0.5],[1,0.5]];portConstraint=eastwest;top=0;left=0;right=0;bottom=0;" parent="xyOO_spzbX_BqFr2w0Wo-1" vertex="1">
          <mxGeometry y="360" width="235" height="30" as="geometry" />
        </mxCell>
        <mxCell id="xyOO_spzbX_BqFr2w0Wo-51" style="shape=partialRectangle;connectable=0;fillColor=none;top=0;left=0;bottom=0;right=0;editable=1;overflow=hidden;" parent="xyOO_spzbX_BqFr2w0Wo-50" vertex="1">
          <mxGeometry width="30" height="30" as="geometry">
            <mxRectangle width="30" height="30" as="alternateBounds" />
          </mxGeometry>
        </mxCell>
        <mxCell id="xyOO_spzbX_BqFr2w0Wo-52" value="attribute [text] 其他" style="shape=partialRectangle;connectable=0;fillColor=none;top=0;left=0;bottom=0;right=0;align=left;spacingLeft=6;overflow=hidden;" parent="xyOO_spzbX_BqFr2w0Wo-50" vertex="1">
          <mxGeometry x="30" width="205" height="30" as="geometry">
            <mxRectangle width="205" height="30" as="alternateBounds" />
          </mxGeometry>
        </mxCell>
        <mxCell id="xyOO_spzbX_BqFr2w0Wo-47" style="shape=tableRow;horizontal=0;startSize=0;swimlaneHead=0;swimlaneBody=0;fillColor=none;collapsible=0;dropTarget=0;points=[[0,0.5],[1,0.5]];portConstraint=eastwest;top=0;left=0;right=0;bottom=0;" parent="xyOO_spzbX_BqFr2w0Wo-1" vertex="1">
          <mxGeometry y="390" width="235" height="30" as="geometry" />
        </mxCell>
        <mxCell id="xyOO_spzbX_BqFr2w0Wo-48" style="shape=partialRectangle;connectable=0;fillColor=none;top=0;left=0;bottom=0;right=0;editable=1;overflow=hidden;" parent="xyOO_spzbX_BqFr2w0Wo-47" vertex="1">
          <mxGeometry width="30" height="30" as="geometry">
            <mxRectangle width="30" height="30" as="alternateBounds" />
          </mxGeometry>
        </mxCell>
        <mxCell id="xyOO_spzbX_BqFr2w0Wo-49" value="now_staus [int2] 组织状态" style="shape=partialRectangle;connectable=0;fillColor=none;top=0;left=0;bottom=0;right=0;align=left;spacingLeft=6;overflow=hidden;" parent="xyOO_spzbX_BqFr2w0Wo-47" vertex="1">
          <mxGeometry x="30" width="205" height="30" as="geometry">
            <mxRectangle width="205" height="30" as="alternateBounds" />
          </mxGeometry>
        </mxCell>
        <mxCell id="xyOO_spzbX_BqFr2w0Wo-53" style="shape=tableRow;horizontal=0;startSize=0;swimlaneHead=0;swimlaneBody=0;fillColor=none;collapsible=0;dropTarget=0;points=[[0,0.5],[1,0.5]];portConstraint=eastwest;top=0;left=0;right=0;bottom=0;" parent="xyOO_spzbX_BqFr2w0Wo-1" vertex="1">
          <mxGeometry y="420" width="235" height="30" as="geometry" />
        </mxCell>
        <mxCell id="xyOO_spzbX_BqFr2w0Wo-54" style="shape=partialRectangle;connectable=0;fillColor=none;top=0;left=0;bottom=0;right=0;editable=1;overflow=hidden;" parent="xyOO_spzbX_BqFr2w0Wo-53" vertex="1">
          <mxGeometry width="30" height="30" as="geometry">
            <mxRectangle width="30" height="30" as="alternateBounds" />
          </mxGeometry>
        </mxCell>
        <mxCell id="xyOO_spzbX_BqFr2w0Wo-55" value="now_type [int2] 组织类型" style="shape=partialRectangle;connectable=0;fillColor=none;top=0;left=0;bottom=0;right=0;align=left;spacingLeft=6;overflow=hidden;" parent="xyOO_spzbX_BqFr2w0Wo-53" vertex="1">
          <mxGeometry x="30" width="205" height="30" as="geometry">
            <mxRectangle width="205" height="30" as="alternateBounds" />
          </mxGeometry>
        </mxCell>
        <mxCell id="xyOO_spzbX_BqFr2w0Wo-57" value="属于" style="rhombus;whiteSpace=wrap;html=1;fillColor=#fff2cc;strokeColor=#d6b656;startSize=30;fontStyle=1;" parent="1" vertex="1">
          <mxGeometry x="839" y="913" width="80" height="80" as="geometry" />
        </mxCell>
        <mxCell id="xyOO_spzbX_BqFr2w0Wo-59" value="Industry 行业" style="shape=table;startSize=30;container=1;collapsible=1;childLayout=tableLayout;fixedRows=1;rowLines=0;fontStyle=1;align=center;resizeLast=1;fillColor=#fff2cc;strokeColor=#d6b656;" parent="1" vertex="1">
          <mxGeometry x="952" y="873" width="180" height="160" as="geometry" />
        </mxCell>
        <mxCell id="xyOO_spzbX_BqFr2w0Wo-60" value="" style="shape=tableRow;horizontal=0;startSize=0;swimlaneHead=0;swimlaneBody=0;fillColor=none;collapsible=0;dropTarget=0;points=[[0,0.5],[1,0.5]];portConstraint=eastwest;top=0;left=0;right=0;bottom=1;" parent="xyOO_spzbX_BqFr2w0Wo-59" vertex="1">
          <mxGeometry y="30" width="180" height="30" as="geometry" />
        </mxCell>
        <mxCell id="xyOO_spzbX_BqFr2w0Wo-61" value="PK" style="shape=partialRectangle;connectable=0;fillColor=none;top=0;left=0;bottom=0;right=0;fontStyle=1;overflow=hidden;" parent="xyOO_spzbX_BqFr2w0Wo-60" vertex="1">
          <mxGeometry width="30" height="30" as="geometry">
            <mxRectangle width="30" height="30" as="alternateBounds" />
          </mxGeometry>
        </mxCell>
        <mxCell id="xyOO_spzbX_BqFr2w0Wo-62" value="id" style="shape=partialRectangle;connectable=0;fillColor=none;top=0;left=0;bottom=0;right=0;align=left;spacingLeft=6;fontStyle=5;overflow=hidden;" parent="xyOO_spzbX_BqFr2w0Wo-60" vertex="1">
          <mxGeometry x="30" width="150" height="30" as="geometry">
            <mxRectangle width="150" height="30" as="alternateBounds" />
          </mxGeometry>
        </mxCell>
        <mxCell id="xyOO_spzbX_BqFr2w0Wo-63" value="" style="shape=tableRow;horizontal=0;startSize=0;swimlaneHead=0;swimlaneBody=0;fillColor=none;collapsible=0;dropTarget=0;points=[[0,0.5],[1,0.5]];portConstraint=eastwest;top=0;left=0;right=0;bottom=0;" parent="xyOO_spzbX_BqFr2w0Wo-59" vertex="1">
          <mxGeometry y="60" width="180" height="30" as="geometry" />
        </mxCell>
        <mxCell id="xyOO_spzbX_BqFr2w0Wo-64" value="" style="shape=partialRectangle;connectable=0;fillColor=none;top=0;left=0;bottom=0;right=0;editable=1;overflow=hidden;" parent="xyOO_spzbX_BqFr2w0Wo-63" vertex="1">
          <mxGeometry width="30" height="30" as="geometry">
            <mxRectangle width="30" height="30" as="alternateBounds" />
          </mxGeometry>
        </mxCell>
        <mxCell id="xyOO_spzbX_BqFr2w0Wo-65" value="name 行业名称 unique" style="shape=partialRectangle;connectable=0;fillColor=none;top=0;left=0;bottom=0;right=0;align=left;spacingLeft=6;overflow=hidden;" parent="xyOO_spzbX_BqFr2w0Wo-63" vertex="1">
          <mxGeometry x="30" width="150" height="30" as="geometry">
            <mxRectangle width="150" height="30" as="alternateBounds" />
          </mxGeometry>
        </mxCell>
        <mxCell id="xyOO_spzbX_BqFr2w0Wo-66" value="" style="shape=tableRow;horizontal=0;startSize=0;swimlaneHead=0;swimlaneBody=0;fillColor=none;collapsible=0;dropTarget=0;points=[[0,0.5],[1,0.5]];portConstraint=eastwest;top=0;left=0;right=0;bottom=0;" parent="xyOO_spzbX_BqFr2w0Wo-59" vertex="1">
          <mxGeometry y="90" width="180" height="30" as="geometry" />
        </mxCell>
        <mxCell id="xyOO_spzbX_BqFr2w0Wo-67" value="" style="shape=partialRectangle;connectable=0;fillColor=none;top=0;left=0;bottom=0;right=0;editable=1;overflow=hidden;" parent="xyOO_spzbX_BqFr2w0Wo-66" vertex="1">
          <mxGeometry width="30" height="30" as="geometry">
            <mxRectangle width="30" height="30" as="alternateBounds" />
          </mxGeometry>
        </mxCell>
        <mxCell id="xyOO_spzbX_BqFr2w0Wo-68" value="class_id 类别编号" style="shape=partialRectangle;connectable=0;fillColor=none;top=0;left=0;bottom=0;right=0;align=left;spacingLeft=6;overflow=hidden;" parent="xyOO_spzbX_BqFr2w0Wo-66" vertex="1">
          <mxGeometry x="30" width="150" height="30" as="geometry">
            <mxRectangle width="150" height="30" as="alternateBounds" />
          </mxGeometry>
        </mxCell>
        <mxCell id="xyOO_spzbX_BqFr2w0Wo-69" value="" style="shape=tableRow;horizontal=0;startSize=0;swimlaneHead=0;swimlaneBody=0;fillColor=none;collapsible=0;dropTarget=0;points=[[0,0.5],[1,0.5]];portConstraint=eastwest;top=0;left=0;right=0;bottom=0;" parent="xyOO_spzbX_BqFr2w0Wo-59" vertex="1">
          <mxGeometry y="120" width="180" height="30" as="geometry" />
        </mxCell>
        <mxCell id="xyOO_spzbX_BqFr2w0Wo-70" value="" style="shape=partialRectangle;connectable=0;fillColor=none;top=0;left=0;bottom=0;right=0;editable=1;overflow=hidden;" parent="xyOO_spzbX_BqFr2w0Wo-69" vertex="1">
          <mxGeometry width="30" height="30" as="geometry">
            <mxRectangle width="30" height="30" as="alternateBounds" />
          </mxGeometry>
        </mxCell>
        <mxCell id="xyOO_spzbX_BqFr2w0Wo-71" value="class_name 类别名称" style="shape=partialRectangle;connectable=0;fillColor=none;top=0;left=0;bottom=0;right=0;align=left;spacingLeft=6;overflow=hidden;" parent="xyOO_spzbX_BqFr2w0Wo-69" vertex="1">
          <mxGeometry x="30" width="150" height="30" as="geometry">
            <mxRectangle width="150" height="30" as="alternateBounds" />
          </mxGeometry>
        </mxCell>
        <mxCell id="xyOO_spzbX_BqFr2w0Wo-72" value="" style="edgeStyle=orthogonalEdgeStyle;rounded=0;orthogonalLoop=1;jettySize=auto;html=1;endArrow=classic;endFill=1;exitX=1;exitY=0.5;exitDx=0;exitDy=0;entryX=0.003;entryY=0.368;entryDx=0;entryDy=0;entryPerimeter=0;" parent="1" source="xyOO_spzbX_BqFr2w0Wo-57" target="xyOO_spzbX_BqFr2w0Wo-60" edge="1">
          <mxGeometry relative="1" as="geometry">
            <mxPoint x="787" y="963" as="sourcePoint" />
            <mxPoint x="849.0000000000002" y="963" as="targetPoint" />
          </mxGeometry>
        </mxCell>
        <mxCell id="xyOO_spzbX_BqFr2w0Wo-75" value="" style="edgeStyle=orthogonalEdgeStyle;rounded=0;orthogonalLoop=1;jettySize=auto;html=1;endArrow=none;endFill=0;" parent="1" source="xyOO_spzbX_BqFr2w0Wo-47" target="xyOO_spzbX_BqFr2w0Wo-76" edge="1">
          <mxGeometry relative="1" as="geometry">
            <mxPoint x="786" y="1141" as="sourcePoint" />
          </mxGeometry>
        </mxCell>
        <mxCell id="xyOO_spzbX_BqFr2w0Wo-76" value="属于" style="rhombus;whiteSpace=wrap;html=1;fillColor=#fff2cc;strokeColor=#d6b656;startSize=30;fontStyle=1;" parent="1" vertex="1">
          <mxGeometry x="848" y="1064" width="80" height="80" as="geometry" />
        </mxCell>
        <mxCell id="xyOO_spzbX_BqFr2w0Wo-77" value="Province 省份" style="shape=table;startSize=30;container=1;collapsible=1;childLayout=tableLayout;fixedRows=1;rowLines=0;fontStyle=1;align=center;resizeLast=1;fillColor=#fff2cc;strokeColor=#d6b656;" parent="1" vertex="1">
          <mxGeometry x="964" y="1061" width="180" height="100" as="geometry" />
        </mxCell>
        <mxCell id="xyOO_spzbX_BqFr2w0Wo-78" value="" style="shape=tableRow;horizontal=0;startSize=0;swimlaneHead=0;swimlaneBody=0;fillColor=none;collapsible=0;dropTarget=0;points=[[0,0.5],[1,0.5]];portConstraint=eastwest;top=0;left=0;right=0;bottom=1;" parent="xyOO_spzbX_BqFr2w0Wo-77" vertex="1">
          <mxGeometry y="30" width="180" height="30" as="geometry" />
        </mxCell>
        <mxCell id="xyOO_spzbX_BqFr2w0Wo-79" value="PK" style="shape=partialRectangle;connectable=0;fillColor=none;top=0;left=0;bottom=0;right=0;fontStyle=1;overflow=hidden;" parent="xyOO_spzbX_BqFr2w0Wo-78" vertex="1">
          <mxGeometry width="30" height="30" as="geometry">
            <mxRectangle width="30" height="30" as="alternateBounds" />
          </mxGeometry>
        </mxCell>
        <mxCell id="xyOO_spzbX_BqFr2w0Wo-80" value="id" style="shape=partialRectangle;connectable=0;fillColor=none;top=0;left=0;bottom=0;right=0;align=left;spacingLeft=6;fontStyle=5;overflow=hidden;" parent="xyOO_spzbX_BqFr2w0Wo-78" vertex="1">
          <mxGeometry x="30" width="150" height="30" as="geometry">
            <mxRectangle width="150" height="30" as="alternateBounds" />
          </mxGeometry>
        </mxCell>
        <mxCell id="xyOO_spzbX_BqFr2w0Wo-81" value="" style="shape=tableRow;horizontal=0;startSize=0;swimlaneHead=0;swimlaneBody=0;fillColor=none;collapsible=0;dropTarget=0;points=[[0,0.5],[1,0.5]];portConstraint=eastwest;top=0;left=0;right=0;bottom=0;" parent="xyOO_spzbX_BqFr2w0Wo-77" vertex="1">
          <mxGeometry y="60" width="180" height="30" as="geometry" />
        </mxCell>
        <mxCell id="xyOO_spzbX_BqFr2w0Wo-82" value="" style="shape=partialRectangle;connectable=0;fillColor=none;top=0;left=0;bottom=0;right=0;editable=1;overflow=hidden;" parent="xyOO_spzbX_BqFr2w0Wo-81" vertex="1">
          <mxGeometry width="30" height="30" as="geometry">
            <mxRectangle width="30" height="30" as="alternateBounds" />
          </mxGeometry>
        </mxCell>
        <mxCell id="xyOO_spzbX_BqFr2w0Wo-83" value="name 省份名称 unique" style="shape=partialRectangle;connectable=0;fillColor=none;top=0;left=0;bottom=0;right=0;align=left;spacingLeft=6;overflow=hidden;" parent="xyOO_spzbX_BqFr2w0Wo-81" vertex="1">
          <mxGeometry x="30" width="150" height="30" as="geometry">
            <mxRectangle width="150" height="30" as="alternateBounds" />
          </mxGeometry>
        </mxCell>
        <mxCell id="xyOO_spzbX_BqFr2w0Wo-90" value="" style="edgeStyle=orthogonalEdgeStyle;rounded=0;orthogonalLoop=1;jettySize=auto;html=1;endArrow=classic;endFill=1;exitX=1;exitY=0.5;exitDx=0;exitDy=0;entryX=0.003;entryY=0.368;entryDx=0;entryDy=0;entryPerimeter=0;" parent="1" source="xyOO_spzbX_BqFr2w0Wo-76" target="xyOO_spzbX_BqFr2w0Wo-78" edge="1">
          <mxGeometry relative="1" as="geometry">
            <mxPoint x="796" y="1151" as="sourcePoint" />
            <mxPoint x="858.0000000000002" y="1151" as="targetPoint" />
            <Array as="points">
              <mxPoint x="928" y="1103" />
              <mxPoint x="965" y="1103" />
            </Array>
          </mxGeometry>
        </mxCell>
        <mxCell id="xyOO_spzbX_BqFr2w0Wo-91" value="" style="endArrow=none;html=1;rounded=0;entryX=0.5;entryY=0;entryDx=0;entryDy=0;exitX=0.5;exitY=1;exitDx=0;exitDy=0;dashed=1;" parent="1" source="xyOO_spzbX_BqFr2w0Wo-92" target="xyOO_spzbX_BqFr2w0Wo-76" edge="1">
          <mxGeometry relative="1" as="geometry">
            <mxPoint x="881" y="1071" as="sourcePoint" />
            <mxPoint x="1001" y="1051" as="targetPoint" />
          </mxGeometry>
        </mxCell>
        <mxCell id="xyOO_spzbX_BqFr2w0Wo-92" value="&lt;div&gt;province&lt;/div&gt;&lt;div&gt;city&lt;/div&gt;&lt;div&gt;district&lt;br&gt;&lt;/div&gt;" style="whiteSpace=wrap;html=1;align=center;" parent="1" vertex="1">
          <mxGeometry x="839" y="1004" width="100" height="48" as="geometry" />
        </mxCell>
        <mxCell id="xyOO_spzbX_BqFr2w0Wo-93" value="CompanyStandard 公司标准" style="shape=table;startSize=30;container=1;collapsible=1;childLayout=tableLayout;fixedRows=1;rowLines=0;fontStyle=1;align=center;resizeLast=1;fillColor=#f8cecc;strokeColor=#b85450;" parent="1" vertex="1">
          <mxGeometry x="402" y="1268" width="280" height="610" as="geometry">
            <mxRectangle x="585" y="220" width="80" height="30" as="alternateBounds" />
          </mxGeometry>
        </mxCell>
        <mxCell id="xyOO_spzbX_BqFr2w0Wo-94" value="" style="shape=tableRow;horizontal=0;startSize=0;swimlaneHead=0;swimlaneBody=0;fillColor=none;collapsible=0;dropTarget=0;points=[[0,0.5],[1,0.5]];portConstraint=eastwest;top=0;left=0;right=0;bottom=1;" parent="xyOO_spzbX_BqFr2w0Wo-93" vertex="1">
          <mxGeometry y="30" width="280" height="30" as="geometry" />
        </mxCell>
        <mxCell id="xyOO_spzbX_BqFr2w0Wo-95" value="PK" style="shape=partialRectangle;connectable=0;fillColor=none;top=0;left=0;bottom=0;right=0;fontStyle=1;overflow=hidden;" parent="xyOO_spzbX_BqFr2w0Wo-94" vertex="1">
          <mxGeometry width="30" height="30" as="geometry">
            <mxRectangle width="30" height="30" as="alternateBounds" />
          </mxGeometry>
        </mxCell>
        <mxCell id="xyOO_spzbX_BqFr2w0Wo-96" value="uuid" style="shape=partialRectangle;connectable=0;fillColor=none;top=0;left=0;bottom=0;right=0;align=left;spacingLeft=6;fontStyle=5;overflow=hidden;" parent="xyOO_spzbX_BqFr2w0Wo-94" vertex="1">
          <mxGeometry x="30" width="250" height="30" as="geometry">
            <mxRectangle width="250" height="30" as="alternateBounds" />
          </mxGeometry>
        </mxCell>
        <mxCell id="xyOO_spzbX_BqFr2w0Wo-97" value="" style="shape=tableRow;horizontal=0;startSize=0;swimlaneHead=0;swimlaneBody=0;fillColor=none;collapsible=0;dropTarget=0;points=[[0,0.5],[1,0.5]];portConstraint=eastwest;top=0;left=0;right=0;bottom=0;" parent="xyOO_spzbX_BqFr2w0Wo-93" vertex="1">
          <mxGeometry y="60" width="280" height="30" as="geometry" />
        </mxCell>
        <mxCell id="xyOO_spzbX_BqFr2w0Wo-98" value="" style="shape=partialRectangle;connectable=0;fillColor=none;top=0;left=0;bottom=0;right=0;editable=1;overflow=hidden;" parent="xyOO_spzbX_BqFr2w0Wo-97" vertex="1">
          <mxGeometry width="30" height="30" as="geometry">
            <mxRectangle width="30" height="30" as="alternateBounds" />
          </mxGeometry>
        </mxCell>
        <mxCell id="xyOO_spzbX_BqFr2w0Wo-99" value="name [text] 标准名称" style="shape=partialRectangle;connectable=0;fillColor=none;top=0;left=0;bottom=0;right=0;align=left;spacingLeft=6;overflow=hidden;" parent="xyOO_spzbX_BqFr2w0Wo-97" vertex="1">
          <mxGeometry x="30" width="250" height="30" as="geometry">
            <mxRectangle width="250" height="30" as="alternateBounds" />
          </mxGeometry>
        </mxCell>
        <mxCell id="xyOO_spzbX_BqFr2w0Wo-100" value="" style="shape=tableRow;horizontal=0;startSize=0;swimlaneHead=0;swimlaneBody=0;fillColor=none;collapsible=0;dropTarget=0;points=[[0,0.5],[1,0.5]];portConstraint=eastwest;top=0;left=0;right=0;bottom=0;" parent="xyOO_spzbX_BqFr2w0Wo-93" vertex="1">
          <mxGeometry y="90" width="280" height="30" as="geometry" />
        </mxCell>
        <mxCell id="xyOO_spzbX_BqFr2w0Wo-101" value="" style="shape=partialRectangle;connectable=0;fillColor=none;top=0;left=0;bottom=0;right=0;editable=1;overflow=hidden;" parent="xyOO_spzbX_BqFr2w0Wo-100" vertex="1">
          <mxGeometry width="30" height="30" as="geometry">
            <mxRectangle width="30" height="30" as="alternateBounds" />
          </mxGeometry>
        </mxCell>
        <mxCell id="xyOO_spzbX_BqFr2w0Wo-102" value="code [text] 标准代码" style="shape=partialRectangle;connectable=0;fillColor=none;top=0;left=0;bottom=0;right=0;align=left;spacingLeft=6;overflow=hidden;" parent="xyOO_spzbX_BqFr2w0Wo-100" vertex="1">
          <mxGeometry x="30" width="250" height="30" as="geometry">
            <mxRectangle width="250" height="30" as="alternateBounds" />
          </mxGeometry>
        </mxCell>
        <mxCell id="xyOO_spzbX_BqFr2w0Wo-103" value="" style="shape=tableRow;horizontal=0;startSize=0;swimlaneHead=0;swimlaneBody=0;fillColor=none;collapsible=0;dropTarget=0;points=[[0,0.5],[1,0.5]];portConstraint=eastwest;top=0;left=0;right=0;bottom=0;" parent="xyOO_spzbX_BqFr2w0Wo-93" vertex="1">
          <mxGeometry y="120" width="280" height="30" as="geometry" />
        </mxCell>
        <mxCell id="xyOO_spzbX_BqFr2w0Wo-104" value="" style="shape=partialRectangle;connectable=0;fillColor=none;top=0;left=0;bottom=0;right=0;editable=1;overflow=hidden;" parent="xyOO_spzbX_BqFr2w0Wo-103" vertex="1">
          <mxGeometry width="30" height="30" as="geometry">
            <mxRectangle width="30" height="30" as="alternateBounds" />
          </mxGeometry>
        </mxCell>
        <mxCell id="xyOO_spzbX_BqFr2w0Wo-105" value="description [text] 标准描述" style="shape=partialRectangle;connectable=0;fillColor=none;top=0;left=0;bottom=0;right=0;align=left;spacingLeft=6;overflow=hidden;" parent="xyOO_spzbX_BqFr2w0Wo-103" vertex="1">
          <mxGeometry x="30" width="250" height="30" as="geometry">
            <mxRectangle width="250" height="30" as="alternateBounds" />
          </mxGeometry>
        </mxCell>
        <mxCell id="xyOO_spzbX_BqFr2w0Wo-106" style="shape=tableRow;horizontal=0;startSize=0;swimlaneHead=0;swimlaneBody=0;fillColor=none;collapsible=0;dropTarget=0;points=[[0,0.5],[1,0.5]];portConstraint=eastwest;top=0;left=0;right=0;bottom=0;" parent="xyOO_spzbX_BqFr2w0Wo-93" vertex="1">
          <mxGeometry y="150" width="280" height="30" as="geometry" />
        </mxCell>
        <mxCell id="xyOO_spzbX_BqFr2w0Wo-107" style="shape=partialRectangle;connectable=0;fillColor=none;top=0;left=0;bottom=0;right=0;editable=1;overflow=hidden;" parent="xyOO_spzbX_BqFr2w0Wo-106" vertex="1">
          <mxGeometry width="30" height="30" as="geometry">
            <mxRectangle width="30" height="30" as="alternateBounds" />
          </mxGeometry>
        </mxCell>
        <mxCell id="xyOO_spzbX_BqFr2w0Wo-108" value="normative_reference [json] 规范性引用文件" style="shape=partialRectangle;connectable=0;fillColor=none;top=0;left=0;bottom=0;right=0;align=left;spacingLeft=6;overflow=hidden;" parent="xyOO_spzbX_BqFr2w0Wo-106" vertex="1">
          <mxGeometry x="30" width="250" height="30" as="geometry">
            <mxRectangle width="250" height="30" as="alternateBounds" />
          </mxGeometry>
        </mxCell>
        <mxCell id="xyOO_spzbX_BqFr2w0Wo-109" style="shape=tableRow;horizontal=0;startSize=0;swimlaneHead=0;swimlaneBody=0;fillColor=none;collapsible=0;dropTarget=0;points=[[0,0.5],[1,0.5]];portConstraint=eastwest;top=0;left=0;right=0;bottom=0;" parent="xyOO_spzbX_BqFr2w0Wo-93" vertex="1">
          <mxGeometry y="180" width="280" height="30" as="geometry" />
        </mxCell>
        <mxCell id="xyOO_spzbX_BqFr2w0Wo-110" style="shape=partialRectangle;connectable=0;fillColor=none;top=0;left=0;bottom=0;right=0;editable=1;overflow=hidden;" parent="xyOO_spzbX_BqFr2w0Wo-109" vertex="1">
          <mxGeometry width="30" height="30" as="geometry">
            <mxRectangle width="30" height="30" as="alternateBounds" />
          </mxGeometry>
        </mxCell>
        <mxCell id="xyOO_spzbX_BqFr2w0Wo-111" value="cited_reference [json]  参考文献" style="shape=partialRectangle;connectable=0;fillColor=none;top=0;left=0;bottom=0;right=0;align=left;spacingLeft=6;overflow=hidden;" parent="xyOO_spzbX_BqFr2w0Wo-109" vertex="1">
          <mxGeometry x="30" width="250" height="30" as="geometry">
            <mxRectangle width="250" height="30" as="alternateBounds" />
          </mxGeometry>
        </mxCell>
        <mxCell id="xyOO_spzbX_BqFr2w0Wo-112" style="shape=tableRow;horizontal=0;startSize=0;swimlaneHead=0;swimlaneBody=0;fillColor=none;collapsible=0;dropTarget=0;points=[[0,0.5],[1,0.5]];portConstraint=eastwest;top=0;left=0;right=0;bottom=0;" parent="xyOO_spzbX_BqFr2w0Wo-93" vertex="1">
          <mxGeometry y="210" width="280" height="30" as="geometry" />
        </mxCell>
        <mxCell id="xyOO_spzbX_BqFr2w0Wo-113" style="shape=partialRectangle;connectable=0;fillColor=none;top=0;left=0;bottom=0;right=0;editable=1;overflow=hidden;" parent="xyOO_spzbX_BqFr2w0Wo-112" vertex="1">
          <mxGeometry width="30" height="30" as="geometry">
            <mxRectangle width="30" height="30" as="alternateBounds" />
          </mxGeometry>
        </mxCell>
        <mxCell id="xyOO_spzbX_BqFr2w0Wo-114" value="distribute_date [date] 发布时间" style="shape=partialRectangle;connectable=0;fillColor=none;top=0;left=0;bottom=0;right=0;align=left;spacingLeft=6;overflow=hidden;" parent="xyOO_spzbX_BqFr2w0Wo-112" vertex="1">
          <mxGeometry x="30" width="250" height="30" as="geometry">
            <mxRectangle width="250" height="30" as="alternateBounds" />
          </mxGeometry>
        </mxCell>
        <mxCell id="xyOO_spzbX_BqFr2w0Wo-115" style="shape=tableRow;horizontal=0;startSize=0;swimlaneHead=0;swimlaneBody=0;fillColor=none;collapsible=0;dropTarget=0;points=[[0,0.5],[1,0.5]];portConstraint=eastwest;top=0;left=0;right=0;bottom=0;" parent="xyOO_spzbX_BqFr2w0Wo-93" vertex="1">
          <mxGeometry y="240" width="280" height="30" as="geometry" />
        </mxCell>
        <mxCell id="xyOO_spzbX_BqFr2w0Wo-116" style="shape=partialRectangle;connectable=0;fillColor=none;top=0;left=0;bottom=0;right=0;editable=1;overflow=hidden;" parent="xyOO_spzbX_BqFr2w0Wo-115" vertex="1">
          <mxGeometry width="30" height="30" as="geometry">
            <mxRectangle width="30" height="30" as="alternateBounds" />
          </mxGeometry>
        </mxCell>
        <mxCell id="xyOO_spzbX_BqFr2w0Wo-117" value="start_date [date] 生效时间" style="shape=partialRectangle;connectable=0;fillColor=none;top=0;left=0;bottom=0;right=0;align=left;spacingLeft=6;overflow=hidden;" parent="xyOO_spzbX_BqFr2w0Wo-115" vertex="1">
          <mxGeometry x="30" width="250" height="30" as="geometry">
            <mxRectangle width="250" height="30" as="alternateBounds" />
          </mxGeometry>
        </mxCell>
        <mxCell id="xyOO_spzbX_BqFr2w0Wo-118" style="shape=tableRow;horizontal=0;startSize=0;swimlaneHead=0;swimlaneBody=0;fillColor=none;collapsible=0;dropTarget=0;points=[[0,0.5],[1,0.5]];portConstraint=eastwest;top=0;left=0;right=0;bottom=0;" parent="xyOO_spzbX_BqFr2w0Wo-93" vertex="1">
          <mxGeometry y="270" width="280" height="30" as="geometry" />
        </mxCell>
        <mxCell id="xyOO_spzbX_BqFr2w0Wo-119" style="shape=partialRectangle;connectable=0;fillColor=none;top=0;left=0;bottom=0;right=0;editable=1;overflow=hidden;" parent="xyOO_spzbX_BqFr2w0Wo-118" vertex="1">
          <mxGeometry width="30" height="30" as="geometry">
            <mxRectangle width="30" height="30" as="alternateBounds" />
          </mxGeometry>
        </mxCell>
        <mxCell id="xyOO_spzbX_BqFr2w0Wo-120" value="isRevise [bool] 制修订" style="shape=partialRectangle;connectable=0;fillColor=none;top=0;left=0;bottom=0;right=0;align=left;spacingLeft=6;overflow=hidden;" parent="xyOO_spzbX_BqFr2w0Wo-118" vertex="1">
          <mxGeometry x="30" width="250" height="30" as="geometry">
            <mxRectangle width="250" height="30" as="alternateBounds" />
          </mxGeometry>
        </mxCell>
        <mxCell id="xyOO_spzbX_BqFr2w0Wo-121" style="shape=tableRow;horizontal=0;startSize=0;swimlaneHead=0;swimlaneBody=0;fillColor=none;collapsible=0;dropTarget=0;points=[[0,0.5],[1,0.5]];portConstraint=eastwest;top=0;left=0;right=0;bottom=0;" parent="xyOO_spzbX_BqFr2w0Wo-93" vertex="1">
          <mxGeometry y="300" width="280" height="30" as="geometry" />
        </mxCell>
        <mxCell id="xyOO_spzbX_BqFr2w0Wo-122" style="shape=partialRectangle;connectable=0;fillColor=none;top=0;left=0;bottom=0;right=0;editable=1;overflow=hidden;" parent="xyOO_spzbX_BqFr2w0Wo-121" vertex="1">
          <mxGeometry width="30" height="30" as="geometry">
            <mxRectangle width="30" height="30" as="alternateBounds" />
          </mxGeometry>
        </mxCell>
        <mxCell id="xyOO_spzbX_BqFr2w0Wo-123" value="ChineseClassification [text] 中国标准分类号" style="shape=partialRectangle;connectable=0;fillColor=none;top=0;left=0;bottom=0;right=0;align=left;spacingLeft=6;overflow=hidden;" parent="xyOO_spzbX_BqFr2w0Wo-121" vertex="1">
          <mxGeometry x="30" width="250" height="30" as="geometry">
            <mxRectangle width="250" height="30" as="alternateBounds" />
          </mxGeometry>
        </mxCell>
        <mxCell id="xyOO_spzbX_BqFr2w0Wo-136" style="shape=tableRow;horizontal=0;startSize=0;swimlaneHead=0;swimlaneBody=0;fillColor=none;collapsible=0;dropTarget=0;points=[[0,0.5],[1,0.5]];portConstraint=eastwest;top=0;left=0;right=0;bottom=0;" parent="xyOO_spzbX_BqFr2w0Wo-93" vertex="1">
          <mxGeometry y="330" width="280" height="30" as="geometry" />
        </mxCell>
        <mxCell id="xyOO_spzbX_BqFr2w0Wo-137" style="shape=partialRectangle;connectable=0;fillColor=none;top=0;left=0;bottom=0;right=0;editable=1;overflow=hidden;" parent="xyOO_spzbX_BqFr2w0Wo-136" vertex="1">
          <mxGeometry width="30" height="30" as="geometry">
            <mxRectangle width="30" height="30" as="alternateBounds" />
          </mxGeometry>
        </mxCell>
        <mxCell id="xyOO_spzbX_BqFr2w0Wo-138" value="internationalClassification [text] 国际标准分类号" style="shape=partialRectangle;connectable=0;fillColor=none;top=0;left=0;bottom=0;right=0;align=left;spacingLeft=6;overflow=hidden;" parent="xyOO_spzbX_BqFr2w0Wo-136" vertex="1">
          <mxGeometry x="30" width="250" height="30" as="geometry">
            <mxRectangle width="250" height="30" as="alternateBounds" />
          </mxGeometry>
        </mxCell>
        <mxCell id="xyOO_spzbX_BqFr2w0Wo-139" style="shape=tableRow;horizontal=0;startSize=0;swimlaneHead=0;swimlaneBody=0;fillColor=none;collapsible=0;dropTarget=0;points=[[0,0.5],[1,0.5]];portConstraint=eastwest;top=0;left=0;right=0;bottom=0;" parent="xyOO_spzbX_BqFr2w0Wo-93" vertex="1">
          <mxGeometry y="360" width="280" height="30" as="geometry" />
        </mxCell>
        <mxCell id="xyOO_spzbX_BqFr2w0Wo-140" style="shape=partialRectangle;connectable=0;fillColor=none;top=0;left=0;bottom=0;right=0;editable=1;overflow=hidden;" parent="xyOO_spzbX_BqFr2w0Wo-139" vertex="1">
          <mxGeometry width="30" height="30" as="geometry">
            <mxRectangle width="30" height="30" as="alternateBounds" />
          </mxGeometry>
        </mxCell>
        <mxCell id="xyOO_spzbX_BqFr2w0Wo-141" value="approvalInstitution [text] 批准发布部门" style="shape=partialRectangle;connectable=0;fillColor=none;top=0;left=0;bottom=0;right=0;align=left;spacingLeft=6;overflow=hidden;" parent="xyOO_spzbX_BqFr2w0Wo-139" vertex="1">
          <mxGeometry x="30" width="250" height="30" as="geometry">
            <mxRectangle width="250" height="30" as="alternateBounds" />
          </mxGeometry>
        </mxCell>
        <mxCell id="xyOO_spzbX_BqFr2w0Wo-145" style="shape=tableRow;horizontal=0;startSize=0;swimlaneHead=0;swimlaneBody=0;fillColor=none;collapsible=0;dropTarget=0;points=[[0,0.5],[1,0.5]];portConstraint=eastwest;top=0;left=0;right=0;bottom=0;" parent="xyOO_spzbX_BqFr2w0Wo-93" vertex="1">
          <mxGeometry y="390" width="280" height="30" as="geometry" />
        </mxCell>
        <mxCell id="xyOO_spzbX_BqFr2w0Wo-146" style="shape=partialRectangle;connectable=0;fillColor=none;top=0;left=0;bottom=0;right=0;editable=1;overflow=hidden;" parent="xyOO_spzbX_BqFr2w0Wo-145" vertex="1">
          <mxGeometry width="30" height="30" as="geometry">
            <mxRectangle width="30" height="30" as="alternateBounds" />
          </mxGeometry>
        </mxCell>
        <mxCell id="xyOO_spzbX_BqFr2w0Wo-147" value="recordCode [text] 备案号" style="shape=partialRectangle;connectable=0;fillColor=none;top=0;left=0;bottom=0;right=0;align=left;spacingLeft=6;overflow=hidden;" parent="xyOO_spzbX_BqFr2w0Wo-145" vertex="1">
          <mxGeometry x="30" width="250" height="30" as="geometry">
            <mxRectangle width="250" height="30" as="alternateBounds" />
          </mxGeometry>
        </mxCell>
        <mxCell id="xyOO_spzbX_BqFr2w0Wo-142" style="shape=tableRow;horizontal=0;startSize=0;swimlaneHead=0;swimlaneBody=0;fillColor=none;collapsible=0;dropTarget=0;points=[[0,0.5],[1,0.5]];portConstraint=eastwest;top=0;left=0;right=0;bottom=0;" parent="xyOO_spzbX_BqFr2w0Wo-93" vertex="1">
          <mxGeometry y="420" width="280" height="30" as="geometry" />
        </mxCell>
        <mxCell id="xyOO_spzbX_BqFr2w0Wo-143" style="shape=partialRectangle;connectable=0;fillColor=none;top=0;left=0;bottom=0;right=0;editable=1;overflow=hidden;" parent="xyOO_spzbX_BqFr2w0Wo-142" vertex="1">
          <mxGeometry width="30" height="30" as="geometry">
            <mxRectangle width="30" height="30" as="alternateBounds" />
          </mxGeometry>
        </mxCell>
        <mxCell id="xyOO_spzbX_BqFr2w0Wo-144" value="id [text] 文件编号" style="shape=partialRectangle;connectable=0;fillColor=none;top=0;left=0;bottom=0;right=0;align=left;spacingLeft=6;overflow=hidden;" parent="xyOO_spzbX_BqFr2w0Wo-142" vertex="1">
          <mxGeometry x="30" width="250" height="30" as="geometry">
            <mxRectangle width="250" height="30" as="alternateBounds" />
          </mxGeometry>
        </mxCell>
        <mxCell id="xyOO_spzbX_BqFr2w0Wo-148" style="shape=tableRow;horizontal=0;startSize=0;swimlaneHead=0;swimlaneBody=0;fillColor=none;collapsible=0;dropTarget=0;points=[[0,0.5],[1,0.5]];portConstraint=eastwest;top=0;left=0;right=0;bottom=0;" parent="xyOO_spzbX_BqFr2w0Wo-93" vertex="1">
          <mxGeometry y="450" width="280" height="30" as="geometry" />
        </mxCell>
        <mxCell id="xyOO_spzbX_BqFr2w0Wo-149" style="shape=partialRectangle;connectable=0;fillColor=none;top=0;left=0;bottom=0;right=0;editable=1;overflow=hidden;" parent="xyOO_spzbX_BqFr2w0Wo-148" vertex="1">
          <mxGeometry width="30" height="30" as="geometry">
            <mxRectangle width="30" height="30" as="alternateBounds" />
          </mxGeometry>
        </mxCell>
        <mxCell id="xyOO_spzbX_BqFr2w0Wo-150" value="standard_type [int2] 标准分类" style="shape=partialRectangle;connectable=0;fillColor=none;top=0;left=0;bottom=0;right=0;align=left;spacingLeft=6;overflow=hidden;" parent="xyOO_spzbX_BqFr2w0Wo-148" vertex="1">
          <mxGeometry x="30" width="250" height="30" as="geometry">
            <mxRectangle width="250" height="30" as="alternateBounds" />
          </mxGeometry>
        </mxCell>
        <mxCell id="xyOO_spzbX_BqFr2w0Wo-124" style="shape=tableRow;horizontal=0;startSize=0;swimlaneHead=0;swimlaneBody=0;fillColor=none;collapsible=0;dropTarget=0;points=[[0,0.5],[1,0.5]];portConstraint=eastwest;top=0;left=0;right=0;bottom=0;" parent="xyOO_spzbX_BqFr2w0Wo-93" vertex="1">
          <mxGeometry y="480" width="280" height="30" as="geometry" />
        </mxCell>
        <mxCell id="xyOO_spzbX_BqFr2w0Wo-125" style="shape=partialRectangle;connectable=0;fillColor=none;top=0;left=0;bottom=0;right=0;editable=1;overflow=hidden;" parent="xyOO_spzbX_BqFr2w0Wo-124" vertex="1">
          <mxGeometry width="30" height="30" as="geometry">
            <mxRectangle width="30" height="30" as="alternateBounds" />
          </mxGeometry>
        </mxCell>
        <mxCell id="xyOO_spzbX_BqFr2w0Wo-126" value="comments [text] 备注" style="shape=partialRectangle;connectable=0;fillColor=none;top=0;left=0;bottom=0;right=0;align=left;spacingLeft=6;overflow=hidden;" parent="xyOO_spzbX_BqFr2w0Wo-124" vertex="1">
          <mxGeometry x="30" width="250" height="30" as="geometry">
            <mxRectangle width="250" height="30" as="alternateBounds" />
          </mxGeometry>
        </mxCell>
        <mxCell id="xyOO_spzbX_BqFr2w0Wo-127" style="shape=tableRow;horizontal=0;startSize=0;swimlaneHead=0;swimlaneBody=0;fillColor=none;collapsible=0;dropTarget=0;points=[[0,0.5],[1,0.5]];portConstraint=eastwest;top=0;left=0;right=0;bottom=0;" parent="xyOO_spzbX_BqFr2w0Wo-93" vertex="1">
          <mxGeometry y="510" width="280" height="30" as="geometry" />
        </mxCell>
        <mxCell id="xyOO_spzbX_BqFr2w0Wo-128" style="shape=partialRectangle;connectable=0;fillColor=none;top=0;left=0;bottom=0;right=0;editable=1;overflow=hidden;" parent="xyOO_spzbX_BqFr2w0Wo-127" vertex="1">
          <mxGeometry width="30" height="30" as="geometry">
            <mxRectangle width="30" height="30" as="alternateBounds" />
          </mxGeometry>
        </mxCell>
        <mxCell id="xyOO_spzbX_BqFr2w0Wo-129" value="attribute [text] 其他" style="shape=partialRectangle;connectable=0;fillColor=none;top=0;left=0;bottom=0;right=0;align=left;spacingLeft=6;overflow=hidden;" parent="xyOO_spzbX_BqFr2w0Wo-127" vertex="1">
          <mxGeometry x="30" width="250" height="30" as="geometry">
            <mxRectangle width="250" height="30" as="alternateBounds" />
          </mxGeometry>
        </mxCell>
        <mxCell id="xyOO_spzbX_BqFr2w0Wo-130" style="shape=tableRow;horizontal=0;startSize=0;swimlaneHead=0;swimlaneBody=0;fillColor=none;collapsible=0;dropTarget=0;points=[[0,0.5],[1,0.5]];portConstraint=eastwest;top=0;left=0;right=0;bottom=0;" parent="xyOO_spzbX_BqFr2w0Wo-93" vertex="1">
          <mxGeometry y="540" width="280" height="30" as="geometry" />
        </mxCell>
        <mxCell id="xyOO_spzbX_BqFr2w0Wo-131" style="shape=partialRectangle;connectable=0;fillColor=none;top=0;left=0;bottom=0;right=0;editable=1;overflow=hidden;" parent="xyOO_spzbX_BqFr2w0Wo-130" vertex="1">
          <mxGeometry width="30" height="30" as="geometry">
            <mxRectangle width="30" height="30" as="alternateBounds" />
          </mxGeometry>
        </mxCell>
        <mxCell id="xyOO_spzbX_BqFr2w0Wo-132" value="now_staus [int2] 组织状态" style="shape=partialRectangle;connectable=0;fillColor=none;top=0;left=0;bottom=0;right=0;align=left;spacingLeft=6;overflow=hidden;" parent="xyOO_spzbX_BqFr2w0Wo-130" vertex="1">
          <mxGeometry x="30" width="250" height="30" as="geometry">
            <mxRectangle width="250" height="30" as="alternateBounds" />
          </mxGeometry>
        </mxCell>
        <mxCell id="xyOO_spzbX_BqFr2w0Wo-133" style="shape=tableRow;horizontal=0;startSize=0;swimlaneHead=0;swimlaneBody=0;fillColor=none;collapsible=0;dropTarget=0;points=[[0,0.5],[1,0.5]];portConstraint=eastwest;top=0;left=0;right=0;bottom=0;" parent="xyOO_spzbX_BqFr2w0Wo-93" vertex="1">
          <mxGeometry y="570" width="280" height="30" as="geometry" />
        </mxCell>
        <mxCell id="xyOO_spzbX_BqFr2w0Wo-134" style="shape=partialRectangle;connectable=0;fillColor=none;top=0;left=0;bottom=0;right=0;editable=1;overflow=hidden;" parent="xyOO_spzbX_BqFr2w0Wo-133" vertex="1">
          <mxGeometry width="30" height="30" as="geometry">
            <mxRectangle width="30" height="30" as="alternateBounds" />
          </mxGeometry>
        </mxCell>
        <mxCell id="xyOO_spzbX_BqFr2w0Wo-135" value="model_index [int2] 索引" style="shape=partialRectangle;connectable=0;fillColor=none;top=0;left=0;bottom=0;right=0;align=left;spacingLeft=6;overflow=hidden;" parent="xyOO_spzbX_BqFr2w0Wo-133" vertex="1">
          <mxGeometry x="30" width="250" height="30" as="geometry">
            <mxRectangle width="250" height="30" as="alternateBounds" />
          </mxGeometry>
        </mxCell>
        <mxCell id="xyOO_spzbX_BqFr2w0Wo-157" value="" style="edgeStyle=orthogonalEdgeStyle;rounded=0;orthogonalLoop=1;jettySize=auto;html=1;endArrow=none;endFill=0;exitX=1;exitY=0.5;exitDx=0;exitDy=0;entryX=0;entryY=0.5;entryDx=0;entryDy=0;" parent="1" source="xyOO_spzbX_BqFr2w0Wo-94" target="xyOO_spzbX_BqFr2w0Wo-158" edge="1">
          <mxGeometry relative="1" as="geometry">
            <mxPoint x="642" y="1303" as="sourcePoint" />
          </mxGeometry>
        </mxCell>
        <mxCell id="xyOO_spzbX_BqFr2w0Wo-158" value="适用于" style="rhombus;whiteSpace=wrap;html=1;fillColor=#fff2cc;strokeColor=#d6b656;startSize=30;fontStyle=1;" parent="1" vertex="1">
          <mxGeometry x="732" y="1273" width="80" height="80" as="geometry" />
        </mxCell>
        <mxCell id="xyOO_spzbX_BqFr2w0Wo-159" value="" style="edgeStyle=orthogonalEdgeStyle;rounded=0;orthogonalLoop=1;jettySize=auto;html=1;endArrow=classic;endFill=1;exitX=1;exitY=0.5;exitDx=0;exitDy=0;entryX=1;entryY=0.5;entryDx=0;entryDy=0;" parent="1" source="xyOO_spzbX_BqFr2w0Wo-158" target="xyOO_spzbX_BqFr2w0Wo-60" edge="1">
          <mxGeometry relative="1" as="geometry">
            <mxPoint x="652" y="1313" as="sourcePoint" />
            <mxPoint x="817.54" y="1264.04" as="targetPoint" />
            <Array as="points">
              <mxPoint x="1182" y="1313" />
              <mxPoint x="1182" y="918" />
            </Array>
          </mxGeometry>
        </mxCell>
        <mxCell id="xyOO_spzbX_BqFr2w0Wo-163" value="" style="edgeStyle=orthogonalEdgeStyle;rounded=0;orthogonalLoop=1;jettySize=auto;html=1;endArrow=none;endFill=0;exitX=0.75;exitY=0;exitDx=0;exitDy=0;" parent="1" source="xyOO_spzbX_BqFr2w0Wo-93" target="xyOO_spzbX_BqFr2w0Wo-164" edge="1">
          <mxGeometry relative="1" as="geometry">
            <mxPoint x="777" y="1238" as="sourcePoint" />
          </mxGeometry>
        </mxCell>
        <mxCell id="xyOO_spzbX_BqFr2w0Wo-164" value="适用于" style="rhombus;whiteSpace=wrap;html=1;fillColor=#fff2cc;strokeColor=#d6b656;startSize=30;fontStyle=1;" parent="1" vertex="1">
          <mxGeometry x="858" y="1223" width="80" height="80" as="geometry" />
        </mxCell>
        <mxCell id="xyOO_spzbX_BqFr2w0Wo-165" value="" style="edgeStyle=orthogonalEdgeStyle;rounded=0;orthogonalLoop=1;jettySize=auto;html=1;endArrow=classic;endFill=1;exitX=1;exitY=0.5;exitDx=0;exitDy=0;entryX=1;entryY=0.5;entryDx=0;entryDy=0;" parent="1" source="xyOO_spzbX_BqFr2w0Wo-164" target="xyOO_spzbX_BqFr2w0Wo-78" edge="1">
          <mxGeometry relative="1" as="geometry">
            <mxPoint x="796" y="1261" as="sourcePoint" />
            <mxPoint x="961.54" y="1212.04" as="targetPoint" />
          </mxGeometry>
        </mxCell>
        <mxCell id="xyOO_spzbX_BqFr2w0Wo-166" value="" style="endArrow=none;html=1;rounded=0;entryX=0.5;entryY=0;entryDx=0;entryDy=0;exitX=0.5;exitY=1;exitDx=0;exitDy=0;dashed=1;" parent="1" source="xyOO_spzbX_BqFr2w0Wo-167" target="xyOO_spzbX_BqFr2w0Wo-164" edge="1">
          <mxGeometry relative="1" as="geometry">
            <mxPoint x="881" y="1181" as="sourcePoint" />
            <mxPoint x="1001" y="1161" as="targetPoint" />
          </mxGeometry>
        </mxCell>
        <mxCell id="xyOO_spzbX_BqFr2w0Wo-167" value="&lt;div&gt;province&lt;/div&gt;&lt;div&gt;city&lt;/div&gt;&lt;div&gt;district&lt;br&gt;&lt;/div&gt;" style="whiteSpace=wrap;html=1;align=center;" parent="1" vertex="1">
          <mxGeometry x="848" y="1161" width="100" height="48" as="geometry" />
        </mxCell>
        <mxCell id="xyOO_spzbX_BqFr2w0Wo-168" value="" style="edgeStyle=orthogonalEdgeStyle;rounded=0;orthogonalLoop=1;jettySize=auto;html=1;endArrow=none;endFill=0;entryX=0.5;entryY=1;entryDx=0;entryDy=0;exitX=0.25;exitY=0;exitDx=0;exitDy=0;" parent="1" source="xyOO_spzbX_BqFr2w0Wo-93" target="xyOO_spzbX_BqFr2w0Wo-169" edge="1">
          <mxGeometry relative="1" as="geometry">
            <mxPoint x="352" y="1228" as="sourcePoint" />
          </mxGeometry>
        </mxCell>
        <mxCell id="xyOO_spzbX_BqFr2w0Wo-169" value="属于" style="rhombus;whiteSpace=wrap;html=1;fillColor=#dae8fc;strokeColor=#6c8ebf;startSize=30;fontStyle=1;" parent="1" vertex="1">
          <mxGeometry x="442" y="1163" width="80" height="80" as="geometry" />
        </mxCell>
        <mxCell id="xyOO_spzbX_BqFr2w0Wo-170" value="" style="edgeStyle=orthogonalEdgeStyle;rounded=0;orthogonalLoop=1;jettySize=auto;html=1;endArrow=classic;endFill=1;exitX=1;exitY=0.5;exitDx=0;exitDy=0;entryX=0.5;entryY=1;entryDx=0;entryDy=0;" parent="1" source="xyOO_spzbX_BqFr2w0Wo-169" target="xyOO_spzbX_BqFr2w0Wo-1" edge="1">
          <mxGeometry relative="1" as="geometry">
            <mxPoint x="362" y="1238" as="sourcePoint" />
            <mxPoint x="542" y="1189" as="targetPoint" />
          </mxGeometry>
        </mxCell>
        <mxCell id="xyOO_spzbX_BqFr2w0Wo-176" value="" style="edgeStyle=orthogonalEdgeStyle;rounded=0;orthogonalLoop=1;jettySize=auto;html=1;endArrow=none;endFill=0;entryX=0.5;entryY=1;entryDx=0;entryDy=0;exitX=0.25;exitY=0;exitDx=0;exitDy=0;" parent="1" target="xyOO_spzbX_BqFr2w0Wo-177" edge="1">
          <mxGeometry relative="1" as="geometry">
            <mxPoint x="472" y="1268" as="sourcePoint" />
          </mxGeometry>
        </mxCell>
        <mxCell id="xyOO_spzbX_BqFr2w0Wo-177" value="属于" style="rhombus;whiteSpace=wrap;html=1;fillColor=#dae8fc;strokeColor=#6c8ebf;startSize=30;fontStyle=1;" parent="1" vertex="1">
          <mxGeometry x="442" y="1163" width="80" height="80" as="geometry" />
        </mxCell>
        <mxCell id="xyOO_spzbX_BqFr2w0Wo-180" value="Department 部门" style="shape=table;startSize=30;container=1;collapsible=1;childLayout=tableLayout;fixedRows=1;rowLines=0;fontStyle=1;align=center;resizeLast=1;fillColor=#f8cecc;strokeColor=#b85450;" parent="1" vertex="1">
          <mxGeometry x="102" y="1172" width="280" height="280" as="geometry">
            <mxRectangle x="585" y="220" width="80" height="30" as="alternateBounds" />
          </mxGeometry>
        </mxCell>
        <mxCell id="xyOO_spzbX_BqFr2w0Wo-181" value="" style="shape=tableRow;horizontal=0;startSize=0;swimlaneHead=0;swimlaneBody=0;fillColor=none;collapsible=0;dropTarget=0;points=[[0,0.5],[1,0.5]];portConstraint=eastwest;top=0;left=0;right=0;bottom=1;" parent="xyOO_spzbX_BqFr2w0Wo-180" vertex="1">
          <mxGeometry y="30" width="280" height="30" as="geometry" />
        </mxCell>
        <mxCell id="xyOO_spzbX_BqFr2w0Wo-182" value="PK" style="shape=partialRectangle;connectable=0;fillColor=none;top=0;left=0;bottom=0;right=0;fontStyle=1;overflow=hidden;" parent="xyOO_spzbX_BqFr2w0Wo-181" vertex="1">
          <mxGeometry width="30" height="30" as="geometry">
            <mxRectangle width="30" height="30" as="alternateBounds" />
          </mxGeometry>
        </mxCell>
        <mxCell id="xyOO_spzbX_BqFr2w0Wo-183" value="id" style="shape=partialRectangle;connectable=0;fillColor=none;top=0;left=0;bottom=0;right=0;align=left;spacingLeft=6;fontStyle=5;overflow=hidden;" parent="xyOO_spzbX_BqFr2w0Wo-181" vertex="1">
          <mxGeometry x="30" width="250" height="30" as="geometry">
            <mxRectangle width="250" height="30" as="alternateBounds" />
          </mxGeometry>
        </mxCell>
        <mxCell id="xyOO_spzbX_BqFr2w0Wo-184" value="" style="shape=tableRow;horizontal=0;startSize=0;swimlaneHead=0;swimlaneBody=0;fillColor=none;collapsible=0;dropTarget=0;points=[[0,0.5],[1,0.5]];portConstraint=eastwest;top=0;left=0;right=0;bottom=0;" parent="xyOO_spzbX_BqFr2w0Wo-180" vertex="1">
          <mxGeometry y="60" width="280" height="30" as="geometry" />
        </mxCell>
        <mxCell id="xyOO_spzbX_BqFr2w0Wo-185" value="" style="shape=partialRectangle;connectable=0;fillColor=none;top=0;left=0;bottom=0;right=0;editable=1;overflow=hidden;" parent="xyOO_spzbX_BqFr2w0Wo-184" vertex="1">
          <mxGeometry width="30" height="30" as="geometry">
            <mxRectangle width="30" height="30" as="alternateBounds" />
          </mxGeometry>
        </mxCell>
        <mxCell id="xyOO_spzbX_BqFr2w0Wo-186" value="name [text] 部门名称" style="shape=partialRectangle;connectable=0;fillColor=none;top=0;left=0;bottom=0;right=0;align=left;spacingLeft=6;overflow=hidden;" parent="xyOO_spzbX_BqFr2w0Wo-184" vertex="1">
          <mxGeometry x="30" width="250" height="30" as="geometry">
            <mxRectangle width="250" height="30" as="alternateBounds" />
          </mxGeometry>
        </mxCell>
        <mxCell id="xyOO_spzbX_BqFr2w0Wo-187" value="" style="shape=tableRow;horizontal=0;startSize=0;swimlaneHead=0;swimlaneBody=0;fillColor=none;collapsible=0;dropTarget=0;points=[[0,0.5],[1,0.5]];portConstraint=eastwest;top=0;left=0;right=0;bottom=0;" parent="xyOO_spzbX_BqFr2w0Wo-180" vertex="1">
          <mxGeometry y="90" width="280" height="30" as="geometry" />
        </mxCell>
        <mxCell id="xyOO_spzbX_BqFr2w0Wo-188" value="" style="shape=partialRectangle;connectable=0;fillColor=none;top=0;left=0;bottom=0;right=0;editable=1;overflow=hidden;" parent="xyOO_spzbX_BqFr2w0Wo-187" vertex="1">
          <mxGeometry width="30" height="30" as="geometry">
            <mxRectangle width="30" height="30" as="alternateBounds" />
          </mxGeometry>
        </mxCell>
        <mxCell id="xyOO_spzbX_BqFr2w0Wo-189" value="coder [text] 部门名称" style="shape=partialRectangle;connectable=0;fillColor=none;top=0;left=0;bottom=0;right=0;align=left;spacingLeft=6;overflow=hidden;" parent="xyOO_spzbX_BqFr2w0Wo-187" vertex="1">
          <mxGeometry x="30" width="250" height="30" as="geometry">
            <mxRectangle width="250" height="30" as="alternateBounds" />
          </mxGeometry>
        </mxCell>
        <mxCell id="xyOO_spzbX_BqFr2w0Wo-190" value="" style="shape=tableRow;horizontal=0;startSize=0;swimlaneHead=0;swimlaneBody=0;fillColor=none;collapsible=0;dropTarget=0;points=[[0,0.5],[1,0.5]];portConstraint=eastwest;top=0;left=0;right=0;bottom=0;" parent="xyOO_spzbX_BqFr2w0Wo-180" vertex="1">
          <mxGeometry y="120" width="280" height="30" as="geometry" />
        </mxCell>
        <mxCell id="xyOO_spzbX_BqFr2w0Wo-191" value="" style="shape=partialRectangle;connectable=0;fillColor=none;top=0;left=0;bottom=0;right=0;editable=1;overflow=hidden;" parent="xyOO_spzbX_BqFr2w0Wo-190" vertex="1">
          <mxGeometry width="30" height="30" as="geometry">
            <mxRectangle width="30" height="30" as="alternateBounds" />
          </mxGeometry>
        </mxCell>
        <mxCell id="xyOO_spzbX_BqFr2w0Wo-192" value="brief_information [text] 部门信息" style="shape=partialRectangle;connectable=0;fillColor=none;top=0;left=0;bottom=0;right=0;align=left;spacingLeft=6;overflow=hidden;" parent="xyOO_spzbX_BqFr2w0Wo-190" vertex="1">
          <mxGeometry x="30" width="250" height="30" as="geometry">
            <mxRectangle width="250" height="30" as="alternateBounds" />
          </mxGeometry>
        </mxCell>
        <mxCell id="xyOO_spzbX_BqFr2w0Wo-193" style="shape=tableRow;horizontal=0;startSize=0;swimlaneHead=0;swimlaneBody=0;fillColor=none;collapsible=0;dropTarget=0;points=[[0,0.5],[1,0.5]];portConstraint=eastwest;top=0;left=0;right=0;bottom=0;" parent="xyOO_spzbX_BqFr2w0Wo-180" vertex="1">
          <mxGeometry y="150" width="280" height="30" as="geometry" />
        </mxCell>
        <mxCell id="xyOO_spzbX_BqFr2w0Wo-194" style="shape=partialRectangle;connectable=0;fillColor=none;top=0;left=0;bottom=0;right=0;editable=1;overflow=hidden;" parent="xyOO_spzbX_BqFr2w0Wo-193" vertex="1">
          <mxGeometry width="30" height="30" as="geometry">
            <mxRectangle width="30" height="30" as="alternateBounds" />
          </mxGeometry>
        </mxCell>
        <mxCell id="xyOO_spzbX_BqFr2w0Wo-195" value="phone [text] 部门电话" style="shape=partialRectangle;connectable=0;fillColor=none;top=0;left=0;bottom=0;right=0;align=left;spacingLeft=6;overflow=hidden;" parent="xyOO_spzbX_BqFr2w0Wo-193" vertex="1">
          <mxGeometry x="30" width="250" height="30" as="geometry">
            <mxRectangle width="250" height="30" as="alternateBounds" />
          </mxGeometry>
        </mxCell>
        <mxCell id="xyOO_spzbX_BqFr2w0Wo-196" style="shape=tableRow;horizontal=0;startSize=0;swimlaneHead=0;swimlaneBody=0;fillColor=none;collapsible=0;dropTarget=0;points=[[0,0.5],[1,0.5]];portConstraint=eastwest;top=0;left=0;right=0;bottom=0;" parent="xyOO_spzbX_BqFr2w0Wo-180" vertex="1">
          <mxGeometry y="180" width="280" height="30" as="geometry" />
        </mxCell>
        <mxCell id="xyOO_spzbX_BqFr2w0Wo-197" style="shape=partialRectangle;connectable=0;fillColor=none;top=0;left=0;bottom=0;right=0;editable=1;overflow=hidden;" parent="xyOO_spzbX_BqFr2w0Wo-196" vertex="1">
          <mxGeometry width="30" height="30" as="geometry">
            <mxRectangle width="30" height="30" as="alternateBounds" />
          </mxGeometry>
        </mxCell>
        <mxCell id="xyOO_spzbX_BqFr2w0Wo-198" value="fax [text] 部门传真" style="shape=partialRectangle;connectable=0;fillColor=none;top=0;left=0;bottom=0;right=0;align=left;spacingLeft=6;overflow=hidden;" parent="xyOO_spzbX_BqFr2w0Wo-196" vertex="1">
          <mxGeometry x="30" width="250" height="30" as="geometry">
            <mxRectangle width="250" height="30" as="alternateBounds" />
          </mxGeometry>
        </mxCell>
        <mxCell id="xyOO_spzbX_BqFr2w0Wo-226" style="shape=tableRow;horizontal=0;startSize=0;swimlaneHead=0;swimlaneBody=0;fillColor=none;collapsible=0;dropTarget=0;points=[[0,0.5],[1,0.5]];portConstraint=eastwest;top=0;left=0;right=0;bottom=0;" parent="xyOO_spzbX_BqFr2w0Wo-180" vertex="1">
          <mxGeometry y="210" width="280" height="30" as="geometry" />
        </mxCell>
        <mxCell id="xyOO_spzbX_BqFr2w0Wo-227" style="shape=partialRectangle;connectable=0;fillColor=none;top=0;left=0;bottom=0;right=0;editable=1;overflow=hidden;" parent="xyOO_spzbX_BqFr2w0Wo-226" vertex="1">
          <mxGeometry width="30" height="30" as="geometry">
            <mxRectangle width="30" height="30" as="alternateBounds" />
          </mxGeometry>
        </mxCell>
        <mxCell id="xyOO_spzbX_BqFr2w0Wo-228" value="comment [text] 备注" style="shape=partialRectangle;connectable=0;fillColor=none;top=0;left=0;bottom=0;right=0;align=left;spacingLeft=6;overflow=hidden;" parent="xyOO_spzbX_BqFr2w0Wo-226" vertex="1">
          <mxGeometry x="30" width="250" height="30" as="geometry">
            <mxRectangle width="250" height="30" as="alternateBounds" />
          </mxGeometry>
        </mxCell>
        <mxCell id="xyOO_spzbX_BqFr2w0Wo-229" style="shape=tableRow;horizontal=0;startSize=0;swimlaneHead=0;swimlaneBody=0;fillColor=none;collapsible=0;dropTarget=0;points=[[0,0.5],[1,0.5]];portConstraint=eastwest;top=0;left=0;right=0;bottom=0;" parent="xyOO_spzbX_BqFr2w0Wo-180" vertex="1">
          <mxGeometry y="240" width="280" height="30" as="geometry" />
        </mxCell>
        <mxCell id="xyOO_spzbX_BqFr2w0Wo-230" style="shape=partialRectangle;connectable=0;fillColor=none;top=0;left=0;bottom=0;right=0;editable=1;overflow=hidden;" parent="xyOO_spzbX_BqFr2w0Wo-229" vertex="1">
          <mxGeometry width="30" height="30" as="geometry">
            <mxRectangle width="30" height="30" as="alternateBounds" />
          </mxGeometry>
        </mxCell>
        <mxCell id="xyOO_spzbX_BqFr2w0Wo-231" value="attribute [text] 其他" style="shape=partialRectangle;connectable=0;fillColor=none;top=0;left=0;bottom=0;right=0;align=left;spacingLeft=6;overflow=hidden;" parent="xyOO_spzbX_BqFr2w0Wo-229" vertex="1">
          <mxGeometry x="30" width="250" height="30" as="geometry">
            <mxRectangle width="250" height="30" as="alternateBounds" />
          </mxGeometry>
        </mxCell>
        <mxCell id="xyOO_spzbX_BqFr2w0Wo-239" value="" style="edgeStyle=orthogonalEdgeStyle;rounded=0;orthogonalLoop=1;jettySize=auto;html=1;endArrow=none;endFill=0;entryX=0.5;entryY=1;entryDx=0;entryDy=0;exitX=0.75;exitY=0;exitDx=0;exitDy=0;" parent="1" source="xyOO_spzbX_BqFr2w0Wo-180" target="xyOO_spzbX_BqFr2w0Wo-240" edge="1">
          <mxGeometry relative="1" as="geometry">
            <mxPoint x="342" y="1118" as="sourcePoint" />
          </mxGeometry>
        </mxCell>
        <mxCell id="xyOO_spzbX_BqFr2w0Wo-240" value="属于" style="rhombus;whiteSpace=wrap;html=1;fillColor=#dae8fc;strokeColor=#6c8ebf;startSize=30;fontStyle=1;" parent="1" vertex="1">
          <mxGeometry x="302" y="1029" width="80" height="80" as="geometry" />
        </mxCell>
        <mxCell id="xyOO_spzbX_BqFr2w0Wo-241" value="" style="edgeStyle=orthogonalEdgeStyle;rounded=0;orthogonalLoop=1;jettySize=auto;html=1;endArrow=classic;endFill=1;exitX=1;exitY=0.5;exitDx=0;exitDy=0;entryX=0;entryY=0.5;entryDx=0;entryDy=0;" parent="1" source="xyOO_spzbX_BqFr2w0Wo-240" target="xyOO_spzbX_BqFr2w0Wo-47" edge="1">
          <mxGeometry relative="1" as="geometry">
            <mxPoint x="62" y="1088" as="sourcePoint" />
            <mxPoint x="359.5" y="1033" as="targetPoint" />
          </mxGeometry>
        </mxCell>
        <mxCell id="xyOO_spzbX_BqFr2w0Wo-243" value="Person 人员" style="shape=table;startSize=30;container=1;collapsible=1;childLayout=tableLayout;fixedRows=1;rowLines=0;fontStyle=1;align=center;resizeLast=1;fillColor=#f8cecc;strokeColor=#b85450;" parent="1" vertex="1">
          <mxGeometry x="92" y="743" width="280" height="280" as="geometry">
            <mxRectangle x="585" y="220" width="80" height="30" as="alternateBounds" />
          </mxGeometry>
        </mxCell>
        <mxCell id="xyOO_spzbX_BqFr2w0Wo-244" value="" style="shape=tableRow;horizontal=0;startSize=0;swimlaneHead=0;swimlaneBody=0;fillColor=none;collapsible=0;dropTarget=0;points=[[0,0.5],[1,0.5]];portConstraint=eastwest;top=0;left=0;right=0;bottom=1;" parent="xyOO_spzbX_BqFr2w0Wo-243" vertex="1">
          <mxGeometry y="30" width="280" height="30" as="geometry" />
        </mxCell>
        <mxCell id="xyOO_spzbX_BqFr2w0Wo-245" value="PK" style="shape=partialRectangle;connectable=0;fillColor=none;top=0;left=0;bottom=0;right=0;fontStyle=1;overflow=hidden;" parent="xyOO_spzbX_BqFr2w0Wo-244" vertex="1">
          <mxGeometry width="30" height="30" as="geometry">
            <mxRectangle width="30" height="30" as="alternateBounds" />
          </mxGeometry>
        </mxCell>
        <mxCell id="xyOO_spzbX_BqFr2w0Wo-246" value="uuid" style="shape=partialRectangle;connectable=0;fillColor=none;top=0;left=0;bottom=0;right=0;align=left;spacingLeft=6;fontStyle=5;overflow=hidden;" parent="xyOO_spzbX_BqFr2w0Wo-244" vertex="1">
          <mxGeometry x="30" width="250" height="30" as="geometry">
            <mxRectangle width="250" height="30" as="alternateBounds" />
          </mxGeometry>
        </mxCell>
        <mxCell id="xyOO_spzbX_BqFr2w0Wo-247" value="" style="shape=tableRow;horizontal=0;startSize=0;swimlaneHead=0;swimlaneBody=0;fillColor=none;collapsible=0;dropTarget=0;points=[[0,0.5],[1,0.5]];portConstraint=eastwest;top=0;left=0;right=0;bottom=0;" parent="xyOO_spzbX_BqFr2w0Wo-243" vertex="1">
          <mxGeometry y="60" width="280" height="30" as="geometry" />
        </mxCell>
        <mxCell id="xyOO_spzbX_BqFr2w0Wo-248" value="" style="shape=partialRectangle;connectable=0;fillColor=none;top=0;left=0;bottom=0;right=0;editable=1;overflow=hidden;" parent="xyOO_spzbX_BqFr2w0Wo-247" vertex="1">
          <mxGeometry width="30" height="30" as="geometry">
            <mxRectangle width="30" height="30" as="alternateBounds" />
          </mxGeometry>
        </mxCell>
        <mxCell id="xyOO_spzbX_BqFr2w0Wo-249" value="name [text] 员工姓名" style="shape=partialRectangle;connectable=0;fillColor=none;top=0;left=0;bottom=0;right=0;align=left;spacingLeft=6;overflow=hidden;" parent="xyOO_spzbX_BqFr2w0Wo-247" vertex="1">
          <mxGeometry x="30" width="250" height="30" as="geometry">
            <mxRectangle width="250" height="30" as="alternateBounds" />
          </mxGeometry>
        </mxCell>
        <mxCell id="xyOO_spzbX_BqFr2w0Wo-250" value="" style="shape=tableRow;horizontal=0;startSize=0;swimlaneHead=0;swimlaneBody=0;fillColor=none;collapsible=0;dropTarget=0;points=[[0,0.5],[1,0.5]];portConstraint=eastwest;top=0;left=0;right=0;bottom=0;" parent="xyOO_spzbX_BqFr2w0Wo-243" vertex="1">
          <mxGeometry y="90" width="280" height="30" as="geometry" />
        </mxCell>
        <mxCell id="xyOO_spzbX_BqFr2w0Wo-251" value="" style="shape=partialRectangle;connectable=0;fillColor=none;top=0;left=0;bottom=0;right=0;editable=1;overflow=hidden;" parent="xyOO_spzbX_BqFr2w0Wo-250" vertex="1">
          <mxGeometry width="30" height="30" as="geometry">
            <mxRectangle width="30" height="30" as="alternateBounds" />
          </mxGeometry>
        </mxCell>
        <mxCell id="xyOO_spzbX_BqFr2w0Wo-252" value="coder [text] 员工编号" style="shape=partialRectangle;connectable=0;fillColor=none;top=0;left=0;bottom=0;right=0;align=left;spacingLeft=6;overflow=hidden;" parent="xyOO_spzbX_BqFr2w0Wo-250" vertex="1">
          <mxGeometry x="30" width="250" height="30" as="geometry">
            <mxRectangle width="250" height="30" as="alternateBounds" />
          </mxGeometry>
        </mxCell>
        <mxCell id="xyOO_spzbX_BqFr2w0Wo-253" value="" style="shape=tableRow;horizontal=0;startSize=0;swimlaneHead=0;swimlaneBody=0;fillColor=none;collapsible=0;dropTarget=0;points=[[0,0.5],[1,0.5]];portConstraint=eastwest;top=0;left=0;right=0;bottom=0;" parent="xyOO_spzbX_BqFr2w0Wo-243" vertex="1">
          <mxGeometry y="120" width="280" height="30" as="geometry" />
        </mxCell>
        <mxCell id="xyOO_spzbX_BqFr2w0Wo-254" value="" style="shape=partialRectangle;connectable=0;fillColor=none;top=0;left=0;bottom=0;right=0;editable=1;overflow=hidden;" parent="xyOO_spzbX_BqFr2w0Wo-253" vertex="1">
          <mxGeometry width="30" height="30" as="geometry">
            <mxRectangle width="30" height="30" as="alternateBounds" />
          </mxGeometry>
        </mxCell>
        <mxCell id="xyOO_spzbX_BqFr2w0Wo-255" value="sex [int2] 性别" style="shape=partialRectangle;connectable=0;fillColor=none;top=0;left=0;bottom=0;right=0;align=left;spacingLeft=6;overflow=hidden;" parent="xyOO_spzbX_BqFr2w0Wo-253" vertex="1">
          <mxGeometry x="30" width="250" height="30" as="geometry">
            <mxRectangle width="250" height="30" as="alternateBounds" />
          </mxGeometry>
        </mxCell>
        <mxCell id="xyOO_spzbX_BqFr2w0Wo-256" style="shape=tableRow;horizontal=0;startSize=0;swimlaneHead=0;swimlaneBody=0;fillColor=none;collapsible=0;dropTarget=0;points=[[0,0.5],[1,0.5]];portConstraint=eastwest;top=0;left=0;right=0;bottom=0;" parent="xyOO_spzbX_BqFr2w0Wo-243" vertex="1">
          <mxGeometry y="150" width="280" height="30" as="geometry" />
        </mxCell>
        <mxCell id="xyOO_spzbX_BqFr2w0Wo-257" style="shape=partialRectangle;connectable=0;fillColor=none;top=0;left=0;bottom=0;right=0;editable=1;overflow=hidden;" parent="xyOO_spzbX_BqFr2w0Wo-256" vertex="1">
          <mxGeometry width="30" height="30" as="geometry">
            <mxRectangle width="30" height="30" as="alternateBounds" />
          </mxGeometry>
        </mxCell>
        <mxCell id="xyOO_spzbX_BqFr2w0Wo-258" value="birthday [date] 出生日期" style="shape=partialRectangle;connectable=0;fillColor=none;top=0;left=0;bottom=0;right=0;align=left;spacingLeft=6;overflow=hidden;" parent="xyOO_spzbX_BqFr2w0Wo-256" vertex="1">
          <mxGeometry x="30" width="250" height="30" as="geometry">
            <mxRectangle width="250" height="30" as="alternateBounds" />
          </mxGeometry>
        </mxCell>
        <mxCell id="xyOO_spzbX_BqFr2w0Wo-259" style="shape=tableRow;horizontal=0;startSize=0;swimlaneHead=0;swimlaneBody=0;fillColor=none;collapsible=0;dropTarget=0;points=[[0,0.5],[1,0.5]];portConstraint=eastwest;top=0;left=0;right=0;bottom=0;" parent="xyOO_spzbX_BqFr2w0Wo-243" vertex="1">
          <mxGeometry y="180" width="280" height="30" as="geometry" />
        </mxCell>
        <mxCell id="xyOO_spzbX_BqFr2w0Wo-260" style="shape=partialRectangle;connectable=0;fillColor=none;top=0;left=0;bottom=0;right=0;editable=1;overflow=hidden;" parent="xyOO_spzbX_BqFr2w0Wo-259" vertex="1">
          <mxGeometry width="30" height="30" as="geometry">
            <mxRectangle width="30" height="30" as="alternateBounds" />
          </mxGeometry>
        </mxCell>
        <mxCell id="xyOO_spzbX_BqFr2w0Wo-261" value="entry_date [date] 入职日期" style="shape=partialRectangle;connectable=0;fillColor=none;top=0;left=0;bottom=0;right=0;align=left;spacingLeft=6;overflow=hidden;" parent="xyOO_spzbX_BqFr2w0Wo-259" vertex="1">
          <mxGeometry x="30" width="250" height="30" as="geometry">
            <mxRectangle width="250" height="30" as="alternateBounds" />
          </mxGeometry>
        </mxCell>
        <mxCell id="xyOO_spzbX_BqFr2w0Wo-262" style="shape=tableRow;horizontal=0;startSize=0;swimlaneHead=0;swimlaneBody=0;fillColor=none;collapsible=0;dropTarget=0;points=[[0,0.5],[1,0.5]];portConstraint=eastwest;top=0;left=0;right=0;bottom=0;" parent="xyOO_spzbX_BqFr2w0Wo-243" vertex="1">
          <mxGeometry y="210" width="280" height="30" as="geometry" />
        </mxCell>
        <mxCell id="xyOO_spzbX_BqFr2w0Wo-263" style="shape=partialRectangle;connectable=0;fillColor=none;top=0;left=0;bottom=0;right=0;editable=1;overflow=hidden;" parent="xyOO_spzbX_BqFr2w0Wo-262" vertex="1">
          <mxGeometry width="30" height="30" as="geometry">
            <mxRectangle width="30" height="30" as="alternateBounds" />
          </mxGeometry>
        </mxCell>
        <mxCell id="xyOO_spzbX_BqFr2w0Wo-264" value="comment [text] 备注" style="shape=partialRectangle;connectable=0;fillColor=none;top=0;left=0;bottom=0;right=0;align=left;spacingLeft=6;overflow=hidden;" parent="xyOO_spzbX_BqFr2w0Wo-262" vertex="1">
          <mxGeometry x="30" width="250" height="30" as="geometry">
            <mxRectangle width="250" height="30" as="alternateBounds" />
          </mxGeometry>
        </mxCell>
        <mxCell id="xyOO_spzbX_BqFr2w0Wo-265" style="shape=tableRow;horizontal=0;startSize=0;swimlaneHead=0;swimlaneBody=0;fillColor=none;collapsible=0;dropTarget=0;points=[[0,0.5],[1,0.5]];portConstraint=eastwest;top=0;left=0;right=0;bottom=0;" parent="xyOO_spzbX_BqFr2w0Wo-243" vertex="1">
          <mxGeometry y="240" width="280" height="30" as="geometry" />
        </mxCell>
        <mxCell id="xyOO_spzbX_BqFr2w0Wo-266" style="shape=partialRectangle;connectable=0;fillColor=none;top=0;left=0;bottom=0;right=0;editable=1;overflow=hidden;" parent="xyOO_spzbX_BqFr2w0Wo-265" vertex="1">
          <mxGeometry width="30" height="30" as="geometry">
            <mxRectangle width="30" height="30" as="alternateBounds" />
          </mxGeometry>
        </mxCell>
        <mxCell id="xyOO_spzbX_BqFr2w0Wo-267" value="attribute [text] 其他" style="shape=partialRectangle;connectable=0;fillColor=none;top=0;left=0;bottom=0;right=0;align=left;spacingLeft=6;overflow=hidden;" parent="xyOO_spzbX_BqFr2w0Wo-265" vertex="1">
          <mxGeometry x="30" width="250" height="30" as="geometry">
            <mxRectangle width="250" height="30" as="alternateBounds" />
          </mxGeometry>
        </mxCell>
        <mxCell id="xyOO_spzbX_BqFr2w0Wo-269" value="" style="edgeStyle=orthogonalEdgeStyle;rounded=0;orthogonalLoop=1;jettySize=auto;html=1;endArrow=none;endFill=0;exitX=1;exitY=0.5;exitDx=0;exitDy=0;" parent="1" source="xyOO_spzbX_BqFr2w0Wo-265" target="xyOO_spzbX_BqFr2w0Wo-270" edge="1">
          <mxGeometry relative="1" as="geometry">
            <mxPoint x="332" y="743" as="sourcePoint" />
          </mxGeometry>
        </mxCell>
        <mxCell id="xyOO_spzbX_BqFr2w0Wo-270" value="属于" style="rhombus;whiteSpace=wrap;html=1;fillColor=#dae8fc;strokeColor=#6c8ebf;startSize=30;fontStyle=1;" parent="1" vertex="1">
          <mxGeometry x="432" y="958" width="80" height="80" as="geometry" />
        </mxCell>
        <mxCell id="xyOO_spzbX_BqFr2w0Wo-271" value="" style="edgeStyle=orthogonalEdgeStyle;rounded=0;orthogonalLoop=1;jettySize=auto;html=1;endArrow=classic;endFill=1;exitX=1;exitY=0.5;exitDx=0;exitDy=0;" parent="1" source="xyOO_spzbX_BqFr2w0Wo-270" target="xyOO_spzbX_BqFr2w0Wo-44" edge="1">
          <mxGeometry relative="1" as="geometry">
            <mxPoint x="52" y="713" as="sourcePoint" />
            <mxPoint x="532" y="1021" as="targetPoint" />
          </mxGeometry>
        </mxCell>
        <mxCell id="xyOO_spzbX_BqFr2w0Wo-275" value="" style="edgeStyle=orthogonalEdgeStyle;rounded=0;orthogonalLoop=1;jettySize=auto;html=1;endArrow=none;endFill=0;exitX=0.75;exitY=1;exitDx=0;exitDy=0;" parent="1" source="xyOO_spzbX_BqFr2w0Wo-243" target="xyOO_spzbX_BqFr2w0Wo-276" edge="1">
          <mxGeometry relative="1" as="geometry">
            <mxPoint x="112" y="1081.5" as="sourcePoint" />
            <Array as="points">
              <mxPoint x="302" y="1043" />
              <mxPoint x="272" y="1043" />
            </Array>
          </mxGeometry>
        </mxCell>
        <mxCell id="xyOO_spzbX_BqFr2w0Wo-276" value="属于" style="rhombus;whiteSpace=wrap;html=1;fillColor=#d5e8d4;strokeColor=#82b366;startSize=30;fontStyle=1;" parent="1" vertex="1">
          <mxGeometry x="232" y="1052" width="80" height="80" as="geometry" />
        </mxCell>
        <mxCell id="xyOO_spzbX_BqFr2w0Wo-277" value="" style="edgeStyle=orthogonalEdgeStyle;rounded=0;orthogonalLoop=1;jettySize=auto;html=1;endArrow=none;endFill=0;exitX=0.5;exitY=1;exitDx=0;exitDy=0;entryX=0.5;entryY=0;entryDx=0;entryDy=0;" parent="1" source="xyOO_spzbX_BqFr2w0Wo-276" target="xyOO_spzbX_BqFr2w0Wo-180" edge="1">
          <mxGeometry relative="1" as="geometry">
            <mxPoint x="-208" y="796.5" as="sourcePoint" />
            <mxPoint x="293" y="1091.5" as="targetPoint" />
            <Array as="points">
              <mxPoint x="272" y="1152" />
              <mxPoint x="242" y="1152" />
            </Array>
          </mxGeometry>
        </mxCell>
        <mxCell id="xyOO_spzbX_BqFr2w0Wo-282" value="" style="edgeStyle=orthogonalEdgeStyle;rounded=0;orthogonalLoop=1;jettySize=auto;html=1;endArrow=none;endFill=0;exitX=0.5;exitY=1;exitDx=0;exitDy=0;" parent="1" source="xyOO_spzbX_BqFr2w0Wo-243" target="xyOO_spzbX_BqFr2w0Wo-284" edge="1">
          <mxGeometry relative="1" as="geometry">
            <mxPoint x="222" y="1029" as="sourcePoint" />
            <Array as="points">
              <mxPoint x="232" y="1049" />
              <mxPoint x="192" y="1049" />
            </Array>
          </mxGeometry>
        </mxCell>
        <mxCell id="xyOO_spzbX_BqFr2w0Wo-284" value="负责" style="rhombus;whiteSpace=wrap;html=1;fillColor=#d5e8d4;strokeColor=#82b366;startSize=30;fontStyle=1;" parent="1" vertex="1">
          <mxGeometry x="152" y="1066" width="80" height="80" as="geometry" />
        </mxCell>
        <mxCell id="xyOO_spzbX_BqFr2w0Wo-285" value="" style="edgeStyle=orthogonalEdgeStyle;rounded=0;orthogonalLoop=1;jettySize=auto;html=1;endArrow=none;endFill=0;exitX=0.5;exitY=1;exitDx=0;exitDy=0;entryX=0.25;entryY=0;entryDx=0;entryDy=0;" parent="1" source="xyOO_spzbX_BqFr2w0Wo-284" target="xyOO_spzbX_BqFr2w0Wo-180" edge="1">
          <mxGeometry relative="1" as="geometry">
            <mxPoint x="-288" y="802.5" as="sourcePoint" />
            <mxPoint x="162" y="1178" as="targetPoint" />
            <Array as="points">
              <mxPoint x="192" y="1158" />
              <mxPoint x="172" y="1158" />
            </Array>
          </mxGeometry>
        </mxCell>
        <mxCell id="xyOO_spzbX_BqFr2w0Wo-287" value="" style="edgeStyle=orthogonalEdgeStyle;rounded=0;orthogonalLoop=1;jettySize=auto;html=1;endArrow=none;endFill=0;exitX=0.25;exitY=1;exitDx=0;exitDy=0;" parent="1" source="xyOO_spzbX_BqFr2w0Wo-243" target="xyOO_spzbX_BqFr2w0Wo-289" edge="1">
          <mxGeometry relative="1" as="geometry">
            <mxPoint x="152" y="1004" as="sourcePoint" />
            <Array as="points">
              <mxPoint x="162" y="1043" />
              <mxPoint x="112" y="1043" />
            </Array>
          </mxGeometry>
        </mxCell>
        <mxCell id="xyOO_spzbX_BqFr2w0Wo-289" value="联系人职责" style="rhombus;whiteSpace=wrap;html=1;fillColor=#d5e8d4;strokeColor=#82b366;startSize=30;fontStyle=1;" parent="1" vertex="1">
          <mxGeometry x="72" y="1051" width="80" height="80" as="geometry" />
        </mxCell>
        <mxCell id="xyOO_spzbX_BqFr2w0Wo-290" value="" style="edgeStyle=orthogonalEdgeStyle;rounded=0;orthogonalLoop=1;jettySize=auto;html=1;endArrow=none;endFill=0;exitX=0.5;exitY=1;exitDx=0;exitDy=0;entryX=0.059;entryY=-0.004;entryDx=0;entryDy=0;entryPerimeter=0;" parent="1" source="xyOO_spzbX_BqFr2w0Wo-289" target="xyOO_spzbX_BqFr2w0Wo-180" edge="1">
          <mxGeometry relative="1" as="geometry">
            <mxPoint x="-368" y="789.5" as="sourcePoint" />
            <mxPoint x="105.44000000000005" y="1153" as="targetPoint" />
            <Array as="points">
              <mxPoint x="112" y="1131" />
              <mxPoint x="119" y="1153" />
              <mxPoint x="119" y="1153" />
            </Array>
          </mxGeometry>
        </mxCell>
        <mxCell id="xyOO_spzbX_BqFr2w0Wo-292" value="CompanyZoneGroup 班组" style="shape=table;startSize=30;container=1;collapsible=1;childLayout=tableLayout;fixedRows=1;rowLines=0;fontStyle=1;align=center;resizeLast=1;fillColor=#d5e8d4;strokeColor=#82b366;" parent="1" vertex="1">
          <mxGeometry x="102" y="298" width="280" height="280" as="geometry">
            <mxRectangle x="585" y="220" width="80" height="30" as="alternateBounds" />
          </mxGeometry>
        </mxCell>
        <mxCell id="xyOO_spzbX_BqFr2w0Wo-293" value="" style="shape=tableRow;horizontal=0;startSize=0;swimlaneHead=0;swimlaneBody=0;fillColor=none;collapsible=0;dropTarget=0;points=[[0,0.5],[1,0.5]];portConstraint=eastwest;top=0;left=0;right=0;bottom=1;" parent="xyOO_spzbX_BqFr2w0Wo-292" vertex="1">
          <mxGeometry y="30" width="280" height="30" as="geometry" />
        </mxCell>
        <mxCell id="xyOO_spzbX_BqFr2w0Wo-294" value="PK" style="shape=partialRectangle;connectable=0;fillColor=none;top=0;left=0;bottom=0;right=0;fontStyle=1;overflow=hidden;" parent="xyOO_spzbX_BqFr2w0Wo-293" vertex="1">
          <mxGeometry width="30" height="30" as="geometry">
            <mxRectangle width="30" height="30" as="alternateBounds" />
          </mxGeometry>
        </mxCell>
        <mxCell id="xyOO_spzbX_BqFr2w0Wo-295" value="uuid" style="shape=partialRectangle;connectable=0;fillColor=none;top=0;left=0;bottom=0;right=0;align=left;spacingLeft=6;fontStyle=5;overflow=hidden;" parent="xyOO_spzbX_BqFr2w0Wo-293" vertex="1">
          <mxGeometry x="30" width="250" height="30" as="geometry">
            <mxRectangle width="250" height="30" as="alternateBounds" />
          </mxGeometry>
        </mxCell>
        <mxCell id="xyOO_spzbX_BqFr2w0Wo-296" value="" style="shape=tableRow;horizontal=0;startSize=0;swimlaneHead=0;swimlaneBody=0;fillColor=none;collapsible=0;dropTarget=0;points=[[0,0.5],[1,0.5]];portConstraint=eastwest;top=0;left=0;right=0;bottom=0;" parent="xyOO_spzbX_BqFr2w0Wo-292" vertex="1">
          <mxGeometry y="60" width="280" height="30" as="geometry" />
        </mxCell>
        <mxCell id="xyOO_spzbX_BqFr2w0Wo-297" value="" style="shape=partialRectangle;connectable=0;fillColor=none;top=0;left=0;bottom=0;right=0;editable=1;overflow=hidden;" parent="xyOO_spzbX_BqFr2w0Wo-296" vertex="1">
          <mxGeometry width="30" height="30" as="geometry">
            <mxRectangle width="30" height="30" as="alternateBounds" />
          </mxGeometry>
        </mxCell>
        <mxCell id="xyOO_spzbX_BqFr2w0Wo-298" value="name [text] 班组名称" style="shape=partialRectangle;connectable=0;fillColor=none;top=0;left=0;bottom=0;right=0;align=left;spacingLeft=6;overflow=hidden;" parent="xyOO_spzbX_BqFr2w0Wo-296" vertex="1">
          <mxGeometry x="30" width="250" height="30" as="geometry">
            <mxRectangle width="250" height="30" as="alternateBounds" />
          </mxGeometry>
        </mxCell>
        <mxCell id="xyOO_spzbX_BqFr2w0Wo-299" value="" style="shape=tableRow;horizontal=0;startSize=0;swimlaneHead=0;swimlaneBody=0;fillColor=none;collapsible=0;dropTarget=0;points=[[0,0.5],[1,0.5]];portConstraint=eastwest;top=0;left=0;right=0;bottom=0;" parent="xyOO_spzbX_BqFr2w0Wo-292" vertex="1">
          <mxGeometry y="90" width="280" height="30" as="geometry" />
        </mxCell>
        <mxCell id="xyOO_spzbX_BqFr2w0Wo-300" value="" style="shape=partialRectangle;connectable=0;fillColor=none;top=0;left=0;bottom=0;right=0;editable=1;overflow=hidden;" parent="xyOO_spzbX_BqFr2w0Wo-299" vertex="1">
          <mxGeometry width="30" height="30" as="geometry">
            <mxRectangle width="30" height="30" as="alternateBounds" />
          </mxGeometry>
        </mxCell>
        <mxCell id="xyOO_spzbX_BqFr2w0Wo-301" value="coder [text] 班组编号" style="shape=partialRectangle;connectable=0;fillColor=none;top=0;left=0;bottom=0;right=0;align=left;spacingLeft=6;overflow=hidden;" parent="xyOO_spzbX_BqFr2w0Wo-299" vertex="1">
          <mxGeometry x="30" width="250" height="30" as="geometry">
            <mxRectangle width="250" height="30" as="alternateBounds" />
          </mxGeometry>
        </mxCell>
        <mxCell id="xyOO_spzbX_BqFr2w0Wo-302" value="" style="shape=tableRow;horizontal=0;startSize=0;swimlaneHead=0;swimlaneBody=0;fillColor=none;collapsible=0;dropTarget=0;points=[[0,0.5],[1,0.5]];portConstraint=eastwest;top=0;left=0;right=0;bottom=0;" parent="xyOO_spzbX_BqFr2w0Wo-292" vertex="1">
          <mxGeometry y="120" width="280" height="30" as="geometry" />
        </mxCell>
        <mxCell id="xyOO_spzbX_BqFr2w0Wo-303" value="" style="shape=partialRectangle;connectable=0;fillColor=none;top=0;left=0;bottom=0;right=0;editable=1;overflow=hidden;" parent="xyOO_spzbX_BqFr2w0Wo-302" vertex="1">
          <mxGeometry width="30" height="30" as="geometry">
            <mxRectangle width="30" height="30" as="alternateBounds" />
          </mxGeometry>
        </mxCell>
        <mxCell id="xyOO_spzbX_BqFr2w0Wo-304" value="brief_information [text] 班组岗位简介" style="shape=partialRectangle;connectable=0;fillColor=none;top=0;left=0;bottom=0;right=0;align=left;spacingLeft=6;overflow=hidden;" parent="xyOO_spzbX_BqFr2w0Wo-302" vertex="1">
          <mxGeometry x="30" width="250" height="30" as="geometry">
            <mxRectangle width="250" height="30" as="alternateBounds" />
          </mxGeometry>
        </mxCell>
        <mxCell id="xyOO_spzbX_BqFr2w0Wo-305" style="shape=tableRow;horizontal=0;startSize=0;swimlaneHead=0;swimlaneBody=0;fillColor=none;collapsible=0;dropTarget=0;points=[[0,0.5],[1,0.5]];portConstraint=eastwest;top=0;left=0;right=0;bottom=0;" parent="xyOO_spzbX_BqFr2w0Wo-292" vertex="1">
          <mxGeometry y="150" width="280" height="30" as="geometry" />
        </mxCell>
        <mxCell id="xyOO_spzbX_BqFr2w0Wo-306" style="shape=partialRectangle;connectable=0;fillColor=none;top=0;left=0;bottom=0;right=0;editable=1;overflow=hidden;" parent="xyOO_spzbX_BqFr2w0Wo-305" vertex="1">
          <mxGeometry width="30" height="30" as="geometry">
            <mxRectangle width="30" height="30" as="alternateBounds" />
          </mxGeometry>
        </mxCell>
        <mxCell id="xyOO_spzbX_BqFr2w0Wo-307" value="phone [text] 班组电话" style="shape=partialRectangle;connectable=0;fillColor=none;top=0;left=0;bottom=0;right=0;align=left;spacingLeft=6;overflow=hidden;" parent="xyOO_spzbX_BqFr2w0Wo-305" vertex="1">
          <mxGeometry x="30" width="250" height="30" as="geometry">
            <mxRectangle width="250" height="30" as="alternateBounds" />
          </mxGeometry>
        </mxCell>
        <mxCell id="xyOO_spzbX_BqFr2w0Wo-308" style="shape=tableRow;horizontal=0;startSize=0;swimlaneHead=0;swimlaneBody=0;fillColor=none;collapsible=0;dropTarget=0;points=[[0,0.5],[1,0.5]];portConstraint=eastwest;top=0;left=0;right=0;bottom=0;" parent="xyOO_spzbX_BqFr2w0Wo-292" vertex="1">
          <mxGeometry y="180" width="280" height="30" as="geometry" />
        </mxCell>
        <mxCell id="xyOO_spzbX_BqFr2w0Wo-309" style="shape=partialRectangle;connectable=0;fillColor=none;top=0;left=0;bottom=0;right=0;editable=1;overflow=hidden;" parent="xyOO_spzbX_BqFr2w0Wo-308" vertex="1">
          <mxGeometry width="30" height="30" as="geometry">
            <mxRectangle width="30" height="30" as="alternateBounds" />
          </mxGeometry>
        </mxCell>
        <mxCell id="xyOO_spzbX_BqFr2w0Wo-310" value="fax [text] 班组传真" style="shape=partialRectangle;connectable=0;fillColor=none;top=0;left=0;bottom=0;right=0;align=left;spacingLeft=6;overflow=hidden;" parent="xyOO_spzbX_BqFr2w0Wo-308" vertex="1">
          <mxGeometry x="30" width="250" height="30" as="geometry">
            <mxRectangle width="250" height="30" as="alternateBounds" />
          </mxGeometry>
        </mxCell>
        <mxCell id="xyOO_spzbX_BqFr2w0Wo-311" style="shape=tableRow;horizontal=0;startSize=0;swimlaneHead=0;swimlaneBody=0;fillColor=none;collapsible=0;dropTarget=0;points=[[0,0.5],[1,0.5]];portConstraint=eastwest;top=0;left=0;right=0;bottom=0;" parent="xyOO_spzbX_BqFr2w0Wo-292" vertex="1">
          <mxGeometry y="210" width="280" height="30" as="geometry" />
        </mxCell>
        <mxCell id="xyOO_spzbX_BqFr2w0Wo-312" style="shape=partialRectangle;connectable=0;fillColor=none;top=0;left=0;bottom=0;right=0;editable=1;overflow=hidden;" parent="xyOO_spzbX_BqFr2w0Wo-311" vertex="1">
          <mxGeometry width="30" height="30" as="geometry">
            <mxRectangle width="30" height="30" as="alternateBounds" />
          </mxGeometry>
        </mxCell>
        <mxCell id="xyOO_spzbX_BqFr2w0Wo-313" value="comment [text] 备注" style="shape=partialRectangle;connectable=0;fillColor=none;top=0;left=0;bottom=0;right=0;align=left;spacingLeft=6;overflow=hidden;" parent="xyOO_spzbX_BqFr2w0Wo-311" vertex="1">
          <mxGeometry x="30" width="250" height="30" as="geometry">
            <mxRectangle width="250" height="30" as="alternateBounds" />
          </mxGeometry>
        </mxCell>
        <mxCell id="xyOO_spzbX_BqFr2w0Wo-314" style="shape=tableRow;horizontal=0;startSize=0;swimlaneHead=0;swimlaneBody=0;fillColor=none;collapsible=0;dropTarget=0;points=[[0,0.5],[1,0.5]];portConstraint=eastwest;top=0;left=0;right=0;bottom=0;" parent="xyOO_spzbX_BqFr2w0Wo-292" vertex="1">
          <mxGeometry y="240" width="280" height="30" as="geometry" />
        </mxCell>
        <mxCell id="xyOO_spzbX_BqFr2w0Wo-315" style="shape=partialRectangle;connectable=0;fillColor=none;top=0;left=0;bottom=0;right=0;editable=1;overflow=hidden;" parent="xyOO_spzbX_BqFr2w0Wo-314" vertex="1">
          <mxGeometry width="30" height="30" as="geometry">
            <mxRectangle width="30" height="30" as="alternateBounds" />
          </mxGeometry>
        </mxCell>
        <mxCell id="xyOO_spzbX_BqFr2w0Wo-316" value="attribute [text] 其他" style="shape=partialRectangle;connectable=0;fillColor=none;top=0;left=0;bottom=0;right=0;align=left;spacingLeft=6;overflow=hidden;" parent="xyOO_spzbX_BqFr2w0Wo-314" vertex="1">
          <mxGeometry x="30" width="250" height="30" as="geometry">
            <mxRectangle width="250" height="30" as="alternateBounds" />
          </mxGeometry>
        </mxCell>
        <mxCell id="xyOO_spzbX_BqFr2w0Wo-318" value="" style="edgeStyle=orthogonalEdgeStyle;rounded=0;orthogonalLoop=1;jettySize=auto;html=1;endArrow=none;endFill=0;" parent="1" source="xyOO_spzbX_BqFr2w0Wo-293" target="xyOO_spzbX_BqFr2w0Wo-319" edge="1">
          <mxGeometry relative="1" as="geometry">
            <mxPoint x="342" y="428" as="sourcePoint" />
          </mxGeometry>
        </mxCell>
        <mxCell id="xyOO_spzbX_BqFr2w0Wo-319" value="属于" style="rhombus;whiteSpace=wrap;html=1;fillColor=#d5e8d4;strokeColor=#82b366;startSize=30;fontStyle=1;" parent="1" vertex="1">
          <mxGeometry x="412" y="303" width="80" height="80" as="geometry" />
        </mxCell>
        <mxCell id="xyOO_spzbX_BqFr2w0Wo-320" value="" style="edgeStyle=orthogonalEdgeStyle;rounded=0;orthogonalLoop=1;jettySize=auto;html=1;endArrow=classic;endFill=1;exitX=1;exitY=0.5;exitDx=0;exitDy=0;" parent="1" source="xyOO_spzbX_BqFr2w0Wo-319" target="xyOO_spzbX_BqFr2w0Wo-339" edge="1">
          <mxGeometry relative="1" as="geometry">
            <mxPoint x="62" y="398" as="sourcePoint" />
            <mxPoint x="552" y="273" as="targetPoint" />
          </mxGeometry>
        </mxCell>
        <mxCell id="xyOO_spzbX_BqFr2w0Wo-322" value="" style="edgeStyle=orthogonalEdgeStyle;rounded=0;orthogonalLoop=1;jettySize=auto;html=1;endArrow=none;endFill=0;exitX=0.75;exitY=1;exitDx=0;exitDy=0;entryX=0.5;entryY=0;entryDx=0;entryDy=0;" parent="1" source="xyOO_spzbX_BqFr2w0Wo-292" target="xyOO_spzbX_BqFr2w0Wo-324" edge="1">
          <mxGeometry relative="1" as="geometry">
            <mxPoint x="352" y="594" as="sourcePoint" />
            <Array as="points">
              <mxPoint x="312" y="623" />
            </Array>
          </mxGeometry>
        </mxCell>
        <mxCell id="xyOO_spzbX_BqFr2w0Wo-324" value="属于" style="rhombus;whiteSpace=wrap;html=1;fillColor=#d5e8d4;strokeColor=#82b366;startSize=30;fontStyle=1;" parent="1" vertex="1">
          <mxGeometry x="273" y="623" width="80" height="80" as="geometry" />
        </mxCell>
        <mxCell id="xyOO_spzbX_BqFr2w0Wo-325" value="" style="edgeStyle=orthogonalEdgeStyle;rounded=0;orthogonalLoop=1;jettySize=auto;html=1;endArrow=none;endFill=0;exitX=0.5;exitY=1;exitDx=0;exitDy=0;entryX=0.75;entryY=0;entryDx=0;entryDy=0;" parent="1" source="xyOO_spzbX_BqFr2w0Wo-324" target="xyOO_spzbX_BqFr2w0Wo-243" edge="1">
          <mxGeometry relative="1" as="geometry">
            <mxPoint x="-158" y="367.5" as="sourcePoint" />
            <mxPoint x="292" y="743" as="targetPoint" />
            <Array as="points">
              <mxPoint x="313" y="723" />
              <mxPoint x="292" y="723" />
              <mxPoint x="292" y="743" />
            </Array>
          </mxGeometry>
        </mxCell>
        <mxCell id="xyOO_spzbX_BqFr2w0Wo-327" value="" style="edgeStyle=orthogonalEdgeStyle;rounded=0;orthogonalLoop=1;jettySize=auto;html=1;endArrow=none;endFill=0;exitX=0.5;exitY=1;exitDx=0;exitDy=0;" parent="1" source="xyOO_spzbX_BqFr2w0Wo-292" target="xyOO_spzbX_BqFr2w0Wo-329" edge="1">
          <mxGeometry relative="1" as="geometry">
            <mxPoint x="282" y="594" as="sourcePoint" />
            <Array as="points">
              <mxPoint x="242" y="583" />
              <mxPoint x="242" y="583" />
            </Array>
          </mxGeometry>
        </mxCell>
        <mxCell id="xyOO_spzbX_BqFr2w0Wo-329" value="负责" style="rhombus;whiteSpace=wrap;html=1;fillColor=#d5e8d4;strokeColor=#82b366;startSize=30;fontStyle=1;" parent="1" vertex="1">
          <mxGeometry x="202" y="637" width="80" height="80" as="geometry" />
        </mxCell>
        <mxCell id="xyOO_spzbX_BqFr2w0Wo-330" value="" style="edgeStyle=orthogonalEdgeStyle;rounded=0;orthogonalLoop=1;jettySize=auto;html=1;endArrow=none;endFill=0;exitX=0.5;exitY=1;exitDx=0;exitDy=0;entryX=0.5;entryY=0;entryDx=0;entryDy=0;" parent="1" source="xyOO_spzbX_BqFr2w0Wo-329" target="xyOO_spzbX_BqFr2w0Wo-243" edge="1">
          <mxGeometry relative="1" as="geometry">
            <mxPoint x="-238" y="373.5" as="sourcePoint" />
            <mxPoint x="222" y="743" as="targetPoint" />
            <Array as="points">
              <mxPoint x="242" y="729" />
              <mxPoint x="222" y="729" />
              <mxPoint x="222" y="743" />
            </Array>
          </mxGeometry>
        </mxCell>
        <mxCell id="xyOO_spzbX_BqFr2w0Wo-332" value="" style="edgeStyle=orthogonalEdgeStyle;rounded=0;orthogonalLoop=1;jettySize=auto;html=1;endArrow=none;endFill=0;exitX=0.25;exitY=1;exitDx=0;exitDy=0;" parent="1" source="xyOO_spzbX_BqFr2w0Wo-292" target="xyOO_spzbX_BqFr2w0Wo-334" edge="1">
          <mxGeometry relative="1" as="geometry">
            <mxPoint x="212" y="594" as="sourcePoint" />
            <Array as="points">
              <mxPoint x="172" y="614" />
              <mxPoint x="162" y="614" />
            </Array>
          </mxGeometry>
        </mxCell>
        <mxCell id="xyOO_spzbX_BqFr2w0Wo-333" value="&lt;font style=&quot;font-size: 24px;&quot;&gt;(0...1)&lt;/font&gt;" style="edgeLabel;html=1;align=center;verticalAlign=middle;resizable=0;points=[];fontColor=#990000;labelBackgroundColor=none;" parent="xyOO_spzbX_BqFr2w0Wo-332" vertex="1" connectable="0">
          <mxGeometry x="0.0042" y="2" relative="1" as="geometry">
            <mxPoint x="-34" y="1" as="offset" />
          </mxGeometry>
        </mxCell>
        <mxCell id="xyOO_spzbX_BqFr2w0Wo-334" value="联系人职责" style="rhombus;whiteSpace=wrap;html=1;fillColor=#d5e8d4;strokeColor=#82b366;startSize=30;fontStyle=1;" parent="1" vertex="1">
          <mxGeometry x="133" y="614" width="80" height="80" as="geometry" />
        </mxCell>
        <mxCell id="xyOO_spzbX_BqFr2w0Wo-335" value="" style="edgeStyle=orthogonalEdgeStyle;rounded=0;orthogonalLoop=1;jettySize=auto;html=1;endArrow=none;endFill=0;exitX=0.5;exitY=1;exitDx=0;exitDy=0;" parent="1" source="xyOO_spzbX_BqFr2w0Wo-334" target="xyOO_spzbX_BqFr2w0Wo-243" edge="1">
          <mxGeometry relative="1" as="geometry">
            <mxPoint x="-318" y="360.5" as="sourcePoint" />
            <mxPoint x="168.51999999999998" y="741.8800000000001" as="targetPoint" />
            <Array as="points">
              <mxPoint x="172" y="694" />
              <mxPoint x="172" y="724" />
              <mxPoint x="169" y="724" />
            </Array>
          </mxGeometry>
        </mxCell>
        <mxCell id="xyOO_spzbX_BqFr2w0Wo-336" value="&lt;font style=&quot;font-size: 23px;&quot;&gt;(0...*)&lt;/font&gt;" style="edgeLabel;html=1;align=center;verticalAlign=middle;resizable=0;points=[];fontColor=#990000;labelBackgroundColor=none;" parent="xyOO_spzbX_BqFr2w0Wo-335" vertex="1" connectable="0">
          <mxGeometry x="-0.1536" y="-3" relative="1" as="geometry">
            <mxPoint x="-29" y="-4" as="offset" />
          </mxGeometry>
        </mxCell>
        <mxCell id="xyOO_spzbX_BqFr2w0Wo-338" value="CompanyZone 厂区" style="shape=table;startSize=30;container=1;collapsible=1;childLayout=tableLayout;fixedRows=1;rowLines=0;fontStyle=1;align=center;resizeLast=1;fillColor=#f8cecc;strokeColor=#b85450;" parent="1" vertex="1">
          <mxGeometry x="549" y="298" width="280" height="270" as="geometry">
            <mxRectangle x="585" y="220" width="80" height="30" as="alternateBounds" />
          </mxGeometry>
        </mxCell>
        <mxCell id="xyOO_spzbX_BqFr2w0Wo-339" value="" style="shape=tableRow;horizontal=0;startSize=0;swimlaneHead=0;swimlaneBody=0;fillColor=none;collapsible=0;dropTarget=0;points=[[0,0.5],[1,0.5]];portConstraint=eastwest;top=0;left=0;right=0;bottom=1;" parent="xyOO_spzbX_BqFr2w0Wo-338" vertex="1">
          <mxGeometry y="30" width="280" height="30" as="geometry" />
        </mxCell>
        <mxCell id="xyOO_spzbX_BqFr2w0Wo-340" value="PK" style="shape=partialRectangle;connectable=0;fillColor=none;top=0;left=0;bottom=0;right=0;fontStyle=1;overflow=hidden;" parent="xyOO_spzbX_BqFr2w0Wo-339" vertex="1">
          <mxGeometry width="30" height="30" as="geometry">
            <mxRectangle width="30" height="30" as="alternateBounds" />
          </mxGeometry>
        </mxCell>
        <mxCell id="xyOO_spzbX_BqFr2w0Wo-341" value="uuid" style="shape=partialRectangle;connectable=0;fillColor=none;top=0;left=0;bottom=0;right=0;align=left;spacingLeft=6;fontStyle=5;overflow=hidden;" parent="xyOO_spzbX_BqFr2w0Wo-339" vertex="1">
          <mxGeometry x="30" width="250" height="30" as="geometry">
            <mxRectangle width="250" height="30" as="alternateBounds" />
          </mxGeometry>
        </mxCell>
        <mxCell id="xyOO_spzbX_BqFr2w0Wo-342" value="" style="shape=tableRow;horizontal=0;startSize=0;swimlaneHead=0;swimlaneBody=0;fillColor=none;collapsible=0;dropTarget=0;points=[[0,0.5],[1,0.5]];portConstraint=eastwest;top=0;left=0;right=0;bottom=0;" parent="xyOO_spzbX_BqFr2w0Wo-338" vertex="1">
          <mxGeometry y="60" width="280" height="30" as="geometry" />
        </mxCell>
        <mxCell id="xyOO_spzbX_BqFr2w0Wo-343" value="" style="shape=partialRectangle;connectable=0;fillColor=none;top=0;left=0;bottom=0;right=0;editable=1;overflow=hidden;" parent="xyOO_spzbX_BqFr2w0Wo-342" vertex="1">
          <mxGeometry width="30" height="30" as="geometry">
            <mxRectangle width="30" height="30" as="alternateBounds" />
          </mxGeometry>
        </mxCell>
        <mxCell id="xyOO_spzbX_BqFr2w0Wo-344" value="name [text] 班组名称" style="shape=partialRectangle;connectable=0;fillColor=none;top=0;left=0;bottom=0;right=0;align=left;spacingLeft=6;overflow=hidden;" parent="xyOO_spzbX_BqFr2w0Wo-342" vertex="1">
          <mxGeometry x="30" width="250" height="30" as="geometry">
            <mxRectangle width="250" height="30" as="alternateBounds" />
          </mxGeometry>
        </mxCell>
        <mxCell id="xyOO_spzbX_BqFr2w0Wo-345" value="" style="shape=tableRow;horizontal=0;startSize=0;swimlaneHead=0;swimlaneBody=0;fillColor=none;collapsible=0;dropTarget=0;points=[[0,0.5],[1,0.5]];portConstraint=eastwest;top=0;left=0;right=0;bottom=0;" parent="xyOO_spzbX_BqFr2w0Wo-338" vertex="1">
          <mxGeometry y="90" width="280" height="30" as="geometry" />
        </mxCell>
        <mxCell id="xyOO_spzbX_BqFr2w0Wo-346" value="" style="shape=partialRectangle;connectable=0;fillColor=none;top=0;left=0;bottom=0;right=0;editable=1;overflow=hidden;" parent="xyOO_spzbX_BqFr2w0Wo-345" vertex="1">
          <mxGeometry width="30" height="30" as="geometry">
            <mxRectangle width="30" height="30" as="alternateBounds" />
          </mxGeometry>
        </mxCell>
        <mxCell id="xyOO_spzbX_BqFr2w0Wo-347" value="coder [text] 班组编号" style="shape=partialRectangle;connectable=0;fillColor=none;top=0;left=0;bottom=0;right=0;align=left;spacingLeft=6;overflow=hidden;" parent="xyOO_spzbX_BqFr2w0Wo-345" vertex="1">
          <mxGeometry x="30" width="250" height="30" as="geometry">
            <mxRectangle width="250" height="30" as="alternateBounds" />
          </mxGeometry>
        </mxCell>
        <mxCell id="xyOO_spzbX_BqFr2w0Wo-348" value="" style="shape=tableRow;horizontal=0;startSize=0;swimlaneHead=0;swimlaneBody=0;fillColor=none;collapsible=0;dropTarget=0;points=[[0,0.5],[1,0.5]];portConstraint=eastwest;top=0;left=0;right=0;bottom=0;" parent="xyOO_spzbX_BqFr2w0Wo-338" vertex="1">
          <mxGeometry y="120" width="280" height="30" as="geometry" />
        </mxCell>
        <mxCell id="xyOO_spzbX_BqFr2w0Wo-349" value="" style="shape=partialRectangle;connectable=0;fillColor=none;top=0;left=0;bottom=0;right=0;editable=1;overflow=hidden;" parent="xyOO_spzbX_BqFr2w0Wo-348" vertex="1">
          <mxGeometry width="30" height="30" as="geometry">
            <mxRectangle width="30" height="30" as="alternateBounds" />
          </mxGeometry>
        </mxCell>
        <mxCell id="xyOO_spzbX_BqFr2w0Wo-350" value="brief_information [text] 班组岗位简介" style="shape=partialRectangle;connectable=0;fillColor=none;top=0;left=0;bottom=0;right=0;align=left;spacingLeft=6;overflow=hidden;" parent="xyOO_spzbX_BqFr2w0Wo-348" vertex="1">
          <mxGeometry x="30" width="250" height="30" as="geometry">
            <mxRectangle width="250" height="30" as="alternateBounds" />
          </mxGeometry>
        </mxCell>
        <mxCell id="xyOO_spzbX_BqFr2w0Wo-351" style="shape=tableRow;horizontal=0;startSize=0;swimlaneHead=0;swimlaneBody=0;fillColor=none;collapsible=0;dropTarget=0;points=[[0,0.5],[1,0.5]];portConstraint=eastwest;top=0;left=0;right=0;bottom=0;" parent="xyOO_spzbX_BqFr2w0Wo-338" vertex="1">
          <mxGeometry y="150" width="280" height="20" as="geometry" />
        </mxCell>
        <mxCell id="xyOO_spzbX_BqFr2w0Wo-352" style="shape=partialRectangle;connectable=0;fillColor=none;top=0;left=0;bottom=0;right=0;editable=1;overflow=hidden;" parent="xyOO_spzbX_BqFr2w0Wo-351" vertex="1">
          <mxGeometry width="30" height="20" as="geometry">
            <mxRectangle width="30" height="20" as="alternateBounds" />
          </mxGeometry>
        </mxCell>
        <mxCell id="xyOO_spzbX_BqFr2w0Wo-353" value="phone [text] 班组电话" style="shape=partialRectangle;connectable=0;fillColor=none;top=0;left=0;bottom=0;right=0;align=left;spacingLeft=6;overflow=hidden;" parent="xyOO_spzbX_BqFr2w0Wo-351" vertex="1">
          <mxGeometry x="30" width="250" height="20" as="geometry">
            <mxRectangle width="250" height="20" as="alternateBounds" />
          </mxGeometry>
        </mxCell>
        <mxCell id="xyOO_spzbX_BqFr2w0Wo-354" style="shape=tableRow;horizontal=0;startSize=0;swimlaneHead=0;swimlaneBody=0;fillColor=none;collapsible=0;dropTarget=0;points=[[0,0.5],[1,0.5]];portConstraint=eastwest;top=0;left=0;right=0;bottom=0;" parent="xyOO_spzbX_BqFr2w0Wo-338" vertex="1">
          <mxGeometry y="170" width="280" height="30" as="geometry" />
        </mxCell>
        <mxCell id="xyOO_spzbX_BqFr2w0Wo-355" style="shape=partialRectangle;connectable=0;fillColor=none;top=0;left=0;bottom=0;right=0;editable=1;overflow=hidden;" parent="xyOO_spzbX_BqFr2w0Wo-354" vertex="1">
          <mxGeometry width="30" height="30" as="geometry">
            <mxRectangle width="30" height="30" as="alternateBounds" />
          </mxGeometry>
        </mxCell>
        <mxCell id="xyOO_spzbX_BqFr2w0Wo-356" value="fax [text] 班组传真" style="shape=partialRectangle;connectable=0;fillColor=none;top=0;left=0;bottom=0;right=0;align=left;spacingLeft=6;overflow=hidden;" parent="xyOO_spzbX_BqFr2w0Wo-354" vertex="1">
          <mxGeometry x="30" width="250" height="30" as="geometry">
            <mxRectangle width="250" height="30" as="alternateBounds" />
          </mxGeometry>
        </mxCell>
        <mxCell id="xyOO_spzbX_BqFr2w0Wo-357" style="shape=tableRow;horizontal=0;startSize=0;swimlaneHead=0;swimlaneBody=0;fillColor=none;collapsible=0;dropTarget=0;points=[[0,0.5],[1,0.5]];portConstraint=eastwest;top=0;left=0;right=0;bottom=0;" parent="xyOO_spzbX_BqFr2w0Wo-338" vertex="1">
          <mxGeometry y="200" width="280" height="30" as="geometry" />
        </mxCell>
        <mxCell id="xyOO_spzbX_BqFr2w0Wo-358" style="shape=partialRectangle;connectable=0;fillColor=none;top=0;left=0;bottom=0;right=0;editable=1;overflow=hidden;" parent="xyOO_spzbX_BqFr2w0Wo-357" vertex="1">
          <mxGeometry width="30" height="30" as="geometry">
            <mxRectangle width="30" height="30" as="alternateBounds" />
          </mxGeometry>
        </mxCell>
        <mxCell id="xyOO_spzbX_BqFr2w0Wo-359" value="comment [text] 备注" style="shape=partialRectangle;connectable=0;fillColor=none;top=0;left=0;bottom=0;right=0;align=left;spacingLeft=6;overflow=hidden;" parent="xyOO_spzbX_BqFr2w0Wo-357" vertex="1">
          <mxGeometry x="30" width="250" height="30" as="geometry">
            <mxRectangle width="250" height="30" as="alternateBounds" />
          </mxGeometry>
        </mxCell>
        <mxCell id="xyOO_spzbX_BqFr2w0Wo-360" style="shape=tableRow;horizontal=0;startSize=0;swimlaneHead=0;swimlaneBody=0;fillColor=none;collapsible=0;dropTarget=0;points=[[0,0.5],[1,0.5]];portConstraint=eastwest;top=0;left=0;right=0;bottom=0;" parent="xyOO_spzbX_BqFr2w0Wo-338" vertex="1">
          <mxGeometry y="230" width="280" height="30" as="geometry" />
        </mxCell>
        <mxCell id="xyOO_spzbX_BqFr2w0Wo-361" style="shape=partialRectangle;connectable=0;fillColor=none;top=0;left=0;bottom=0;right=0;editable=1;overflow=hidden;" parent="xyOO_spzbX_BqFr2w0Wo-360" vertex="1">
          <mxGeometry width="30" height="30" as="geometry">
            <mxRectangle width="30" height="30" as="alternateBounds" />
          </mxGeometry>
        </mxCell>
        <mxCell id="xyOO_spzbX_BqFr2w0Wo-362" value="attribute [text] 其他" style="shape=partialRectangle;connectable=0;fillColor=none;top=0;left=0;bottom=0;right=0;align=left;spacingLeft=6;overflow=hidden;" parent="xyOO_spzbX_BqFr2w0Wo-360" vertex="1">
          <mxGeometry x="30" width="250" height="30" as="geometry">
            <mxRectangle width="250" height="30" as="alternateBounds" />
          </mxGeometry>
        </mxCell>
        <mxCell id="xyOO_spzbX_BqFr2w0Wo-364" value="" style="edgeStyle=orthogonalEdgeStyle;rounded=0;orthogonalLoop=1;jettySize=auto;html=1;endArrow=none;endFill=0;exitX=0.25;exitY=1;exitDx=0;exitDy=0;" parent="1" source="xyOO_spzbX_BqFr2w0Wo-338" target="xyOO_spzbX_BqFr2w0Wo-365" edge="1">
          <mxGeometry relative="1" as="geometry">
            <mxPoint x="622" y="573" as="sourcePoint" />
          </mxGeometry>
        </mxCell>
        <mxCell id="xyOO_spzbX_BqFr2w0Wo-365" value="属于" style="rhombus;whiteSpace=wrap;html=1;fillColor=#dae8fc;strokeColor=#6c8ebf;startSize=30;fontStyle=1;" parent="1" vertex="1">
          <mxGeometry x="579" y="610" width="80" height="80" as="geometry" />
        </mxCell>
        <mxCell id="xyOO_spzbX_BqFr2w0Wo-366" value="" style="edgeStyle=orthogonalEdgeStyle;rounded=0;orthogonalLoop=1;jettySize=auto;html=1;endArrow=classic;endFill=1;entryX=0.25;entryY=0;entryDx=0;entryDy=0;" parent="1" source="xyOO_spzbX_BqFr2w0Wo-365" target="xyOO_spzbX_BqFr2w0Wo-1" edge="1">
          <mxGeometry relative="1" as="geometry">
            <mxPoint x="513" y="353" as="sourcePoint" />
            <mxPoint x="1004" y="723" as="targetPoint" />
          </mxGeometry>
        </mxCell>
        <mxCell id="xyOO_spzbX_BqFr2w0Wo-368" value="Map2Dparams 地图参数" style="shape=table;startSize=30;container=1;collapsible=1;childLayout=tableLayout;fixedRows=1;rowLines=0;fontStyle=1;align=center;resizeLast=1;fillColor=#d5e8d4;strokeColor=#82b366;" parent="1" vertex="1">
          <mxGeometry x="882" y="183" width="230" height="320" as="geometry">
            <mxRectangle x="585" y="220" width="80" height="30" as="alternateBounds" />
          </mxGeometry>
        </mxCell>
        <mxCell id="xyOO_spzbX_BqFr2w0Wo-369" value="" style="shape=tableRow;horizontal=0;startSize=0;swimlaneHead=0;swimlaneBody=0;fillColor=none;collapsible=0;dropTarget=0;points=[[0,0.5],[1,0.5]];portConstraint=eastwest;top=0;left=0;right=0;bottom=1;" parent="xyOO_spzbX_BqFr2w0Wo-368" vertex="1">
          <mxGeometry y="30" width="230" height="30" as="geometry" />
        </mxCell>
        <mxCell id="xyOO_spzbX_BqFr2w0Wo-370" value="PK" style="shape=partialRectangle;connectable=0;fillColor=none;top=0;left=0;bottom=0;right=0;fontStyle=1;overflow=hidden;" parent="xyOO_spzbX_BqFr2w0Wo-369" vertex="1">
          <mxGeometry width="30" height="30" as="geometry">
            <mxRectangle width="30" height="30" as="alternateBounds" />
          </mxGeometry>
        </mxCell>
        <mxCell id="xyOO_spzbX_BqFr2w0Wo-371" value="uuid" style="shape=partialRectangle;connectable=0;fillColor=none;top=0;left=0;bottom=0;right=0;align=left;spacingLeft=6;fontStyle=5;overflow=hidden;" parent="xyOO_spzbX_BqFr2w0Wo-369" vertex="1">
          <mxGeometry x="30" width="200" height="30" as="geometry">
            <mxRectangle width="200" height="30" as="alternateBounds" />
          </mxGeometry>
        </mxCell>
        <mxCell id="xyOO_spzbX_BqFr2w0Wo-372" value="" style="shape=tableRow;horizontal=0;startSize=0;swimlaneHead=0;swimlaneBody=0;fillColor=none;collapsible=0;dropTarget=0;points=[[0,0.5],[1,0.5]];portConstraint=eastwest;top=0;left=0;right=0;bottom=0;" parent="xyOO_spzbX_BqFr2w0Wo-368" vertex="1">
          <mxGeometry y="60" width="230" height="20" as="geometry" />
        </mxCell>
        <mxCell id="xyOO_spzbX_BqFr2w0Wo-373" value="" style="shape=partialRectangle;connectable=0;fillColor=none;top=0;left=0;bottom=0;right=0;editable=1;overflow=hidden;" parent="xyOO_spzbX_BqFr2w0Wo-372" vertex="1">
          <mxGeometry width="30" height="20" as="geometry">
            <mxRectangle width="30" height="20" as="alternateBounds" />
          </mxGeometry>
        </mxCell>
        <mxCell id="xyOO_spzbX_BqFr2w0Wo-374" value="path [array] 路径" style="shape=partialRectangle;connectable=0;fillColor=none;top=0;left=0;bottom=0;right=0;align=left;spacingLeft=6;overflow=hidden;" parent="xyOO_spzbX_BqFr2w0Wo-372" vertex="1">
          <mxGeometry x="30" width="200" height="20" as="geometry">
            <mxRectangle width="200" height="20" as="alternateBounds" />
          </mxGeometry>
        </mxCell>
        <mxCell id="xyOO_spzbX_BqFr2w0Wo-375" value="" style="shape=tableRow;horizontal=0;startSize=0;swimlaneHead=0;swimlaneBody=0;fillColor=none;collapsible=0;dropTarget=0;points=[[0,0.5],[1,0.5]];portConstraint=eastwest;top=0;left=0;right=0;bottom=0;" parent="xyOO_spzbX_BqFr2w0Wo-368" vertex="1">
          <mxGeometry y="80" width="230" height="30" as="geometry" />
        </mxCell>
        <mxCell id="xyOO_spzbX_BqFr2w0Wo-376" value="" style="shape=partialRectangle;connectable=0;fillColor=none;top=0;left=0;bottom=0;right=0;editable=1;overflow=hidden;" parent="xyOO_spzbX_BqFr2w0Wo-375" vertex="1">
          <mxGeometry width="30" height="30" as="geometry">
            <mxRectangle width="30" height="30" as="alternateBounds" />
          </mxGeometry>
        </mxCell>
        <mxCell id="xyOO_spzbX_BqFr2w0Wo-377" value="map_2D_type [int2] 轮廓形状" style="shape=partialRectangle;connectable=0;fillColor=none;top=0;left=0;bottom=0;right=0;align=left;spacingLeft=6;overflow=hidden;" parent="xyOO_spzbX_BqFr2w0Wo-375" vertex="1">
          <mxGeometry x="30" width="200" height="30" as="geometry">
            <mxRectangle width="200" height="30" as="alternateBounds" />
          </mxGeometry>
        </mxCell>
        <mxCell id="xyOO_spzbX_BqFr2w0Wo-378" value="" style="shape=tableRow;horizontal=0;startSize=0;swimlaneHead=0;swimlaneBody=0;fillColor=none;collapsible=0;dropTarget=0;points=[[0,0.5],[1,0.5]];portConstraint=eastwest;top=0;left=0;right=0;bottom=0;" parent="xyOO_spzbX_BqFr2w0Wo-368" vertex="1">
          <mxGeometry y="110" width="230" height="30" as="geometry" />
        </mxCell>
        <mxCell id="xyOO_spzbX_BqFr2w0Wo-379" value="" style="shape=partialRectangle;connectable=0;fillColor=none;top=0;left=0;bottom=0;right=0;editable=1;overflow=hidden;" parent="xyOO_spzbX_BqFr2w0Wo-378" vertex="1">
          <mxGeometry width="30" height="30" as="geometry">
            <mxRectangle width="30" height="30" as="alternateBounds" />
          </mxGeometry>
        </mxCell>
        <mxCell id="xyOO_spzbX_BqFr2w0Wo-380" value="fill_color [text] 填充颜色" style="shape=partialRectangle;connectable=0;fillColor=none;top=0;left=0;bottom=0;right=0;align=left;spacingLeft=6;overflow=hidden;" parent="xyOO_spzbX_BqFr2w0Wo-378" vertex="1">
          <mxGeometry x="30" width="200" height="30" as="geometry">
            <mxRectangle width="200" height="30" as="alternateBounds" />
          </mxGeometry>
        </mxCell>
        <mxCell id="xyOO_spzbX_BqFr2w0Wo-381" style="shape=tableRow;horizontal=0;startSize=0;swimlaneHead=0;swimlaneBody=0;fillColor=none;collapsible=0;dropTarget=0;points=[[0,0.5],[1,0.5]];portConstraint=eastwest;top=0;left=0;right=0;bottom=0;" parent="xyOO_spzbX_BqFr2w0Wo-368" vertex="1">
          <mxGeometry y="140" width="230" height="30" as="geometry" />
        </mxCell>
        <mxCell id="xyOO_spzbX_BqFr2w0Wo-382" style="shape=partialRectangle;connectable=0;fillColor=none;top=0;left=0;bottom=0;right=0;editable=1;overflow=hidden;" parent="xyOO_spzbX_BqFr2w0Wo-381" vertex="1">
          <mxGeometry width="30" height="30" as="geometry">
            <mxRectangle width="30" height="30" as="alternateBounds" />
          </mxGeometry>
        </mxCell>
        <mxCell id="xyOO_spzbX_BqFr2w0Wo-383" value="stroke_color [text] 轮廓颜色" style="shape=partialRectangle;connectable=0;fillColor=none;top=0;left=0;bottom=0;right=0;align=left;spacingLeft=6;overflow=hidden;" parent="xyOO_spzbX_BqFr2w0Wo-381" vertex="1">
          <mxGeometry x="30" width="200" height="30" as="geometry">
            <mxRectangle width="200" height="30" as="alternateBounds" />
          </mxGeometry>
        </mxCell>
        <mxCell id="xyOO_spzbX_BqFr2w0Wo-384" style="shape=tableRow;horizontal=0;startSize=0;swimlaneHead=0;swimlaneBody=0;fillColor=none;collapsible=0;dropTarget=0;points=[[0,0.5],[1,0.5]];portConstraint=eastwest;top=0;left=0;right=0;bottom=0;" parent="xyOO_spzbX_BqFr2w0Wo-368" vertex="1">
          <mxGeometry y="170" width="230" height="30" as="geometry" />
        </mxCell>
        <mxCell id="xyOO_spzbX_BqFr2w0Wo-385" style="shape=partialRectangle;connectable=0;fillColor=none;top=0;left=0;bottom=0;right=0;editable=1;overflow=hidden;" parent="xyOO_spzbX_BqFr2w0Wo-384" vertex="1">
          <mxGeometry width="30" height="30" as="geometry">
            <mxRectangle width="30" height="30" as="alternateBounds" />
          </mxGeometry>
        </mxCell>
        <mxCell id="xyOO_spzbX_BqFr2w0Wo-386" value="left_top_lat [float] 西北纬度" style="shape=partialRectangle;connectable=0;fillColor=none;top=0;left=0;bottom=0;right=0;align=left;spacingLeft=6;overflow=hidden;" parent="xyOO_spzbX_BqFr2w0Wo-384" vertex="1">
          <mxGeometry x="30" width="200" height="30" as="geometry">
            <mxRectangle width="200" height="30" as="alternateBounds" />
          </mxGeometry>
        </mxCell>
        <mxCell id="xyOO_spzbX_BqFr2w0Wo-387" style="shape=tableRow;horizontal=0;startSize=0;swimlaneHead=0;swimlaneBody=0;fillColor=none;collapsible=0;dropTarget=0;points=[[0,0.5],[1,0.5]];portConstraint=eastwest;top=0;left=0;right=0;bottom=0;" parent="xyOO_spzbX_BqFr2w0Wo-368" vertex="1">
          <mxGeometry y="200" width="230" height="30" as="geometry" />
        </mxCell>
        <mxCell id="xyOO_spzbX_BqFr2w0Wo-388" style="shape=partialRectangle;connectable=0;fillColor=none;top=0;left=0;bottom=0;right=0;editable=1;overflow=hidden;" parent="xyOO_spzbX_BqFr2w0Wo-387" vertex="1">
          <mxGeometry width="30" height="30" as="geometry">
            <mxRectangle width="30" height="30" as="alternateBounds" />
          </mxGeometry>
        </mxCell>
        <mxCell id="xyOO_spzbX_BqFr2w0Wo-389" value="left_top_lng [float] 西北经度" style="shape=partialRectangle;connectable=0;fillColor=none;top=0;left=0;bottom=0;right=0;align=left;spacingLeft=6;overflow=hidden;" parent="xyOO_spzbX_BqFr2w0Wo-387" vertex="1">
          <mxGeometry x="30" width="200" height="30" as="geometry">
            <mxRectangle width="200" height="30" as="alternateBounds" />
          </mxGeometry>
        </mxCell>
        <mxCell id="xyOO_spzbX_BqFr2w0Wo-390" style="shape=tableRow;horizontal=0;startSize=0;swimlaneHead=0;swimlaneBody=0;fillColor=none;collapsible=0;dropTarget=0;points=[[0,0.5],[1,0.5]];portConstraint=eastwest;top=0;left=0;right=0;bottom=0;" parent="xyOO_spzbX_BqFr2w0Wo-368" vertex="1">
          <mxGeometry y="230" width="230" height="30" as="geometry" />
        </mxCell>
        <mxCell id="xyOO_spzbX_BqFr2w0Wo-391" style="shape=partialRectangle;connectable=0;fillColor=none;top=0;left=0;bottom=0;right=0;editable=1;overflow=hidden;" parent="xyOO_spzbX_BqFr2w0Wo-390" vertex="1">
          <mxGeometry width="30" height="30" as="geometry">
            <mxRectangle width="30" height="30" as="alternateBounds" />
          </mxGeometry>
        </mxCell>
        <mxCell id="xyOO_spzbX_BqFr2w0Wo-392" value="right_bottom_lat [float] 东南纬度" style="shape=partialRectangle;connectable=0;fillColor=none;top=0;left=0;bottom=0;right=0;align=left;spacingLeft=6;overflow=hidden;" parent="xyOO_spzbX_BqFr2w0Wo-390" vertex="1">
          <mxGeometry x="30" width="200" height="30" as="geometry">
            <mxRectangle width="200" height="30" as="alternateBounds" />
          </mxGeometry>
        </mxCell>
        <mxCell id="xyOO_spzbX_BqFr2w0Wo-399" style="shape=tableRow;horizontal=0;startSize=0;swimlaneHead=0;swimlaneBody=0;fillColor=none;collapsible=0;dropTarget=0;points=[[0,0.5],[1,0.5]];portConstraint=eastwest;top=0;left=0;right=0;bottom=0;" parent="xyOO_spzbX_BqFr2w0Wo-368" vertex="1">
          <mxGeometry y="260" width="230" height="30" as="geometry" />
        </mxCell>
        <mxCell id="xyOO_spzbX_BqFr2w0Wo-400" style="shape=partialRectangle;connectable=0;fillColor=none;top=0;left=0;bottom=0;right=0;editable=1;overflow=hidden;" parent="xyOO_spzbX_BqFr2w0Wo-399" vertex="1">
          <mxGeometry width="30" height="30" as="geometry">
            <mxRectangle width="30" height="30" as="alternateBounds" />
          </mxGeometry>
        </mxCell>
        <mxCell id="xyOO_spzbX_BqFr2w0Wo-401" value="right_bottom_lng [float] 东南经度" style="shape=partialRectangle;connectable=0;fillColor=none;top=0;left=0;bottom=0;right=0;align=left;spacingLeft=6;overflow=hidden;" parent="xyOO_spzbX_BqFr2w0Wo-399" vertex="1">
          <mxGeometry x="30" width="200" height="30" as="geometry">
            <mxRectangle width="200" height="30" as="alternateBounds" />
          </mxGeometry>
        </mxCell>
        <mxCell id="xyOO_spzbX_BqFr2w0Wo-402" style="shape=tableRow;horizontal=0;startSize=0;swimlaneHead=0;swimlaneBody=0;fillColor=none;collapsible=0;dropTarget=0;points=[[0,0.5],[1,0.5]];portConstraint=eastwest;top=0;left=0;right=0;bottom=0;" parent="xyOO_spzbX_BqFr2w0Wo-368" vertex="1">
          <mxGeometry y="290" width="230" height="30" as="geometry" />
        </mxCell>
        <mxCell id="xyOO_spzbX_BqFr2w0Wo-403" style="shape=partialRectangle;connectable=0;fillColor=none;top=0;left=0;bottom=0;right=0;editable=1;overflow=hidden;" parent="xyOO_spzbX_BqFr2w0Wo-402" vertex="1">
          <mxGeometry width="30" height="30" as="geometry">
            <mxRectangle width="30" height="30" as="alternateBounds" />
          </mxGeometry>
        </mxCell>
        <mxCell id="xyOO_spzbX_BqFr2w0Wo-404" value="isZone [bool] 是否位厂区参数" style="shape=partialRectangle;connectable=0;fillColor=none;top=0;left=0;bottom=0;right=0;align=left;spacingLeft=6;overflow=hidden;" parent="xyOO_spzbX_BqFr2w0Wo-402" vertex="1">
          <mxGeometry x="30" width="200" height="30" as="geometry">
            <mxRectangle width="200" height="30" as="alternateBounds" />
          </mxGeometry>
        </mxCell>
        <mxCell id="xyOO_spzbX_BqFr2w0Wo-394" value="" style="edgeStyle=orthogonalEdgeStyle;rounded=0;orthogonalLoop=1;jettySize=auto;html=1;endArrow=none;endFill=0;exitX=0;exitY=0.5;exitDx=0;exitDy=0;" parent="1" source="xyOO_spzbX_BqFr2w0Wo-372" target="xyOO_spzbX_BqFr2w0Wo-395" edge="1">
          <mxGeometry relative="1" as="geometry">
            <mxPoint x="1008.5" y="558" as="sourcePoint" />
          </mxGeometry>
        </mxCell>
        <mxCell id="xyOO_spzbX_BqFr2w0Wo-395" value="属于" style="rhombus;whiteSpace=wrap;html=1;fillColor=#dae8fc;strokeColor=#6c8ebf;startSize=30;fontStyle=1;" parent="1" vertex="1">
          <mxGeometry x="749" y="213" width="80" height="80" as="geometry" />
        </mxCell>
        <mxCell id="xyOO_spzbX_BqFr2w0Wo-396" value="" style="edgeStyle=orthogonalEdgeStyle;rounded=0;orthogonalLoop=1;jettySize=auto;html=1;endArrow=classic;endFill=1;exitX=0;exitY=0.5;exitDx=0;exitDy=0;entryX=0.5;entryY=0;entryDx=0;entryDy=0;" parent="1" source="xyOO_spzbX_BqFr2w0Wo-395" target="xyOO_spzbX_BqFr2w0Wo-338" edge="1">
          <mxGeometry relative="1" as="geometry">
            <mxPoint x="728.5" y="528" as="sourcePoint" />
            <mxPoint x="1055.75" y="403" as="targetPoint" />
          </mxGeometry>
        </mxCell>
        <mxCell id="xyOO_spzbX_BqFr2w0Wo-411" value="属于" style="rhombus;whiteSpace=wrap;html=1;fillColor=#e1d5e7;strokeColor=#9673a6;startSize=30;fontStyle=1;" parent="1" vertex="1">
          <mxGeometry x="749" y="213" width="80" height="80" as="geometry" />
        </mxCell>
        <mxCell id="xyOO_spzbX_BqFr2w0Wo-412" value="" style="edgeStyle=orthogonalEdgeStyle;rounded=0;orthogonalLoop=1;jettySize=auto;html=1;endArrow=none;endFill=0;exitX=0;exitY=0.5;exitDx=0;exitDy=0;" parent="1" target="xyOO_spzbX_BqFr2w0Wo-411" edge="1">
          <mxGeometry relative="1" as="geometry">
            <mxPoint x="882" y="253" as="sourcePoint" />
          </mxGeometry>
        </mxCell>
        <mxCell id="xyOO_spzbX_BqFr2w0Wo-413" value="" style="edgeStyle=orthogonalEdgeStyle;rounded=0;orthogonalLoop=1;jettySize=auto;html=1;endArrow=classic;endFill=1;exitX=0;exitY=0.5;exitDx=0;exitDy=0;entryX=0.5;entryY=0;entryDx=0;entryDy=0;" parent="1" source="xyOO_spzbX_BqFr2w0Wo-411" edge="1">
          <mxGeometry relative="1" as="geometry">
            <mxPoint x="728.5" y="528" as="sourcePoint" />
            <mxPoint x="688.9999999999998" y="298" as="targetPoint" />
          </mxGeometry>
        </mxCell>
        <mxCell id="xyOO_spzbX_BqFr2w0Wo-414" value="RiskArea 风险区域" style="shape=table;startSize=26;container=1;collapsible=1;childLayout=tableLayout;fixedRows=1;rowLines=0;fontStyle=1;align=center;resizeLast=1;fillColor=#d5e8d4;strokeColor=#82b366;" parent="1" vertex="1">
          <mxGeometry x="1149" y="100" width="230" height="230" as="geometry">
            <mxRectangle x="585" y="220" width="80" height="30" as="alternateBounds" />
          </mxGeometry>
        </mxCell>
        <mxCell id="xyOO_spzbX_BqFr2w0Wo-415" value="" style="shape=tableRow;horizontal=0;startSize=0;swimlaneHead=0;swimlaneBody=0;fillColor=none;collapsible=0;dropTarget=0;points=[[0,0.5],[1,0.5]];portConstraint=eastwest;top=0;left=0;right=0;bottom=1;" parent="xyOO_spzbX_BqFr2w0Wo-414" vertex="1">
          <mxGeometry y="26" width="230" height="30" as="geometry" />
        </mxCell>
        <mxCell id="xyOO_spzbX_BqFr2w0Wo-416" value="PK" style="shape=partialRectangle;connectable=0;fillColor=none;top=0;left=0;bottom=0;right=0;fontStyle=1;overflow=hidden;" parent="xyOO_spzbX_BqFr2w0Wo-415" vertex="1">
          <mxGeometry width="30" height="30" as="geometry">
            <mxRectangle width="30" height="30" as="alternateBounds" />
          </mxGeometry>
        </mxCell>
        <mxCell id="xyOO_spzbX_BqFr2w0Wo-417" value="uuid" style="shape=partialRectangle;connectable=0;fillColor=none;top=0;left=0;bottom=0;right=0;align=left;spacingLeft=6;fontStyle=5;overflow=hidden;" parent="xyOO_spzbX_BqFr2w0Wo-415" vertex="1">
          <mxGeometry x="30" width="200" height="30" as="geometry">
            <mxRectangle width="200" height="30" as="alternateBounds" />
          </mxGeometry>
        </mxCell>
        <mxCell id="xyOO_spzbX_BqFr2w0Wo-418" value="" style="shape=tableRow;horizontal=0;startSize=0;swimlaneHead=0;swimlaneBody=0;fillColor=none;collapsible=0;dropTarget=0;points=[[0,0.5],[1,0.5]];portConstraint=eastwest;top=0;left=0;right=0;bottom=0;" parent="xyOO_spzbX_BqFr2w0Wo-414" vertex="1">
          <mxGeometry y="56" width="230" height="20" as="geometry" />
        </mxCell>
        <mxCell id="xyOO_spzbX_BqFr2w0Wo-419" value="" style="shape=partialRectangle;connectable=0;fillColor=none;top=0;left=0;bottom=0;right=0;editable=1;overflow=hidden;" parent="xyOO_spzbX_BqFr2w0Wo-418" vertex="1">
          <mxGeometry width="30" height="20" as="geometry">
            <mxRectangle width="30" height="20" as="alternateBounds" />
          </mxGeometry>
        </mxCell>
        <mxCell id="xyOO_spzbX_BqFr2w0Wo-420" value="name [text] 风险区域名称" style="shape=partialRectangle;connectable=0;fillColor=none;top=0;left=0;bottom=0;right=0;align=left;spacingLeft=6;overflow=hidden;" parent="xyOO_spzbX_BqFr2w0Wo-418" vertex="1">
          <mxGeometry x="30" width="200" height="20" as="geometry">
            <mxRectangle width="200" height="20" as="alternateBounds" />
          </mxGeometry>
        </mxCell>
        <mxCell id="xyOO_spzbX_BqFr2w0Wo-421" value="" style="shape=tableRow;horizontal=0;startSize=0;swimlaneHead=0;swimlaneBody=0;fillColor=none;collapsible=0;dropTarget=0;points=[[0,0.5],[1,0.5]];portConstraint=eastwest;top=0;left=0;right=0;bottom=0;" parent="xyOO_spzbX_BqFr2w0Wo-414" vertex="1">
          <mxGeometry y="76" width="230" height="30" as="geometry" />
        </mxCell>
        <mxCell id="xyOO_spzbX_BqFr2w0Wo-422" value="" style="shape=partialRectangle;connectable=0;fillColor=none;top=0;left=0;bottom=0;right=0;editable=1;overflow=hidden;" parent="xyOO_spzbX_BqFr2w0Wo-421" vertex="1">
          <mxGeometry width="30" height="30" as="geometry">
            <mxRectangle width="30" height="30" as="alternateBounds" />
          </mxGeometry>
        </mxCell>
        <mxCell id="xyOO_spzbX_BqFr2w0Wo-423" value="description [text] 风险区域描述" style="shape=partialRectangle;connectable=0;fillColor=none;top=0;left=0;bottom=0;right=0;align=left;spacingLeft=6;overflow=hidden;" parent="xyOO_spzbX_BqFr2w0Wo-421" vertex="1">
          <mxGeometry x="30" width="200" height="30" as="geometry">
            <mxRectangle width="200" height="30" as="alternateBounds" />
          </mxGeometry>
        </mxCell>
        <mxCell id="xyOO_spzbX_BqFr2w0Wo-424" value="" style="shape=tableRow;horizontal=0;startSize=0;swimlaneHead=0;swimlaneBody=0;fillColor=none;collapsible=0;dropTarget=0;points=[[0,0.5],[1,0.5]];portConstraint=eastwest;top=0;left=0;right=0;bottom=0;" parent="xyOO_spzbX_BqFr2w0Wo-414" vertex="1">
          <mxGeometry y="106" width="230" height="30" as="geometry" />
        </mxCell>
        <mxCell id="xyOO_spzbX_BqFr2w0Wo-425" value="" style="shape=partialRectangle;connectable=0;fillColor=none;top=0;left=0;bottom=0;right=0;editable=1;overflow=hidden;" parent="xyOO_spzbX_BqFr2w0Wo-424" vertex="1">
          <mxGeometry width="30" height="30" as="geometry">
            <mxRectangle width="30" height="30" as="alternateBounds" />
          </mxGeometry>
        </mxCell>
        <mxCell id="xyOO_spzbX_BqFr2w0Wo-426" value="code [text] 风险区域代码" style="shape=partialRectangle;connectable=0;fillColor=none;top=0;left=0;bottom=0;right=0;align=left;spacingLeft=6;overflow=hidden;" parent="xyOO_spzbX_BqFr2w0Wo-424" vertex="1">
          <mxGeometry x="30" width="200" height="30" as="geometry">
            <mxRectangle width="200" height="30" as="alternateBounds" />
          </mxGeometry>
        </mxCell>
        <mxCell id="xyOO_spzbX_BqFr2w0Wo-427" style="shape=tableRow;horizontal=0;startSize=0;swimlaneHead=0;swimlaneBody=0;fillColor=none;collapsible=0;dropTarget=0;points=[[0,0.5],[1,0.5]];portConstraint=eastwest;top=0;left=0;right=0;bottom=0;" parent="xyOO_spzbX_BqFr2w0Wo-414" vertex="1">
          <mxGeometry y="136" width="230" height="30" as="geometry" />
        </mxCell>
        <mxCell id="xyOO_spzbX_BqFr2w0Wo-428" style="shape=partialRectangle;connectable=0;fillColor=none;top=0;left=0;bottom=0;right=0;editable=1;overflow=hidden;" parent="xyOO_spzbX_BqFr2w0Wo-427" vertex="1">
          <mxGeometry width="30" height="30" as="geometry">
            <mxRectangle width="30" height="30" as="alternateBounds" />
          </mxGeometry>
        </mxCell>
        <mxCell id="xyOO_spzbX_BqFr2w0Wo-429" value="color [text] 风险区域颜色" style="shape=partialRectangle;connectable=0;fillColor=none;top=0;left=0;bottom=0;right=0;align=left;spacingLeft=6;overflow=hidden;" parent="xyOO_spzbX_BqFr2w0Wo-427" vertex="1">
          <mxGeometry x="30" width="200" height="30" as="geometry">
            <mxRectangle width="200" height="30" as="alternateBounds" />
          </mxGeometry>
        </mxCell>
        <mxCell id="xyOO_spzbX_BqFr2w0Wo-436" style="shape=tableRow;horizontal=0;startSize=0;swimlaneHead=0;swimlaneBody=0;fillColor=none;collapsible=0;dropTarget=0;points=[[0,0.5],[1,0.5]];portConstraint=eastwest;top=0;left=0;right=0;bottom=0;" parent="xyOO_spzbX_BqFr2w0Wo-414" vertex="1">
          <mxGeometry y="166" width="230" height="30" as="geometry" />
        </mxCell>
        <mxCell id="xyOO_spzbX_BqFr2w0Wo-437" style="shape=partialRectangle;connectable=0;fillColor=none;top=0;left=0;bottom=0;right=0;editable=1;overflow=hidden;" parent="xyOO_spzbX_BqFr2w0Wo-436" vertex="1">
          <mxGeometry width="30" height="30" as="geometry">
            <mxRectangle width="30" height="30" as="alternateBounds" />
          </mxGeometry>
        </mxCell>
        <mxCell id="xyOO_spzbX_BqFr2w0Wo-438" value="comment [text] 备注" style="shape=partialRectangle;connectable=0;fillColor=none;top=0;left=0;bottom=0;right=0;align=left;spacingLeft=6;overflow=hidden;" parent="xyOO_spzbX_BqFr2w0Wo-436" vertex="1">
          <mxGeometry x="30" width="200" height="30" as="geometry">
            <mxRectangle width="200" height="30" as="alternateBounds" />
          </mxGeometry>
        </mxCell>
        <mxCell id="xyOO_spzbX_BqFr2w0Wo-442" style="shape=tableRow;horizontal=0;startSize=0;swimlaneHead=0;swimlaneBody=0;fillColor=none;collapsible=0;dropTarget=0;points=[[0,0.5],[1,0.5]];portConstraint=eastwest;top=0;left=0;right=0;bottom=0;" parent="xyOO_spzbX_BqFr2w0Wo-414" vertex="1">
          <mxGeometry y="196" width="230" height="30" as="geometry" />
        </mxCell>
        <mxCell id="xyOO_spzbX_BqFr2w0Wo-443" style="shape=partialRectangle;connectable=0;fillColor=none;top=0;left=0;bottom=0;right=0;editable=1;overflow=hidden;" parent="xyOO_spzbX_BqFr2w0Wo-442" vertex="1">
          <mxGeometry width="30" height="30" as="geometry">
            <mxRectangle width="30" height="30" as="alternateBounds" />
          </mxGeometry>
        </mxCell>
        <mxCell id="xyOO_spzbX_BqFr2w0Wo-444" value="attribute [json] 其他" style="shape=partialRectangle;connectable=0;fillColor=none;top=0;left=0;bottom=0;right=0;align=left;spacingLeft=6;overflow=hidden;" parent="xyOO_spzbX_BqFr2w0Wo-442" vertex="1">
          <mxGeometry x="30" width="200" height="30" as="geometry">
            <mxRectangle width="200" height="30" as="alternateBounds" />
          </mxGeometry>
        </mxCell>
        <mxCell id="xyOO_spzbX_BqFr2w0Wo-446" value="属于" style="rhombus;whiteSpace=wrap;html=1;fillColor=#e1d5e7;strokeColor=#9673a6;startSize=30;fontStyle=1;" parent="1" vertex="1">
          <mxGeometry x="1092" y="513" width="80" height="80" as="geometry" />
        </mxCell>
        <mxCell id="xyOO_spzbX_BqFr2w0Wo-447" value="" style="edgeStyle=orthogonalEdgeStyle;rounded=0;orthogonalLoop=1;jettySize=auto;html=1;endArrow=none;endFill=0;entryX=1;entryY=0.5;entryDx=0;entryDy=0;exitX=0.25;exitY=1;exitDx=0;exitDy=0;" parent="1" source="xyOO_spzbX_BqFr2w0Wo-414" target="xyOO_spzbX_BqFr2w0Wo-446" edge="1">
          <mxGeometry relative="1" as="geometry">
            <mxPoint x="1272" y="533" as="sourcePoint" />
          </mxGeometry>
        </mxCell>
        <mxCell id="xyOO_spzbX_BqFr2w0Wo-448" value="" style="edgeStyle=orthogonalEdgeStyle;rounded=0;orthogonalLoop=1;jettySize=auto;html=1;endArrow=classic;endFill=1;exitX=0;exitY=0.5;exitDx=0;exitDy=0;entryX=1;entryY=0.5;entryDx=0;entryDy=0;" parent="1" source="xyOO_spzbX_BqFr2w0Wo-446" target="xyOO_spzbX_BqFr2w0Wo-360" edge="1">
          <mxGeometry relative="1" as="geometry">
            <mxPoint x="887.5" y="878" as="sourcePoint" />
            <mxPoint x="847.9999999999998" y="648" as="targetPoint" />
          </mxGeometry>
        </mxCell>
        <mxCell id="xyOO_spzbX_BqFr2w0Wo-452" value="属于" style="rhombus;whiteSpace=wrap;html=1;fillColor=#ffe6cc;strokeColor=#d79b00;startSize=30;fontStyle=1;" parent="1" vertex="1">
          <mxGeometry x="1017" y="101" width="80" height="80" as="geometry" />
        </mxCell>
        <mxCell id="xyOO_spzbX_BqFr2w0Wo-453" value="" style="edgeStyle=orthogonalEdgeStyle;rounded=0;orthogonalLoop=1;jettySize=auto;html=1;endArrow=none;endFill=0;exitX=0.5;exitY=0;exitDx=0;exitDy=0;entryX=0;entryY=0.5;entryDx=0;entryDy=0;" parent="1" source="xyOO_spzbX_BqFr2w0Wo-368" target="xyOO_spzbX_BqFr2w0Wo-452" edge="1">
          <mxGeometry relative="1" as="geometry">
            <mxPoint x="1225" y="123" as="sourcePoint" />
          </mxGeometry>
        </mxCell>
        <mxCell id="xyOO_spzbX_BqFr2w0Wo-454" value="" style="edgeStyle=orthogonalEdgeStyle;rounded=0;orthogonalLoop=1;jettySize=auto;html=1;endArrow=classic;endFill=1;entryX=0;entryY=0.5;entryDx=0;entryDy=0;exitX=1;exitY=0.5;exitDx=0;exitDy=0;" parent="1" source="xyOO_spzbX_BqFr2w0Wo-452" target="xyOO_spzbX_BqFr2w0Wo-415" edge="1">
          <mxGeometry relative="1" as="geometry">
            <mxPoint x="1071.5" y="398" as="sourcePoint" />
            <mxPoint x="1032" y="168" as="targetPoint" />
          </mxGeometry>
        </mxCell>
        <mxCell id="xyOO_spzbX_BqFr2w0Wo-455" value="PlanManagement 风险分级计划" style="shape=table;startSize=30;container=1;collapsible=1;childLayout=tableLayout;fixedRows=1;rowLines=0;fontStyle=1;align=center;resizeLast=1;fillColor=#f8cecc;strokeColor=#b85450;" parent="1" vertex="1">
          <mxGeometry x="1232" y="343" width="280" height="520" as="geometry">
            <mxRectangle x="585" y="220" width="80" height="30" as="alternateBounds" />
          </mxGeometry>
        </mxCell>
        <mxCell id="xyOO_spzbX_BqFr2w0Wo-456" value="" style="shape=tableRow;horizontal=0;startSize=0;swimlaneHead=0;swimlaneBody=0;fillColor=none;collapsible=0;dropTarget=0;points=[[0,0.5],[1,0.5]];portConstraint=eastwest;top=0;left=0;right=0;bottom=1;" parent="xyOO_spzbX_BqFr2w0Wo-455" vertex="1">
          <mxGeometry y="30" width="280" height="30" as="geometry" />
        </mxCell>
        <mxCell id="xyOO_spzbX_BqFr2w0Wo-457" value="PK" style="shape=partialRectangle;connectable=0;fillColor=none;top=0;left=0;bottom=0;right=0;fontStyle=1;overflow=hidden;" parent="xyOO_spzbX_BqFr2w0Wo-456" vertex="1">
          <mxGeometry width="30" height="30" as="geometry">
            <mxRectangle width="30" height="30" as="alternateBounds" />
          </mxGeometry>
        </mxCell>
        <mxCell id="xyOO_spzbX_BqFr2w0Wo-458" value="uuid" style="shape=partialRectangle;connectable=0;fillColor=none;top=0;left=0;bottom=0;right=0;align=left;spacingLeft=6;fontStyle=5;overflow=hidden;" parent="xyOO_spzbX_BqFr2w0Wo-456" vertex="1">
          <mxGeometry x="30" width="250" height="30" as="geometry">
            <mxRectangle width="250" height="30" as="alternateBounds" />
          </mxGeometry>
        </mxCell>
        <mxCell id="xyOO_spzbX_BqFr2w0Wo-459" value="" style="shape=tableRow;horizontal=0;startSize=0;swimlaneHead=0;swimlaneBody=0;fillColor=none;collapsible=0;dropTarget=0;points=[[0,0.5],[1,0.5]];portConstraint=eastwest;top=0;left=0;right=0;bottom=0;" parent="xyOO_spzbX_BqFr2w0Wo-455" vertex="1">
          <mxGeometry y="60" width="280" height="30" as="geometry" />
        </mxCell>
        <mxCell id="xyOO_spzbX_BqFr2w0Wo-460" value="" style="shape=partialRectangle;connectable=0;fillColor=none;top=0;left=0;bottom=0;right=0;editable=1;overflow=hidden;" parent="xyOO_spzbX_BqFr2w0Wo-459" vertex="1">
          <mxGeometry width="30" height="30" as="geometry">
            <mxRectangle width="30" height="30" as="alternateBounds" />
          </mxGeometry>
        </mxCell>
        <mxCell id="xyOO_spzbX_BqFr2w0Wo-461" value="name [text] 计划项目名称" style="shape=partialRectangle;connectable=0;fillColor=none;top=0;left=0;bottom=0;right=0;align=left;spacingLeft=6;overflow=hidden;" parent="xyOO_spzbX_BqFr2w0Wo-459" vertex="1">
          <mxGeometry x="30" width="250" height="30" as="geometry">
            <mxRectangle width="250" height="30" as="alternateBounds" />
          </mxGeometry>
        </mxCell>
        <mxCell id="xyOO_spzbX_BqFr2w0Wo-462" value="" style="shape=tableRow;horizontal=0;startSize=0;swimlaneHead=0;swimlaneBody=0;fillColor=none;collapsible=0;dropTarget=0;points=[[0,0.5],[1,0.5]];portConstraint=eastwest;top=0;left=0;right=0;bottom=0;" parent="xyOO_spzbX_BqFr2w0Wo-455" vertex="1">
          <mxGeometry y="90" width="280" height="30" as="geometry" />
        </mxCell>
        <mxCell id="xyOO_spzbX_BqFr2w0Wo-463" value="" style="shape=partialRectangle;connectable=0;fillColor=none;top=0;left=0;bottom=0;right=0;editable=1;overflow=hidden;" parent="xyOO_spzbX_BqFr2w0Wo-462" vertex="1">
          <mxGeometry width="30" height="30" as="geometry">
            <mxRectangle width="30" height="30" as="alternateBounds" />
          </mxGeometry>
        </mxCell>
        <mxCell id="xyOO_spzbX_BqFr2w0Wo-464" value="code [text] 计划项目代码" style="shape=partialRectangle;connectable=0;fillColor=none;top=0;left=0;bottom=0;right=0;align=left;spacingLeft=6;overflow=hidden;" parent="xyOO_spzbX_BqFr2w0Wo-462" vertex="1">
          <mxGeometry x="30" width="250" height="30" as="geometry">
            <mxRectangle width="250" height="30" as="alternateBounds" />
          </mxGeometry>
        </mxCell>
        <mxCell id="xyOO_spzbX_BqFr2w0Wo-465" value="" style="shape=tableRow;horizontal=0;startSize=0;swimlaneHead=0;swimlaneBody=0;fillColor=none;collapsible=0;dropTarget=0;points=[[0,0.5],[1,0.5]];portConstraint=eastwest;top=0;left=0;right=0;bottom=0;" parent="xyOO_spzbX_BqFr2w0Wo-455" vertex="1">
          <mxGeometry y="120" width="280" height="30" as="geometry" />
        </mxCell>
        <mxCell id="xyOO_spzbX_BqFr2w0Wo-466" value="" style="shape=partialRectangle;connectable=0;fillColor=none;top=0;left=0;bottom=0;right=0;editable=1;overflow=hidden;" parent="xyOO_spzbX_BqFr2w0Wo-465" vertex="1">
          <mxGeometry width="30" height="30" as="geometry">
            <mxRectangle width="30" height="30" as="alternateBounds" />
          </mxGeometry>
        </mxCell>
        <mxCell id="xyOO_spzbX_BqFr2w0Wo-467" value="plan_type [text] 计划项目类型" style="shape=partialRectangle;connectable=0;fillColor=none;top=0;left=0;bottom=0;right=0;align=left;spacingLeft=6;overflow=hidden;" parent="xyOO_spzbX_BqFr2w0Wo-465" vertex="1">
          <mxGeometry x="30" width="250" height="30" as="geometry">
            <mxRectangle width="250" height="30" as="alternateBounds" />
          </mxGeometry>
        </mxCell>
        <mxCell id="xyOO_spzbX_BqFr2w0Wo-468" style="shape=tableRow;horizontal=0;startSize=0;swimlaneHead=0;swimlaneBody=0;fillColor=none;collapsible=0;dropTarget=0;points=[[0,0.5],[1,0.5]];portConstraint=eastwest;top=0;left=0;right=0;bottom=0;" parent="xyOO_spzbX_BqFr2w0Wo-455" vertex="1">
          <mxGeometry y="150" width="280" height="30" as="geometry" />
        </mxCell>
        <mxCell id="xyOO_spzbX_BqFr2w0Wo-469" style="shape=partialRectangle;connectable=0;fillColor=none;top=0;left=0;bottom=0;right=0;editable=1;overflow=hidden;" parent="xyOO_spzbX_BqFr2w0Wo-468" vertex="1">
          <mxGeometry width="30" height="30" as="geometry">
            <mxRectangle width="30" height="30" as="alternateBounds" />
          </mxGeometry>
        </mxCell>
        <mxCell id="xyOO_spzbX_BqFr2w0Wo-470" value="analysis_method [int2] 分析方法" style="shape=partialRectangle;connectable=0;fillColor=none;top=0;left=0;bottom=0;right=0;align=left;spacingLeft=6;overflow=hidden;" parent="xyOO_spzbX_BqFr2w0Wo-468" vertex="1">
          <mxGeometry x="30" width="250" height="30" as="geometry">
            <mxRectangle width="250" height="30" as="alternateBounds" />
          </mxGeometry>
        </mxCell>
        <mxCell id="xyOO_spzbX_BqFr2w0Wo-471" style="shape=tableRow;horizontal=0;startSize=0;swimlaneHead=0;swimlaneBody=0;fillColor=none;collapsible=0;dropTarget=0;points=[[0,0.5],[1,0.5]];portConstraint=eastwest;top=0;left=0;right=0;bottom=0;" parent="xyOO_spzbX_BqFr2w0Wo-455" vertex="1">
          <mxGeometry y="180" width="280" height="30" as="geometry" />
        </mxCell>
        <mxCell id="xyOO_spzbX_BqFr2w0Wo-472" style="shape=partialRectangle;connectable=0;fillColor=none;top=0;left=0;bottom=0;right=0;editable=1;overflow=hidden;" parent="xyOO_spzbX_BqFr2w0Wo-471" vertex="1">
          <mxGeometry width="30" height="30" as="geometry">
            <mxRectangle width="30" height="30" as="alternateBounds" />
          </mxGeometry>
        </mxCell>
        <mxCell id="xyOO_spzbX_BqFr2w0Wo-473" value="evaluate_method [int2] 风险评估方法" style="shape=partialRectangle;connectable=0;fillColor=none;top=0;left=0;bottom=0;right=0;align=left;spacingLeft=6;overflow=hidden;" parent="xyOO_spzbX_BqFr2w0Wo-471" vertex="1">
          <mxGeometry x="30" width="250" height="30" as="geometry">
            <mxRectangle width="250" height="30" as="alternateBounds" />
          </mxGeometry>
        </mxCell>
        <mxCell id="xyOO_spzbX_BqFr2w0Wo-489" style="shape=tableRow;horizontal=0;startSize=0;swimlaneHead=0;swimlaneBody=0;fillColor=none;collapsible=0;dropTarget=0;points=[[0,0.5],[1,0.5]];portConstraint=eastwest;top=0;left=0;right=0;bottom=0;" parent="xyOO_spzbX_BqFr2w0Wo-455" vertex="1">
          <mxGeometry y="210" width="280" height="30" as="geometry" />
        </mxCell>
        <mxCell id="xyOO_spzbX_BqFr2w0Wo-490" style="shape=partialRectangle;connectable=0;fillColor=none;top=0;left=0;bottom=0;right=0;editable=1;overflow=hidden;" parent="xyOO_spzbX_BqFr2w0Wo-489" vertex="1">
          <mxGeometry width="30" height="30" as="geometry">
            <mxRectangle width="30" height="30" as="alternateBounds" />
          </mxGeometry>
        </mxCell>
        <mxCell id="xyOO_spzbX_BqFr2w0Wo-491" value="area_to_check [text] 分级管控范围" style="shape=partialRectangle;connectable=0;fillColor=none;top=0;left=0;bottom=0;right=0;align=left;spacingLeft=6;overflow=hidden;" parent="xyOO_spzbX_BqFr2w0Wo-489" vertex="1">
          <mxGeometry x="30" width="250" height="30" as="geometry">
            <mxRectangle width="250" height="30" as="alternateBounds" />
          </mxGeometry>
        </mxCell>
        <mxCell id="xyOO_spzbX_BqFr2w0Wo-486" style="shape=tableRow;horizontal=0;startSize=0;swimlaneHead=0;swimlaneBody=0;fillColor=none;collapsible=0;dropTarget=0;points=[[0,0.5],[1,0.5]];portConstraint=eastwest;top=0;left=0;right=0;bottom=0;" parent="xyOO_spzbX_BqFr2w0Wo-455" vertex="1">
          <mxGeometry y="240" width="280" height="30" as="geometry" />
        </mxCell>
        <mxCell id="xyOO_spzbX_BqFr2w0Wo-487" style="shape=partialRectangle;connectable=0;fillColor=none;top=0;left=0;bottom=0;right=0;editable=1;overflow=hidden;" parent="xyOO_spzbX_BqFr2w0Wo-486" vertex="1">
          <mxGeometry width="30" height="30" as="geometry">
            <mxRectangle width="30" height="30" as="alternateBounds" />
          </mxGeometry>
        </mxCell>
        <mxCell id="xyOO_spzbX_BqFr2w0Wo-488" value="check_purpose [text] 工作目的" style="shape=partialRectangle;connectable=0;fillColor=none;top=0;left=0;bottom=0;right=0;align=left;spacingLeft=6;overflow=hidden;" parent="xyOO_spzbX_BqFr2w0Wo-486" vertex="1">
          <mxGeometry x="30" width="250" height="30" as="geometry">
            <mxRectangle width="250" height="30" as="alternateBounds" />
          </mxGeometry>
        </mxCell>
        <mxCell id="xyOO_spzbX_BqFr2w0Wo-498" style="shape=tableRow;horizontal=0;startSize=0;swimlaneHead=0;swimlaneBody=0;fillColor=none;collapsible=0;dropTarget=0;points=[[0,0.5],[1,0.5]];portConstraint=eastwest;top=0;left=0;right=0;bottom=0;" parent="xyOO_spzbX_BqFr2w0Wo-455" vertex="1">
          <mxGeometry y="270" width="280" height="30" as="geometry" />
        </mxCell>
        <mxCell id="xyOO_spzbX_BqFr2w0Wo-499" style="shape=partialRectangle;connectable=0;fillColor=none;top=0;left=0;bottom=0;right=0;editable=1;overflow=hidden;" parent="xyOO_spzbX_BqFr2w0Wo-498" vertex="1">
          <mxGeometry width="30" height="30" as="geometry">
            <mxRectangle width="30" height="30" as="alternateBounds" />
          </mxGeometry>
        </mxCell>
        <mxCell id="xyOO_spzbX_BqFr2w0Wo-500" value="description [text] 计划项目描述" style="shape=partialRectangle;connectable=0;fillColor=none;top=0;left=0;bottom=0;right=0;align=left;spacingLeft=6;overflow=hidden;" parent="xyOO_spzbX_BqFr2w0Wo-498" vertex="1">
          <mxGeometry x="30" width="250" height="30" as="geometry">
            <mxRectangle width="250" height="30" as="alternateBounds" />
          </mxGeometry>
        </mxCell>
        <mxCell id="xyOO_spzbX_BqFr2w0Wo-495" style="shape=tableRow;horizontal=0;startSize=0;swimlaneHead=0;swimlaneBody=0;fillColor=none;collapsible=0;dropTarget=0;points=[[0,0.5],[1,0.5]];portConstraint=eastwest;top=0;left=0;right=0;bottom=0;" parent="xyOO_spzbX_BqFr2w0Wo-455" vertex="1">
          <mxGeometry y="300" width="280" height="30" as="geometry" />
        </mxCell>
        <mxCell id="xyOO_spzbX_BqFr2w0Wo-496" style="shape=partialRectangle;connectable=0;fillColor=none;top=0;left=0;bottom=0;right=0;editable=1;overflow=hidden;" parent="xyOO_spzbX_BqFr2w0Wo-495" vertex="1">
          <mxGeometry width="30" height="30" as="geometry">
            <mxRectangle width="30" height="30" as="alternateBounds" />
          </mxGeometry>
        </mxCell>
        <mxCell id="xyOO_spzbX_BqFr2w0Wo-497" value="start_date [date] 开始时间" style="shape=partialRectangle;connectable=0;fillColor=none;top=0;left=0;bottom=0;right=0;align=left;spacingLeft=6;overflow=hidden;" parent="xyOO_spzbX_BqFr2w0Wo-495" vertex="1">
          <mxGeometry x="30" width="250" height="30" as="geometry">
            <mxRectangle width="250" height="30" as="alternateBounds" />
          </mxGeometry>
        </mxCell>
        <mxCell id="xyOO_spzbX_BqFr2w0Wo-492" style="shape=tableRow;horizontal=0;startSize=0;swimlaneHead=0;swimlaneBody=0;fillColor=none;collapsible=0;dropTarget=0;points=[[0,0.5],[1,0.5]];portConstraint=eastwest;top=0;left=0;right=0;bottom=0;" parent="xyOO_spzbX_BqFr2w0Wo-455" vertex="1">
          <mxGeometry y="330" width="280" height="30" as="geometry" />
        </mxCell>
        <mxCell id="xyOO_spzbX_BqFr2w0Wo-493" style="shape=partialRectangle;connectable=0;fillColor=none;top=0;left=0;bottom=0;right=0;editable=1;overflow=hidden;" parent="xyOO_spzbX_BqFr2w0Wo-492" vertex="1">
          <mxGeometry width="30" height="30" as="geometry">
            <mxRectangle width="30" height="30" as="alternateBounds" />
          </mxGeometry>
        </mxCell>
        <mxCell id="xyOO_spzbX_BqFr2w0Wo-494" value="end_date [date] 结束时间" style="shape=partialRectangle;connectable=0;fillColor=none;top=0;left=0;bottom=0;right=0;align=left;spacingLeft=6;overflow=hidden;" parent="xyOO_spzbX_BqFr2w0Wo-492" vertex="1">
          <mxGeometry x="30" width="250" height="30" as="geometry">
            <mxRectangle width="250" height="30" as="alternateBounds" />
          </mxGeometry>
        </mxCell>
        <mxCell id="xyOO_spzbX_BqFr2w0Wo-501" style="shape=tableRow;horizontal=0;startSize=0;swimlaneHead=0;swimlaneBody=0;fillColor=none;collapsible=0;dropTarget=0;points=[[0,0.5],[1,0.5]];portConstraint=eastwest;top=0;left=0;right=0;bottom=0;" parent="xyOO_spzbX_BqFr2w0Wo-455" vertex="1">
          <mxGeometry y="360" width="280" height="30" as="geometry" />
        </mxCell>
        <mxCell id="xyOO_spzbX_BqFr2w0Wo-502" style="shape=partialRectangle;connectable=0;fillColor=none;top=0;left=0;bottom=0;right=0;editable=1;overflow=hidden;" parent="xyOO_spzbX_BqFr2w0Wo-501" vertex="1">
          <mxGeometry width="30" height="30" as="geometry">
            <mxRectangle width="30" height="30" as="alternateBounds" />
          </mxGeometry>
        </mxCell>
        <mxCell id="xyOO_spzbX_BqFr2w0Wo-503" value="matrix_id [uuid] 风险矩阵主键" style="shape=partialRectangle;connectable=0;fillColor=none;top=0;left=0;bottom=0;right=0;align=left;spacingLeft=6;overflow=hidden;" parent="xyOO_spzbX_BqFr2w0Wo-501" vertex="1">
          <mxGeometry x="30" width="250" height="30" as="geometry">
            <mxRectangle width="250" height="30" as="alternateBounds" />
          </mxGeometry>
        </mxCell>
        <mxCell id="xyOO_spzbX_BqFr2w0Wo-504" style="shape=tableRow;horizontal=0;startSize=0;swimlaneHead=0;swimlaneBody=0;fillColor=none;collapsible=0;dropTarget=0;points=[[0,0.5],[1,0.5]];portConstraint=eastwest;top=0;left=0;right=0;bottom=0;" parent="xyOO_spzbX_BqFr2w0Wo-455" vertex="1">
          <mxGeometry y="390" width="280" height="30" as="geometry" />
        </mxCell>
        <mxCell id="xyOO_spzbX_BqFr2w0Wo-505" style="shape=partialRectangle;connectable=0;fillColor=none;top=0;left=0;bottom=0;right=0;editable=1;overflow=hidden;" parent="xyOO_spzbX_BqFr2w0Wo-504" vertex="1">
          <mxGeometry width="30" height="30" as="geometry">
            <mxRectangle width="30" height="30" as="alternateBounds" />
          </mxGeometry>
        </mxCell>
        <mxCell id="xyOO_spzbX_BqFr2w0Wo-506" value="attachment [File] 附件" style="shape=partialRectangle;connectable=0;fillColor=none;top=0;left=0;bottom=0;right=0;align=left;spacingLeft=6;overflow=hidden;" parent="xyOO_spzbX_BqFr2w0Wo-504" vertex="1">
          <mxGeometry x="30" width="250" height="30" as="geometry">
            <mxRectangle width="250" height="30" as="alternateBounds" />
          </mxGeometry>
        </mxCell>
        <mxCell id="xyOO_spzbX_BqFr2w0Wo-474" style="shape=tableRow;horizontal=0;startSize=0;swimlaneHead=0;swimlaneBody=0;fillColor=none;collapsible=0;dropTarget=0;points=[[0,0.5],[1,0.5]];portConstraint=eastwest;top=0;left=0;right=0;bottom=0;" parent="xyOO_spzbX_BqFr2w0Wo-455" vertex="1">
          <mxGeometry y="420" width="280" height="30" as="geometry" />
        </mxCell>
        <mxCell id="xyOO_spzbX_BqFr2w0Wo-475" style="shape=partialRectangle;connectable=0;fillColor=none;top=0;left=0;bottom=0;right=0;editable=1;overflow=hidden;" parent="xyOO_spzbX_BqFr2w0Wo-474" vertex="1">
          <mxGeometry width="30" height="30" as="geometry">
            <mxRectangle width="30" height="30" as="alternateBounds" />
          </mxGeometry>
        </mxCell>
        <mxCell id="xyOO_spzbX_BqFr2w0Wo-476" value="comment [text] 备注" style="shape=partialRectangle;connectable=0;fillColor=none;top=0;left=0;bottom=0;right=0;align=left;spacingLeft=6;overflow=hidden;" parent="xyOO_spzbX_BqFr2w0Wo-474" vertex="1">
          <mxGeometry x="30" width="250" height="30" as="geometry">
            <mxRectangle width="250" height="30" as="alternateBounds" />
          </mxGeometry>
        </mxCell>
        <mxCell id="xyOO_spzbX_BqFr2w0Wo-477" style="shape=tableRow;horizontal=0;startSize=0;swimlaneHead=0;swimlaneBody=0;fillColor=none;collapsible=0;dropTarget=0;points=[[0,0.5],[1,0.5]];portConstraint=eastwest;top=0;left=0;right=0;bottom=0;" parent="xyOO_spzbX_BqFr2w0Wo-455" vertex="1">
          <mxGeometry y="450" width="280" height="30" as="geometry" />
        </mxCell>
        <mxCell id="xyOO_spzbX_BqFr2w0Wo-478" style="shape=partialRectangle;connectable=0;fillColor=none;top=0;left=0;bottom=0;right=0;editable=1;overflow=hidden;" parent="xyOO_spzbX_BqFr2w0Wo-477" vertex="1">
          <mxGeometry width="30" height="30" as="geometry">
            <mxRectangle width="30" height="30" as="alternateBounds" />
          </mxGeometry>
        </mxCell>
        <mxCell id="xyOO_spzbX_BqFr2w0Wo-479" value="attribute [text] 其他" style="shape=partialRectangle;connectable=0;fillColor=none;top=0;left=0;bottom=0;right=0;align=left;spacingLeft=6;overflow=hidden;" parent="xyOO_spzbX_BqFr2w0Wo-477" vertex="1">
          <mxGeometry x="30" width="250" height="30" as="geometry">
            <mxRectangle width="250" height="30" as="alternateBounds" />
          </mxGeometry>
        </mxCell>
        <mxCell id="xyOO_spzbX_BqFr2w0Wo-507" style="shape=tableRow;horizontal=0;startSize=0;swimlaneHead=0;swimlaneBody=0;fillColor=none;collapsible=0;dropTarget=0;points=[[0,0.5],[1,0.5]];portConstraint=eastwest;top=0;left=0;right=0;bottom=0;" parent="xyOO_spzbX_BqFr2w0Wo-455" vertex="1">
          <mxGeometry y="480" width="280" height="30" as="geometry" />
        </mxCell>
        <mxCell id="xyOO_spzbX_BqFr2w0Wo-508" style="shape=partialRectangle;connectable=0;fillColor=none;top=0;left=0;bottom=0;right=0;editable=1;overflow=hidden;" parent="xyOO_spzbX_BqFr2w0Wo-507" vertex="1">
          <mxGeometry width="30" height="30" as="geometry">
            <mxRectangle width="30" height="30" as="alternateBounds" />
          </mxGeometry>
        </mxCell>
        <mxCell id="xyOO_spzbX_BqFr2w0Wo-509" value="now_status [int2] 状态" style="shape=partialRectangle;connectable=0;fillColor=none;top=0;left=0;bottom=0;right=0;align=left;spacingLeft=6;overflow=hidden;" parent="xyOO_spzbX_BqFr2w0Wo-507" vertex="1">
          <mxGeometry x="30" width="250" height="30" as="geometry">
            <mxRectangle width="250" height="30" as="alternateBounds" />
          </mxGeometry>
        </mxCell>
        <mxCell id="xyOO_spzbX_BqFr2w0Wo-481" value="属于" style="rhombus;whiteSpace=wrap;html=1;fillColor=#dae8fc;strokeColor=#6c8ebf;startSize=30;fontStyle=1;" parent="1" vertex="1">
          <mxGeometry x="982" y="618" width="80" height="80" as="geometry" />
        </mxCell>
        <mxCell id="xyOO_spzbX_BqFr2w0Wo-482" value="" style="edgeStyle=orthogonalEdgeStyle;rounded=0;orthogonalLoop=1;jettySize=auto;html=1;endArrow=classic;endFill=1;entryX=1;entryY=0;entryDx=0;entryDy=0;exitX=0;exitY=0.5;exitDx=0;exitDy=0;" parent="1" source="xyOO_spzbX_BqFr2w0Wo-481" target="xyOO_spzbX_BqFr2w0Wo-1" edge="1">
          <mxGeometry relative="1" as="geometry">
            <mxPoint x="1222" y="643" as="sourcePoint" />
            <mxPoint x="1374.75" y="1004" as="targetPoint" />
          </mxGeometry>
        </mxCell>
        <mxCell id="xyOO_spzbX_BqFr2w0Wo-484" value="" style="edgeStyle=orthogonalEdgeStyle;rounded=0;orthogonalLoop=1;jettySize=auto;html=1;endArrow=none;endFill=0;entryX=1;entryY=0.5;entryDx=0;entryDy=0;exitX=0;exitY=0.5;exitDx=0;exitDy=0;" parent="1" source="xyOO_spzbX_BqFr2w0Wo-495" target="xyOO_spzbX_BqFr2w0Wo-481" edge="1">
          <mxGeometry relative="1" as="geometry">
            <mxPoint x="1395" y="964" as="sourcePoint" />
            <mxPoint x="1384.75" y="1014" as="targetPoint" />
          </mxGeometry>
        </mxCell>
        <mxCell id="xyOO_spzbX_BqFr2w0Wo-510" value="" style="edgeStyle=orthogonalEdgeStyle;rounded=0;orthogonalLoop=1;jettySize=auto;html=1;endArrow=none;endFill=0;exitX=0;exitY=0.5;exitDx=0;exitDy=0;" parent="1" source="xyOO_spzbX_BqFr2w0Wo-486" edge="1">
          <mxGeometry relative="1" as="geometry">
            <mxPoint x="1242" y="610" as="sourcePoint" />
            <Array as="points">
              <mxPoint x="1232" y="601" />
              <mxPoint x="472" y="601" />
            </Array>
            <mxPoint x="472" y="647.5" as="targetPoint" />
          </mxGeometry>
        </mxCell>
        <mxCell id="xyOO_spzbX_BqFr2w0Wo-512" value="参与" style="rhombus;whiteSpace=wrap;html=1;fillColor=#f5f5f5;strokeColor=#666666;startSize=30;fontStyle=1;fontColor=#333333;" parent="1" vertex="1">
          <mxGeometry x="432" y="639.5" width="80" height="80" as="geometry" />
        </mxCell>
        <mxCell id="xyOO_spzbX_BqFr2w0Wo-513" value="" style="edgeStyle=orthogonalEdgeStyle;rounded=0;orthogonalLoop=1;jettySize=auto;html=1;endArrow=none;endFill=0;exitX=0.5;exitY=1;exitDx=0;exitDy=0;entryX=1;entryY=0;entryDx=0;entryDy=0;" parent="1" source="xyOO_spzbX_BqFr2w0Wo-512" target="xyOO_spzbX_BqFr2w0Wo-243" edge="1">
          <mxGeometry relative="1" as="geometry">
            <mxPoint x="-8" y="376" as="sourcePoint" />
            <mxPoint x="462" y="745.5" as="targetPoint" />
            <Array as="points">
              <mxPoint x="472" y="746" />
              <mxPoint x="372" y="746" />
            </Array>
          </mxGeometry>
        </mxCell>
        <mxCell id="xyOO_spzbX_BqFr2w0Wo-515" value="LatencyPlan 隐患排查计划" style="shape=table;startSize=30;container=1;collapsible=1;childLayout=tableLayout;fixedRows=1;rowLines=0;fontStyle=1;align=center;resizeLast=1;fillColor=#f8cecc;strokeColor=#b85450;" parent="1" vertex="1">
          <mxGeometry x="1272" y="883" width="280" height="520" as="geometry">
            <mxRectangle x="585" y="220" width="80" height="30" as="alternateBounds" />
          </mxGeometry>
        </mxCell>
        <mxCell id="xyOO_spzbX_BqFr2w0Wo-516" value="" style="shape=tableRow;horizontal=0;startSize=0;swimlaneHead=0;swimlaneBody=0;fillColor=none;collapsible=0;dropTarget=0;points=[[0,0.5],[1,0.5]];portConstraint=eastwest;top=0;left=0;right=0;bottom=1;" parent="xyOO_spzbX_BqFr2w0Wo-515" vertex="1">
          <mxGeometry y="30" width="280" height="30" as="geometry" />
        </mxCell>
        <mxCell id="xyOO_spzbX_BqFr2w0Wo-517" value="PK" style="shape=partialRectangle;connectable=0;fillColor=none;top=0;left=0;bottom=0;right=0;fontStyle=1;overflow=hidden;" parent="xyOO_spzbX_BqFr2w0Wo-516" vertex="1">
          <mxGeometry width="30" height="30" as="geometry">
            <mxRectangle width="30" height="30" as="alternateBounds" />
          </mxGeometry>
        </mxCell>
        <mxCell id="xyOO_spzbX_BqFr2w0Wo-518" value="uuid" style="shape=partialRectangle;connectable=0;fillColor=none;top=0;left=0;bottom=0;right=0;align=left;spacingLeft=6;fontStyle=5;overflow=hidden;" parent="xyOO_spzbX_BqFr2w0Wo-516" vertex="1">
          <mxGeometry x="30" width="250" height="30" as="geometry">
            <mxRectangle width="250" height="30" as="alternateBounds" />
          </mxGeometry>
        </mxCell>
        <mxCell id="xyOO_spzbX_BqFr2w0Wo-519" value="" style="shape=tableRow;horizontal=0;startSize=0;swimlaneHead=0;swimlaneBody=0;fillColor=none;collapsible=0;dropTarget=0;points=[[0,0.5],[1,0.5]];portConstraint=eastwest;top=0;left=0;right=0;bottom=0;" parent="xyOO_spzbX_BqFr2w0Wo-515" vertex="1">
          <mxGeometry y="60" width="280" height="30" as="geometry" />
        </mxCell>
        <mxCell id="xyOO_spzbX_BqFr2w0Wo-520" value="" style="shape=partialRectangle;connectable=0;fillColor=none;top=0;left=0;bottom=0;right=0;editable=1;overflow=hidden;" parent="xyOO_spzbX_BqFr2w0Wo-519" vertex="1">
          <mxGeometry width="30" height="30" as="geometry">
            <mxRectangle width="30" height="30" as="alternateBounds" />
          </mxGeometry>
        </mxCell>
        <mxCell id="xyOO_spzbX_BqFr2w0Wo-521" value="name [text] 计划项目名称" style="shape=partialRectangle;connectable=0;fillColor=none;top=0;left=0;bottom=0;right=0;align=left;spacingLeft=6;overflow=hidden;" parent="xyOO_spzbX_BqFr2w0Wo-519" vertex="1">
          <mxGeometry x="30" width="250" height="30" as="geometry">
            <mxRectangle width="250" height="30" as="alternateBounds" />
          </mxGeometry>
        </mxCell>
        <mxCell id="xyOO_spzbX_BqFr2w0Wo-522" value="" style="shape=tableRow;horizontal=0;startSize=0;swimlaneHead=0;swimlaneBody=0;fillColor=none;collapsible=0;dropTarget=0;points=[[0,0.5],[1,0.5]];portConstraint=eastwest;top=0;left=0;right=0;bottom=0;" parent="xyOO_spzbX_BqFr2w0Wo-515" vertex="1">
          <mxGeometry y="90" width="280" height="30" as="geometry" />
        </mxCell>
        <mxCell id="xyOO_spzbX_BqFr2w0Wo-523" value="" style="shape=partialRectangle;connectable=0;fillColor=none;top=0;left=0;bottom=0;right=0;editable=1;overflow=hidden;" parent="xyOO_spzbX_BqFr2w0Wo-522" vertex="1">
          <mxGeometry width="30" height="30" as="geometry">
            <mxRectangle width="30" height="30" as="alternateBounds" />
          </mxGeometry>
        </mxCell>
        <mxCell id="xyOO_spzbX_BqFr2w0Wo-524" value="code [text] 计划项目代码" style="shape=partialRectangle;connectable=0;fillColor=none;top=0;left=0;bottom=0;right=0;align=left;spacingLeft=6;overflow=hidden;" parent="xyOO_spzbX_BqFr2w0Wo-522" vertex="1">
          <mxGeometry x="30" width="250" height="30" as="geometry">
            <mxRectangle width="250" height="30" as="alternateBounds" />
          </mxGeometry>
        </mxCell>
        <mxCell id="xyOO_spzbX_BqFr2w0Wo-525" value="" style="shape=tableRow;horizontal=0;startSize=0;swimlaneHead=0;swimlaneBody=0;fillColor=none;collapsible=0;dropTarget=0;points=[[0,0.5],[1,0.5]];portConstraint=eastwest;top=0;left=0;right=0;bottom=0;" parent="xyOO_spzbX_BqFr2w0Wo-515" vertex="1">
          <mxGeometry y="120" width="280" height="30" as="geometry" />
        </mxCell>
        <mxCell id="xyOO_spzbX_BqFr2w0Wo-526" value="" style="shape=partialRectangle;connectable=0;fillColor=none;top=0;left=0;bottom=0;right=0;editable=1;overflow=hidden;" parent="xyOO_spzbX_BqFr2w0Wo-525" vertex="1">
          <mxGeometry width="30" height="30" as="geometry">
            <mxRectangle width="30" height="30" as="alternateBounds" />
          </mxGeometry>
        </mxCell>
        <mxCell id="xyOO_spzbX_BqFr2w0Wo-527" value="type [text] 检查类型" style="shape=partialRectangle;connectable=0;fillColor=none;top=0;left=0;bottom=0;right=0;align=left;spacingLeft=6;overflow=hidden;" parent="xyOO_spzbX_BqFr2w0Wo-525" vertex="1">
          <mxGeometry x="30" width="250" height="30" as="geometry">
            <mxRectangle width="250" height="30" as="alternateBounds" />
          </mxGeometry>
        </mxCell>
        <mxCell id="xyOO_spzbX_BqFr2w0Wo-528" style="shape=tableRow;horizontal=0;startSize=0;swimlaneHead=0;swimlaneBody=0;fillColor=none;collapsible=0;dropTarget=0;points=[[0,0.5],[1,0.5]];portConstraint=eastwest;top=0;left=0;right=0;bottom=0;" parent="xyOO_spzbX_BqFr2w0Wo-515" vertex="1">
          <mxGeometry y="150" width="280" height="30" as="geometry" />
        </mxCell>
        <mxCell id="xyOO_spzbX_BqFr2w0Wo-529" style="shape=partialRectangle;connectable=0;fillColor=none;top=0;left=0;bottom=0;right=0;editable=1;overflow=hidden;" parent="xyOO_spzbX_BqFr2w0Wo-528" vertex="1">
          <mxGeometry width="30" height="30" as="geometry">
            <mxRectangle width="30" height="30" as="alternateBounds" />
          </mxGeometry>
        </mxCell>
        <mxCell id="xyOO_spzbX_BqFr2w0Wo-530" value="cycle [text] 检查周期" style="shape=partialRectangle;connectable=0;fillColor=none;top=0;left=0;bottom=0;right=0;align=left;spacingLeft=6;overflow=hidden;" parent="xyOO_spzbX_BqFr2w0Wo-528" vertex="1">
          <mxGeometry x="30" width="250" height="30" as="geometry">
            <mxRectangle width="250" height="30" as="alternateBounds" />
          </mxGeometry>
        </mxCell>
        <mxCell id="xyOO_spzbX_BqFr2w0Wo-531" style="shape=tableRow;horizontal=0;startSize=0;swimlaneHead=0;swimlaneBody=0;fillColor=none;collapsible=0;dropTarget=0;points=[[0,0.5],[1,0.5]];portConstraint=eastwest;top=0;left=0;right=0;bottom=0;" parent="xyOO_spzbX_BqFr2w0Wo-515" vertex="1">
          <mxGeometry y="180" width="280" height="30" as="geometry" />
        </mxCell>
        <mxCell id="xyOO_spzbX_BqFr2w0Wo-532" style="shape=partialRectangle;connectable=0;fillColor=none;top=0;left=0;bottom=0;right=0;editable=1;overflow=hidden;" parent="xyOO_spzbX_BqFr2w0Wo-531" vertex="1">
          <mxGeometry width="30" height="30" as="geometry">
            <mxRectangle width="30" height="30" as="alternateBounds" />
          </mxGeometry>
        </mxCell>
        <mxCell id="xyOO_spzbX_BqFr2w0Wo-533" value="category [int2] 隐患分类" style="shape=partialRectangle;connectable=0;fillColor=none;top=0;left=0;bottom=0;right=0;align=left;spacingLeft=6;overflow=hidden;" parent="xyOO_spzbX_BqFr2w0Wo-531" vertex="1">
          <mxGeometry x="30" width="250" height="30" as="geometry">
            <mxRectangle width="250" height="30" as="alternateBounds" />
          </mxGeometry>
        </mxCell>
        <mxCell id="xyOO_spzbX_BqFr2w0Wo-534" style="shape=tableRow;horizontal=0;startSize=0;swimlaneHead=0;swimlaneBody=0;fillColor=none;collapsible=0;dropTarget=0;points=[[0,0.5],[1,0.5]];portConstraint=eastwest;top=0;left=0;right=0;bottom=0;" parent="xyOO_spzbX_BqFr2w0Wo-515" vertex="1">
          <mxGeometry y="210" width="280" height="30" as="geometry" />
        </mxCell>
        <mxCell id="xyOO_spzbX_BqFr2w0Wo-535" style="shape=partialRectangle;connectable=0;fillColor=none;top=0;left=0;bottom=0;right=0;editable=1;overflow=hidden;" parent="xyOO_spzbX_BqFr2w0Wo-534" vertex="1">
          <mxGeometry width="30" height="30" as="geometry">
            <mxRectangle width="30" height="30" as="alternateBounds" />
          </mxGeometry>
        </mxCell>
        <mxCell id="xyOO_spzbX_BqFr2w0Wo-536" value="area_to_check [text] 分级管控范围" style="shape=partialRectangle;connectable=0;fillColor=none;top=0;left=0;bottom=0;right=0;align=left;spacingLeft=6;overflow=hidden;" parent="xyOO_spzbX_BqFr2w0Wo-534" vertex="1">
          <mxGeometry x="30" width="250" height="30" as="geometry">
            <mxRectangle width="250" height="30" as="alternateBounds" />
          </mxGeometry>
        </mxCell>
        <mxCell id="xyOO_spzbX_BqFr2w0Wo-537" style="shape=tableRow;horizontal=0;startSize=0;swimlaneHead=0;swimlaneBody=0;fillColor=none;collapsible=0;dropTarget=0;points=[[0,0.5],[1,0.5]];portConstraint=eastwest;top=0;left=0;right=0;bottom=0;" parent="xyOO_spzbX_BqFr2w0Wo-515" vertex="1">
          <mxGeometry y="240" width="280" height="30" as="geometry" />
        </mxCell>
        <mxCell id="xyOO_spzbX_BqFr2w0Wo-538" style="shape=partialRectangle;connectable=0;fillColor=none;top=0;left=0;bottom=0;right=0;editable=1;overflow=hidden;" parent="xyOO_spzbX_BqFr2w0Wo-537" vertex="1">
          <mxGeometry width="30" height="30" as="geometry">
            <mxRectangle width="30" height="30" as="alternateBounds" />
          </mxGeometry>
        </mxCell>
        <mxCell id="xyOO_spzbX_BqFr2w0Wo-539" value="check_purpose [text] 工作目的" style="shape=partialRectangle;connectable=0;fillColor=none;top=0;left=0;bottom=0;right=0;align=left;spacingLeft=6;overflow=hidden;" parent="xyOO_spzbX_BqFr2w0Wo-537" vertex="1">
          <mxGeometry x="30" width="250" height="30" as="geometry">
            <mxRectangle width="250" height="30" as="alternateBounds" />
          </mxGeometry>
        </mxCell>
        <mxCell id="xyOO_spzbX_BqFr2w0Wo-540" style="shape=tableRow;horizontal=0;startSize=0;swimlaneHead=0;swimlaneBody=0;fillColor=none;collapsible=0;dropTarget=0;points=[[0,0.5],[1,0.5]];portConstraint=eastwest;top=0;left=0;right=0;bottom=0;" parent="xyOO_spzbX_BqFr2w0Wo-515" vertex="1">
          <mxGeometry y="270" width="280" height="30" as="geometry" />
        </mxCell>
        <mxCell id="xyOO_spzbX_BqFr2w0Wo-541" style="shape=partialRectangle;connectable=0;fillColor=none;top=0;left=0;bottom=0;right=0;editable=1;overflow=hidden;" parent="xyOO_spzbX_BqFr2w0Wo-540" vertex="1">
          <mxGeometry width="30" height="30" as="geometry">
            <mxRectangle width="30" height="30" as="alternateBounds" />
          </mxGeometry>
        </mxCell>
        <mxCell id="xyOO_spzbX_BqFr2w0Wo-542" value="description [text] 计划项目描述" style="shape=partialRectangle;connectable=0;fillColor=none;top=0;left=0;bottom=0;right=0;align=left;spacingLeft=6;overflow=hidden;" parent="xyOO_spzbX_BqFr2w0Wo-540" vertex="1">
          <mxGeometry x="30" width="250" height="30" as="geometry">
            <mxRectangle width="250" height="30" as="alternateBounds" />
          </mxGeometry>
        </mxCell>
        <mxCell id="xyOO_spzbX_BqFr2w0Wo-543" style="shape=tableRow;horizontal=0;startSize=0;swimlaneHead=0;swimlaneBody=0;fillColor=none;collapsible=0;dropTarget=0;points=[[0,0.5],[1,0.5]];portConstraint=eastwest;top=0;left=0;right=0;bottom=0;" parent="xyOO_spzbX_BqFr2w0Wo-515" vertex="1">
          <mxGeometry y="300" width="280" height="30" as="geometry" />
        </mxCell>
        <mxCell id="xyOO_spzbX_BqFr2w0Wo-544" style="shape=partialRectangle;connectable=0;fillColor=none;top=0;left=0;bottom=0;right=0;editable=1;overflow=hidden;" parent="xyOO_spzbX_BqFr2w0Wo-543" vertex="1">
          <mxGeometry width="30" height="30" as="geometry">
            <mxRectangle width="30" height="30" as="alternateBounds" />
          </mxGeometry>
        </mxCell>
        <mxCell id="xyOO_spzbX_BqFr2w0Wo-545" value="start [date] 开始时间" style="shape=partialRectangle;connectable=0;fillColor=none;top=0;left=0;bottom=0;right=0;align=left;spacingLeft=6;overflow=hidden;" parent="xyOO_spzbX_BqFr2w0Wo-543" vertex="1">
          <mxGeometry x="30" width="250" height="30" as="geometry">
            <mxRectangle width="250" height="30" as="alternateBounds" />
          </mxGeometry>
        </mxCell>
        <mxCell id="xyOO_spzbX_BqFr2w0Wo-546" style="shape=tableRow;horizontal=0;startSize=0;swimlaneHead=0;swimlaneBody=0;fillColor=none;collapsible=0;dropTarget=0;points=[[0,0.5],[1,0.5]];portConstraint=eastwest;top=0;left=0;right=0;bottom=0;" parent="xyOO_spzbX_BqFr2w0Wo-515" vertex="1">
          <mxGeometry y="330" width="280" height="30" as="geometry" />
        </mxCell>
        <mxCell id="xyOO_spzbX_BqFr2w0Wo-547" style="shape=partialRectangle;connectable=0;fillColor=none;top=0;left=0;bottom=0;right=0;editable=1;overflow=hidden;" parent="xyOO_spzbX_BqFr2w0Wo-546" vertex="1">
          <mxGeometry width="30" height="30" as="geometry">
            <mxRectangle width="30" height="30" as="alternateBounds" />
          </mxGeometry>
        </mxCell>
        <mxCell id="xyOO_spzbX_BqFr2w0Wo-548" value="due [date] 截止时间" style="shape=partialRectangle;connectable=0;fillColor=none;top=0;left=0;bottom=0;right=0;align=left;spacingLeft=6;overflow=hidden;" parent="xyOO_spzbX_BqFr2w0Wo-546" vertex="1">
          <mxGeometry x="30" width="250" height="30" as="geometry">
            <mxRectangle width="250" height="30" as="alternateBounds" />
          </mxGeometry>
        </mxCell>
        <mxCell id="xyOO_spzbX_BqFr2w0Wo-549" style="shape=tableRow;horizontal=0;startSize=0;swimlaneHead=0;swimlaneBody=0;fillColor=none;collapsible=0;dropTarget=0;points=[[0,0.5],[1,0.5]];portConstraint=eastwest;top=0;left=0;right=0;bottom=0;" parent="xyOO_spzbX_BqFr2w0Wo-515" vertex="1">
          <mxGeometry y="360" width="280" height="30" as="geometry" />
        </mxCell>
        <mxCell id="xyOO_spzbX_BqFr2w0Wo-550" style="shape=partialRectangle;connectable=0;fillColor=none;top=0;left=0;bottom=0;right=0;editable=1;overflow=hidden;" parent="xyOO_spzbX_BqFr2w0Wo-549" vertex="1">
          <mxGeometry width="30" height="30" as="geometry">
            <mxRectangle width="30" height="30" as="alternateBounds" />
          </mxGeometry>
        </mxCell>
        <mxCell id="xyOO_spzbX_BqFr2w0Wo-551" value="url [varchar200] 参考网址" style="shape=partialRectangle;connectable=0;fillColor=none;top=0;left=0;bottom=0;right=0;align=left;spacingLeft=6;overflow=hidden;" parent="xyOO_spzbX_BqFr2w0Wo-549" vertex="1">
          <mxGeometry x="30" width="250" height="30" as="geometry">
            <mxRectangle width="250" height="30" as="alternateBounds" />
          </mxGeometry>
        </mxCell>
        <mxCell id="xyOO_spzbX_BqFr2w0Wo-552" style="shape=tableRow;horizontal=0;startSize=0;swimlaneHead=0;swimlaneBody=0;fillColor=none;collapsible=0;dropTarget=0;points=[[0,0.5],[1,0.5]];portConstraint=eastwest;top=0;left=0;right=0;bottom=0;" parent="xyOO_spzbX_BqFr2w0Wo-515" vertex="1">
          <mxGeometry y="390" width="280" height="30" as="geometry" />
        </mxCell>
        <mxCell id="xyOO_spzbX_BqFr2w0Wo-553" style="shape=partialRectangle;connectable=0;fillColor=none;top=0;left=0;bottom=0;right=0;editable=1;overflow=hidden;" parent="xyOO_spzbX_BqFr2w0Wo-552" vertex="1">
          <mxGeometry width="30" height="30" as="geometry">
            <mxRectangle width="30" height="30" as="alternateBounds" />
          </mxGeometry>
        </mxCell>
        <mxCell id="xyOO_spzbX_BqFr2w0Wo-554" value="attachment [File] 附件" style="shape=partialRectangle;connectable=0;fillColor=none;top=0;left=0;bottom=0;right=0;align=left;spacingLeft=6;overflow=hidden;" parent="xyOO_spzbX_BqFr2w0Wo-552" vertex="1">
          <mxGeometry x="30" width="250" height="30" as="geometry">
            <mxRectangle width="250" height="30" as="alternateBounds" />
          </mxGeometry>
        </mxCell>
        <mxCell id="xyOO_spzbX_BqFr2w0Wo-555" style="shape=tableRow;horizontal=0;startSize=0;swimlaneHead=0;swimlaneBody=0;fillColor=none;collapsible=0;dropTarget=0;points=[[0,0.5],[1,0.5]];portConstraint=eastwest;top=0;left=0;right=0;bottom=0;" parent="xyOO_spzbX_BqFr2w0Wo-515" vertex="1">
          <mxGeometry y="420" width="280" height="30" as="geometry" />
        </mxCell>
        <mxCell id="xyOO_spzbX_BqFr2w0Wo-556" style="shape=partialRectangle;connectable=0;fillColor=none;top=0;left=0;bottom=0;right=0;editable=1;overflow=hidden;" parent="xyOO_spzbX_BqFr2w0Wo-555" vertex="1">
          <mxGeometry width="30" height="30" as="geometry">
            <mxRectangle width="30" height="30" as="alternateBounds" />
          </mxGeometry>
        </mxCell>
        <mxCell id="xyOO_spzbX_BqFr2w0Wo-557" value="comment [text] 备注" style="shape=partialRectangle;connectable=0;fillColor=none;top=0;left=0;bottom=0;right=0;align=left;spacingLeft=6;overflow=hidden;" parent="xyOO_spzbX_BqFr2w0Wo-555" vertex="1">
          <mxGeometry x="30" width="250" height="30" as="geometry">
            <mxRectangle width="250" height="30" as="alternateBounds" />
          </mxGeometry>
        </mxCell>
        <mxCell id="xyOO_spzbX_BqFr2w0Wo-558" style="shape=tableRow;horizontal=0;startSize=0;swimlaneHead=0;swimlaneBody=0;fillColor=none;collapsible=0;dropTarget=0;points=[[0,0.5],[1,0.5]];portConstraint=eastwest;top=0;left=0;right=0;bottom=0;" parent="xyOO_spzbX_BqFr2w0Wo-515" vertex="1">
          <mxGeometry y="450" width="280" height="30" as="geometry" />
        </mxCell>
        <mxCell id="xyOO_spzbX_BqFr2w0Wo-559" style="shape=partialRectangle;connectable=0;fillColor=none;top=0;left=0;bottom=0;right=0;editable=1;overflow=hidden;" parent="xyOO_spzbX_BqFr2w0Wo-558" vertex="1">
          <mxGeometry width="30" height="30" as="geometry">
            <mxRectangle width="30" height="30" as="alternateBounds" />
          </mxGeometry>
        </mxCell>
        <mxCell id="xyOO_spzbX_BqFr2w0Wo-560" value="attribute [text] 其他" style="shape=partialRectangle;connectable=0;fillColor=none;top=0;left=0;bottom=0;right=0;align=left;spacingLeft=6;overflow=hidden;" parent="xyOO_spzbX_BqFr2w0Wo-558" vertex="1">
          <mxGeometry x="30" width="250" height="30" as="geometry">
            <mxRectangle width="250" height="30" as="alternateBounds" />
          </mxGeometry>
        </mxCell>
        <mxCell id="xyOO_spzbX_BqFr2w0Wo-561" style="shape=tableRow;horizontal=0;startSize=0;swimlaneHead=0;swimlaneBody=0;fillColor=none;collapsible=0;dropTarget=0;points=[[0,0.5],[1,0.5]];portConstraint=eastwest;top=0;left=0;right=0;bottom=0;" parent="xyOO_spzbX_BqFr2w0Wo-515" vertex="1">
          <mxGeometry y="480" width="280" height="30" as="geometry" />
        </mxCell>
        <mxCell id="xyOO_spzbX_BqFr2w0Wo-562" style="shape=partialRectangle;connectable=0;fillColor=none;top=0;left=0;bottom=0;right=0;editable=1;overflow=hidden;" parent="xyOO_spzbX_BqFr2w0Wo-561" vertex="1">
          <mxGeometry width="30" height="30" as="geometry">
            <mxRectangle width="30" height="30" as="alternateBounds" />
          </mxGeometry>
        </mxCell>
        <mxCell id="xyOO_spzbX_BqFr2w0Wo-563" value="now_status [int2] 状态" style="shape=partialRectangle;connectable=0;fillColor=none;top=0;left=0;bottom=0;right=0;align=left;spacingLeft=6;overflow=hidden;" parent="xyOO_spzbX_BqFr2w0Wo-561" vertex="1">
          <mxGeometry x="30" width="250" height="30" as="geometry">
            <mxRectangle width="250" height="30" as="alternateBounds" />
          </mxGeometry>
        </mxCell>
        <mxCell id="xyOO_spzbX_BqFr2w0Wo-564" value="属于" style="rhombus;whiteSpace=wrap;html=1;fillColor=#dae8fc;strokeColor=#6c8ebf;startSize=30;fontStyle=1;" parent="1" vertex="1">
          <mxGeometry x="868" y="728" width="80" height="80" as="geometry" />
        </mxCell>
        <mxCell id="xyOO_spzbX_BqFr2w0Wo-565" value="" style="edgeStyle=orthogonalEdgeStyle;rounded=0;orthogonalLoop=1;jettySize=auto;html=1;endArrow=classic;endFill=1;entryX=1;entryY=0.5;entryDx=0;entryDy=0;exitX=0;exitY=0.5;exitDx=0;exitDy=0;" parent="1" source="xyOO_spzbX_BqFr2w0Wo-564" target="xyOO_spzbX_BqFr2w0Wo-2" edge="1">
          <mxGeometry relative="1" as="geometry">
            <mxPoint x="1709" y="1193" as="sourcePoint" />
            <mxPoint x="1282" y="1272.999999999999" as="targetPoint" />
          </mxGeometry>
        </mxCell>
        <mxCell id="xyOO_spzbX_BqFr2w0Wo-566" value="" style="edgeStyle=orthogonalEdgeStyle;rounded=0;orthogonalLoop=1;jettySize=auto;html=1;endArrow=none;endFill=0;entryX=1;entryY=0.5;entryDx=0;entryDy=0;exitX=0;exitY=0.5;exitDx=0;exitDy=0;" parent="1" source="xyOO_spzbX_BqFr2w0Wo-519" target="xyOO_spzbX_BqFr2w0Wo-564" edge="1">
          <mxGeometry relative="1" as="geometry">
            <mxPoint x="1422" y="893" as="sourcePoint" />
            <mxPoint x="1871.75" y="1564" as="targetPoint" />
            <Array as="points">
              <mxPoint x="1272" y="953" />
              <mxPoint x="1202" y="953" />
              <mxPoint x="1202" y="768" />
            </Array>
          </mxGeometry>
        </mxCell>
        <mxCell id="xyOO_spzbX_BqFr2w0Wo-619" value="" style="edgeStyle=orthogonalEdgeStyle;rounded=0;orthogonalLoop=1;jettySize=auto;html=1;endArrow=none;endFill=0;exitX=0;exitY=0.5;exitDx=0;exitDy=0;" parent="1" source="xyOO_spzbX_BqFr2w0Wo-516" edge="1">
          <mxGeometry relative="1" as="geometry">
            <mxPoint x="1281.9999999999995" y="693.9699999999991" as="sourcePoint" />
            <Array as="points">
              <mxPoint x="1222" y="928" />
              <mxPoint x="1222" y="703" />
              <mxPoint x="522" y="703" />
            </Array>
            <mxPoint x="522" y="743.47" as="targetPoint" />
          </mxGeometry>
        </mxCell>
        <mxCell id="xyOO_spzbX_BqFr2w0Wo-621" value="参与" style="rhombus;whiteSpace=wrap;html=1;fillColor=#f5f5f5;strokeColor=#666666;startSize=30;fontStyle=1;fontColor=#333333;" parent="1" vertex="1">
          <mxGeometry x="482" y="735.47" width="80" height="80" as="geometry" />
        </mxCell>
        <mxCell id="xyOO_spzbX_BqFr2w0Wo-622" value="" style="edgeStyle=orthogonalEdgeStyle;rounded=0;orthogonalLoop=1;jettySize=auto;html=1;endArrow=none;endFill=0;exitX=0.5;exitY=1;exitDx=0;exitDy=0;entryX=1;entryY=0.5;entryDx=0;entryDy=0;" parent="1" source="xyOO_spzbX_BqFr2w0Wo-621" target="xyOO_spzbX_BqFr2w0Wo-250" edge="1">
          <mxGeometry relative="1" as="geometry">
            <mxPoint x="42" y="471.97" as="sourcePoint" />
            <mxPoint x="422" y="838.9699999999991" as="targetPoint" />
            <Array as="points">
              <mxPoint x="522" y="848" />
            </Array>
          </mxGeometry>
        </mxCell>
        <mxCell id="xyOO_spzbX_BqFr2w0Wo-624" value="" style="edgeStyle=orthogonalEdgeStyle;rounded=0;orthogonalLoop=1;jettySize=auto;html=1;endArrow=none;endFill=0;exitX=0.75;exitY=1;exitDx=0;exitDy=0;entryX=0.5;entryY=0;entryDx=0;entryDy=0;" parent="1" source="xyOO_spzbX_BqFr2w0Wo-180" target="xyOO_spzbX_BqFr2w0Wo-626" edge="1">
          <mxGeometry relative="1" as="geometry">
            <mxPoint x="252" y="1473" as="sourcePoint" />
          </mxGeometry>
        </mxCell>
        <mxCell id="xyOO_spzbX_BqFr2w0Wo-626" value="负责" style="rhombus;whiteSpace=wrap;html=1;fillColor=#f5f5f5;strokeColor=#666666;startSize=30;fontStyle=1;fontColor=#333333;" parent="1" vertex="1">
          <mxGeometry x="272" y="1516" width="80" height="80" as="geometry" />
        </mxCell>
        <mxCell id="xyOO_spzbX_BqFr2w0Wo-627" value="" style="edgeStyle=orthogonalEdgeStyle;rounded=0;orthogonalLoop=1;jettySize=auto;html=1;endArrow=none;endFill=0;exitX=0.5;exitY=1;exitDx=0;exitDy=0;entryX=0.5;entryY=1;entryDx=0;entryDy=0;" parent="1" source="xyOO_spzbX_BqFr2w0Wo-626" target="xyOO_spzbX_BqFr2w0Wo-515" edge="1">
          <mxGeometry relative="1" as="geometry">
            <mxPoint x="-268" y="1252.5" as="sourcePoint" />
            <mxPoint x="1422" y="1403" as="targetPoint" />
            <Array as="points">
              <mxPoint x="312" y="1893" />
              <mxPoint x="1412" y="1893" />
            </Array>
          </mxGeometry>
        </mxCell>
        <mxCell id="xyOO_spzbX_BqFr2w0Wo-629" value="" style="edgeStyle=orthogonalEdgeStyle;rounded=0;orthogonalLoop=1;jettySize=auto;html=1;endArrow=none;endFill=0;entryX=0.5;entryY=0;entryDx=0;entryDy=0;" parent="1" target="xyOO_spzbX_BqFr2w0Wo-631" edge="1">
          <mxGeometry relative="1" as="geometry">
            <mxPoint x="212" y="1453" as="sourcePoint" />
          </mxGeometry>
        </mxCell>
        <mxCell id="xyOO_spzbX_BqFr2w0Wo-631" value="负责" style="rhombus;whiteSpace=wrap;html=1;fillColor=#f5f5f5;strokeColor=#666666;startSize=30;fontStyle=1;fontColor=#333333;" parent="1" vertex="1">
          <mxGeometry x="172" y="1546" width="80" height="80" as="geometry" />
        </mxCell>
        <mxCell id="xyOO_spzbX_BqFr2w0Wo-632" value="" style="edgeStyle=orthogonalEdgeStyle;rounded=0;orthogonalLoop=1;jettySize=auto;html=1;endArrow=none;endFill=0;exitX=0.5;exitY=1;exitDx=0;exitDy=0;entryX=1;entryY=0.5;entryDx=0;entryDy=0;" parent="1" source="xyOO_spzbX_BqFr2w0Wo-631" target="xyOO_spzbX_BqFr2w0Wo-507" edge="1">
          <mxGeometry relative="1" as="geometry">
            <mxPoint x="-378" y="1282.5" as="sourcePoint" />
            <mxPoint x="1512" y="1493" as="targetPoint" />
            <Array as="points">
              <mxPoint x="212" y="1923" />
              <mxPoint x="1582" y="1923" />
              <mxPoint x="1582" y="838" />
            </Array>
          </mxGeometry>
        </mxCell>
        <mxCell id="Dp-2rkmi_EKcrzbXIkzD-1" value="&lt;font style=&quot;font-size: 23px;&quot;&gt;(0...*)&lt;/font&gt;" style="edgeLabel;html=1;align=center;verticalAlign=middle;resizable=0;points=[];fontColor=#990000;labelBackgroundColor=none;" vertex="1" connectable="0" parent="1">
          <mxGeometry x="208" y="716.0033333333333" as="geometry" />
        </mxCell>
        <mxCell id="Dp-2rkmi_EKcrzbXIkzD-2" value="&lt;font style=&quot;font-size: 23px;&quot;&gt;(0...*)&lt;/font&gt;" style="edgeLabel;html=1;align=center;verticalAlign=middle;resizable=0;points=[];fontColor=#990000;labelBackgroundColor=none;" vertex="1" connectable="0" parent="1">
          <mxGeometry x="342" y="599.0033333333333" as="geometry" />
        </mxCell>
        <mxCell id="Dp-2rkmi_EKcrzbXIkzD-3" value="&lt;font style=&quot;font-size: 24px;&quot;&gt;(0...1)&lt;/font&gt;" style="edgeLabel;html=1;align=center;verticalAlign=middle;resizable=0;points=[];fontColor=#990000;labelBackgroundColor=none;" vertex="1" connectable="0" parent="1">
          <mxGeometry x="160" y="598.0066666666667" as="geometry">
            <mxPoint x="51" as="offset" />
          </mxGeometry>
        </mxCell>
        <mxCell id="Dp-2rkmi_EKcrzbXIkzD-4" value="&lt;font style=&quot;font-size: 24px;&quot;&gt;(0...1)&lt;/font&gt;" style="edgeLabel;html=1;align=center;verticalAlign=middle;resizable=0;points=[];fontColor=#990000;labelBackgroundColor=none;" vertex="1" connectable="0" parent="1">
          <mxGeometry x="345" y="709.9966666666667" as="geometry" />
        </mxCell>
        <mxCell id="Dp-2rkmi_EKcrzbXIkzD-5" value="&lt;font style=&quot;font-size: 23px;&quot;&gt;(0...*)&lt;/font&gt;" style="edgeLabel;html=1;align=center;verticalAlign=middle;resizable=0;points=[];fontColor=#990000;labelBackgroundColor=none;" vertex="1" connectable="0" parent="1">
          <mxGeometry x="432" y="728.0033333333333" as="geometry" />
        </mxCell>
        <mxCell id="Dp-2rkmi_EKcrzbXIkzD-6" value="&lt;font style=&quot;font-size: 23px;&quot;&gt;(0...*)&lt;/font&gt;" style="edgeLabel;html=1;align=center;verticalAlign=middle;resizable=0;points=[];fontColor=#990000;labelBackgroundColor=none;" vertex="1" connectable="0" parent="1">
          <mxGeometry x="362" y="628.0033333333333" as="geometry">
            <mxPoint x="87" y="205" as="offset" />
          </mxGeometry>
        </mxCell>
        <mxCell id="Dp-2rkmi_EKcrzbXIkzD-7" value="&lt;font style=&quot;font-size: 23px;&quot;&gt;(0...*)&lt;/font&gt;" style="edgeLabel;html=1;align=center;verticalAlign=middle;resizable=0;points=[];fontColor=#990000;labelBackgroundColor=none;" vertex="1" connectable="0" parent="1">
          <mxGeometry x="412" y="677.0033333333333" as="geometry">
            <mxPoint x="-293" y="355" as="offset" />
          </mxGeometry>
        </mxCell>
        <mxCell id="Dp-2rkmi_EKcrzbXIkzD-8" value="&lt;font style=&quot;font-size: 23px;&quot;&gt;(0...*)&lt;/font&gt;" style="edgeLabel;html=1;align=center;verticalAlign=middle;resizable=0;points=[];fontColor=#990000;labelBackgroundColor=none;" vertex="1" connectable="0" parent="1">
          <mxGeometry x="493" y="680.0033333333333" as="geometry">
            <mxPoint x="-293" y="355" as="offset" />
          </mxGeometry>
        </mxCell>
        <mxCell id="Dp-2rkmi_EKcrzbXIkzD-9" value="&lt;font style=&quot;font-size: 23px;&quot;&gt;(0...*)&lt;/font&gt;" style="edgeLabel;html=1;align=center;verticalAlign=middle;resizable=0;points=[];fontColor=#990000;labelBackgroundColor=none;" vertex="1" connectable="0" parent="1">
          <mxGeometry x="535" y="782.4733333333334" as="geometry">
            <mxPoint x="-293" y="355" as="offset" />
          </mxGeometry>
        </mxCell>
        <mxCell id="Dp-2rkmi_EKcrzbXIkzD-10" value="&lt;font style=&quot;font-size: 24px;&quot;&gt;(0...1)&lt;/font&gt;" style="edgeLabel;html=1;align=center;verticalAlign=middle;resizable=0;points=[];fontColor=#990000;labelBackgroundColor=none;" vertex="1" connectable="0" parent="1">
          <mxGeometry x="270" y="1032.9966666666667" as="geometry" />
        </mxCell>
        <mxCell id="Dp-2rkmi_EKcrzbXIkzD-11" value="&lt;font style=&quot;font-size: 24px;&quot;&gt;(0...1)&lt;/font&gt;" style="edgeLabel;html=1;align=center;verticalAlign=middle;resizable=0;points=[];fontColor=#990000;labelBackgroundColor=none;" vertex="1" connectable="0" parent="1">
          <mxGeometry x="302" y="1037.9966666666667" as="geometry">
            <mxPoint x="-227" y="103" as="offset" />
          </mxGeometry>
        </mxCell>
        <mxCell id="Dp-2rkmi_EKcrzbXIkzD-12" value="&lt;font style=&quot;font-size: 24px;&quot;&gt;(0...1)&lt;/font&gt;" style="edgeLabel;html=1;align=center;verticalAlign=middle;resizable=0;points=[];fontColor=#990000;labelBackgroundColor=none;" vertex="1" connectable="0" parent="1">
          <mxGeometry x="154" y="1143.9966666666667" as="geometry" />
        </mxCell>
        <mxCell id="Dp-2rkmi_EKcrzbXIkzD-13" value="&lt;font style=&quot;font-size: 24px;&quot;&gt;(0...1)&lt;/font&gt;" style="edgeLabel;html=1;align=center;verticalAlign=middle;resizable=0;points=[];fontColor=#990000;labelBackgroundColor=none;" vertex="1" connectable="0" parent="1">
          <mxGeometry x="780" y="617.9966666666667" as="geometry">
            <mxPoint x="51" as="offset" />
          </mxGeometry>
        </mxCell>
        <mxCell id="Dp-2rkmi_EKcrzbXIkzD-14" value="&lt;font style=&quot;font-size: 24px;&quot;&gt;(0...1)&lt;/font&gt;" style="edgeLabel;html=1;align=center;verticalAlign=middle;resizable=0;points=[];fontColor=#990000;labelBackgroundColor=none;" vertex="1" connectable="0" parent="1">
          <mxGeometry x="928" y="716.0066666666667" as="geometry">
            <mxPoint x="51" as="offset" />
          </mxGeometry>
        </mxCell>
        <mxCell id="Dp-2rkmi_EKcrzbXIkzD-15" value="&lt;font style=&quot;font-size: 24px;&quot;&gt;(0...1)&lt;/font&gt;" style="edgeLabel;html=1;align=center;verticalAlign=middle;resizable=0;points=[];fontColor=#990000;labelBackgroundColor=none;" vertex="1" connectable="0" parent="1">
          <mxGeometry x="772" y="1903.9966666666667" as="geometry">
            <mxPoint x="51" as="offset" />
          </mxGeometry>
        </mxCell>
        <mxCell id="Dp-2rkmi_EKcrzbXIkzD-16" value="&lt;font style=&quot;font-size: 24px;&quot;&gt;(0...1)&lt;/font&gt;" style="edgeLabel;html=1;align=center;verticalAlign=middle;resizable=0;points=[];fontColor=#990000;labelBackgroundColor=none;" vertex="1" connectable="0" parent="1">
          <mxGeometry x="789" y="1934.9966666666667" as="geometry">
            <mxPoint x="51" as="offset" />
          </mxGeometry>
        </mxCell>
        <mxCell id="Dp-2rkmi_EKcrzbXIkzD-17" value="&lt;font style=&quot;font-size: 23px;&quot;&gt;(0...*)&lt;/font&gt;" style="edgeLabel;html=1;align=center;verticalAlign=middle;resizable=0;points=[];fontColor=#990000;labelBackgroundColor=none;" vertex="1" connectable="0" parent="1">
          <mxGeometry x="472" y="1161.0033333333333" as="geometry">
            <mxPoint x="-293" y="355" as="offset" />
          </mxGeometry>
        </mxCell>
        <mxCell id="Dp-2rkmi_EKcrzbXIkzD-18" value="&lt;font style=&quot;font-size: 23px;&quot;&gt;(0...*)&lt;/font&gt;" style="edgeLabel;html=1;align=center;verticalAlign=middle;resizable=0;points=[];fontColor=#990000;labelBackgroundColor=none;" vertex="1" connectable="0" parent="1">
          <mxGeometry x="570" y="1143.0033333333333" as="geometry">
            <mxPoint x="-293" y="355" as="offset" />
          </mxGeometry>
        </mxCell>
      </root>
    </mxGraphModel>
  </diagram>
</mxfile>
